<ttFont>
    <TTGlyph name=".notdef" xMin="89" yMin="0" xMax="565" yMax="660">
      <contour>
        <pt x="89" y="660" on="1"/>
        <pt x="565" y="660" on="1"/>
        <pt x="565" y="0" on="1"/>
        <pt x="89" y="0" on="1"/>
      </contour>
      <contour>
        <pt x="281" y="340" on="1"/>
        <pt x="154" y="572" on="1"/>
        <pt x="154" y="110" on="1"/>
      </contour>
      <contour>
        <pt x="498" y="110" on="1"/>
        <pt x="498" y="572" on="1"/>
        <pt x="372" y="340" on="1"/>
      </contour>
      <contour>
        <pt x="454" y="58" on="1"/>
        <pt x="381" y="190" on="1"/>
        <pt x="329" y="293" on="1"/>
        <pt x="325" y="293" on="1"/>
        <pt x="271" y="190" on="1"/>
        <pt x="197" y="58" on="1"/>
      </contour>
      <contour>
        <pt x="329" y="387" on="1"/>
        <pt x="378" y="481" on="1"/>
        <pt x="444" y="600" on="1"/>
        <pt x="209" y="600" on="1"/>
        <pt x="275" y="481" on="1"/>
        <pt x="325" y="387" on="1"/>
      </contour>
    </TTGlyph>
    <TTGlyph name="A" xMin="3" yMin="0" xMax="541" yMax="656">
      <contour>
        <pt x="369" y="267" on="1"/>
        <pt x="338" y="367" on="1"/>
        <pt x="320" y="422" on="0"/>
        <pt x="288" y="531" on="0"/>
        <pt x="272" y="588" on="1"/>
        <pt x="268" y="588" on="1"/>
        <pt x="253" y="531" on="0"/>
        <pt x="221" y="422" on="0"/>
        <pt x="203" y="367" on="1"/>
        <pt x="172" y="267" on="1"/>
      </contour>
      <contour>
        <pt x="390" y="200" on="1"/>
        <pt x="151" y="200" on="1"/>
        <pt x="88" y="0" on="1"/>
        <pt x="3" y="0" on="1"/>
        <pt x="225" y="656" on="1"/>
        <pt x="319" y="656" on="1"/>
        <pt x="541" y="0" on="1"/>
        <pt x="452" y="0" on="1"/>
      </contour>
    </TTGlyph>
    <TTGlyph name="A.sc" xMin="3" yMin="0" xMax="468" yMax="518">
      <contour>
        <pt x="312" y="208" on="1"/>
        <pt x="288" y="282" on="1"/>
        <pt x="274" y="325" on="0"/>
        <pt x="250" y="408" on="0"/>
        <pt x="236" y="451" on="1"/>
        <pt x="232" y="451" on="1"/>
        <pt x="218" y="407" on="0"/>
        <pt x="194" y="325" on="0"/>
        <pt x="180" y="282" on="1"/>
        <pt x="156" y="208" on="1"/>
      </contour>
      <contour>
        <pt x="332" y="146" on="1"/>
        <pt x="135" y="146" on="1"/>
        <pt x="87" y="0" on="1"/>
        <pt x="3" y="0" on="1"/>
        <pt x="188" y="518" on="1"/>
        <pt x="282" y="518" on="1"/>
        <pt x="468" y="0" on="1"/>
        <pt x="380" y="0" on="1"/>
      </contour>
    </TTGlyph>
    <TTGlyph name="A.sups" xMin="-1" yMin="266" xMax="365" yMax="698">
      <contour>
        <pt x="244" y="443" on="1"/>
        <pt x="225" y="505" on="1"/>
        <pt x="214" y="541" on="0"/>
        <pt x="193" y="613" on="0"/>
        <pt x="182" y="648" on="1"/>
        <pt x="180" y="648" on="1"/>
        <pt x="169" y="611" on="0"/>
        <pt x="148" y="540" on="0"/>
        <pt x="137" y="505" on="1"/>
        <pt x="118" y="443" on="1"/>
      </contour>
      <contour>
        <pt x="259" y="394" on="1"/>
        <pt x="103" y="394" on="1"/>
        <pt x="63" y="266" on="1"/>
        <pt x="-1" y="266" on="1"/>
        <pt x="146" y="698" on="1"/>
        <pt x="218" y="698" on="1"/>
        <pt x="365" y="266" on="1"/>
        <pt x="298" y="266" on="1"/>
      </contour>
    </TTGlyph>
    <TTGlyph name="AE" xMin="8" yMin="0" xMax="773" yMax="656">
      <contour>
        <pt x="401" y="258" on="1"/>
        <pt x="401" y="590" on="1"/>
        <pt x="397" y="590" on="1"/>
        <pt x="344" y="483" on="0"/>
        <pt x="290" y="376" on="1"/>
        <pt x="229" y="258" on="1"/>
      </contour>
      <contour>
        <pt x="773" y="71" on="1"/>
        <pt x="773" y="0" on="1"/>
        <pt x="401" y="0" on="1"/>
        <pt x="401" y="191" on="1"/>
        <pt x="195" y="191" on="1"/>
        <pt x="96" y="0" on="1"/>
        <pt x="8" y="0" on="1"/>
        <pt x="352" y="656" on="1"/>
        <pt x="763" y="656" on="1"/>
        <pt x="763" y="586" on="1"/>
        <pt x="485" y="586" on="1"/>
        <pt x="485" y="380" on="1"/>
        <pt x="717" y="380" on="1"/>
        <pt x="717" y="309" on="1"/>
        <pt x="485" y="309" on="1"/>
        <pt x="485" y="71" on="1"/>
      </contour>
    </TTGlyph>
    <TTGlyph name="AE.sc" xMin="8" yMin="0" xMax="663" yMax="518">
      <contour>
        <pt x="342" y="203" on="1"/>
        <pt x="342" y="455" on="1"/>
        <pt x="339" y="455" on="1"/>
        <pt x="317" y="414" on="0"/>
        <pt x="274" y="331" on="0"/>
        <pt x="252" y="292" on="1"/>
        <pt x="204" y="203" on="1"/>
      </contour>
      <contour>
        <pt x="663" y="66" on="1"/>
        <pt x="663" y="0" on="1"/>
        <pt x="342" y="0" on="1"/>
        <pt x="342" y="141" on="1"/>
        <pt x="170" y="141" on="1"/>
        <pt x="94" y="0" on="1"/>
        <pt x="8" y="0" on="1"/>
        <pt x="294" y="518" on="1"/>
        <pt x="653" y="518" on="1"/>
        <pt x="653" y="452" on="1"/>
        <pt x="426" y="452" on="1"/>
        <pt x="426" y="302" on="1"/>
        <pt x="616" y="302" on="1"/>
        <pt x="616" y="239" on="1"/>
        <pt x="426" y="239" on="1"/>
        <pt x="426" y="66" on="1"/>
      </contour>
    </TTGlyph>
    <TTGlyph name="Aacute" xMin="3" yMin="0" xMax="541" yMax="818">
      <component glyphName="A" x="0" y="0" flags="0x204"/>
      <component glyphName="uni0301.cap" x="271" y="0" flags="0x4"/>
    </TTGlyph>
    <TTGlyph name="Aacute.sc" xMin="3" yMin="0" xMax="468" yMax="703">
      <component glyphName="A.sc" x="0" y="0" flags="0x204"/>
      <component glyphName="uni0301.cap" x="234" y="-115" flags="0x4"/>
    </TTGlyph>
    <TTGlyph name="Abreve" xMin="3" yMin="0" xMax="541" yMax="818">
      <component glyphName="A" x="0" y="0" flags="0x204"/>
      <component glyphName="uni0306.cap" x="271" y="0" flags="0x4"/>
    </TTGlyph>
    <TTGlyph name="Abreve.sc" xMin="3" yMin="0" xMax="468" yMax="703">
      <component glyphName="A.sc" x="0" y="0" flags="0x204"/>
      <component glyphName="uni0306.cap" x="234" y="-115" flags="0x4"/>
    </TTGlyph>
    <TTGlyph name="Acircumflex" xMin="3" yMin="0" xMax="541" yMax="818">
      <component glyphName="A" x="0" y="0" flags="0x204"/>
      <component glyphName="uni0302.cap" x="271" y="0" flags="0x4"/>
    </TTGlyph>
    <TTGlyph name="Acircumflex.sc" xMin="3" yMin="0" xMax="468" yMax="703">
      <component glyphName="A.sc" x="0" y="0" flags="0x204"/>
      <component glyphName="uni0302.cap" x="234" y="-115" flags="0x4"/>
    </TTGlyph>
    <TTGlyph name="Adieresis" xMin="3" yMin="0" xMax="541" yMax="813">
      <component glyphName="A" x="0" y="0" flags="0x204"/>
      <component glyphName="uni0308.cap" x="271" y="0" flags="0x4"/>
    </TTGlyph>
    <TTGlyph name="Adieresis.sc" xMin="3" yMin="0" xMax="468" yMax="698">
      <component glyphName="A.sc" x="0" y="0" flags="0x204"/>
      <component glyphName="uni0308.cap" x="234" y="-115" flags="0x4"/>
    </TTGlyph>
    <TTGlyph name="Agrave" xMin="3" yMin="0" xMax="541" yMax="818">
      <component glyphName="A" x="0" y="0" flags="0x204"/>
      <component glyphName="uni0300.cap" x="271" y="0" flags="0x4"/>
    </TTGlyph>
    <TTGlyph name="Agrave.sc" xMin="3" yMin="0" xMax="468" yMax="703">
      <component glyphName="A.sc" x="0" y="0" flags="0x204"/>
      <component glyphName="uni0300.cap" x="234" y="-115" flags="0x4"/>
    </TTGlyph>
    <TTGlyph name="Amacron" xMin="3" yMin="0" xMax="541" yMax="786">
      <component glyphName="A" x="0" y="0" flags="0x204"/>
      <component glyphName="uni0304.cap" x="271" y="0" flags="0x4"/>
    </TTGlyph>
    <TTGlyph name="Amacron.sc" xMin="3" yMin="0" xMax="468" yMax="671">
      <component glyphName="A.sc" x="0" y="0" flags="0x204"/>
      <component glyphName="uni0304.cap" x="234" y="-115" flags="0x4"/>
    </TTGlyph>
    <TTGlyph name="Aogonek" xMin="3" yMin="-212" xMax="572" yMax="656">
      <contour>
        <pt x="369" y="267" on="1"/>
        <pt x="338" y="367" on="1"/>
        <pt x="320" y="422" on="0"/>
        <pt x="288" y="531" on="0"/>
        <pt x="272" y="588" on="1"/>
        <pt x="268" y="588" on="1"/>
        <pt x="253" y="531" on="0"/>
        <pt x="221" y="422" on="0"/>
        <pt x="203" y="367" on="1"/>
        <pt x="172" y="267" on="1"/>
      </contour>
      <contour>
        <pt x="572" y="-184" on="1"/>
        <pt x="557" y="-195" on="0"/>
        <pt x="512" y="-212" on="0"/>
        <pt x="492" y="-212" on="1"/>
        <pt x="452" y="-212" on="0"/>
        <pt x="396" y="-168" on="0"/>
        <pt x="396" y="-125" on="1"/>
        <pt x="396" y="-105" on="0"/>
        <pt x="410" y="-67" on="0"/>
        <pt x="432" y="-35" on="0"/>
        <pt x="458" y="-9" on="0"/>
        <pt x="471" y="0" on="1"/>
        <pt x="452" y="0" on="1"/>
        <pt x="390" y="200" on="1"/>
        <pt x="151" y="200" on="1"/>
        <pt x="88" y="0" on="1"/>
        <pt x="3" y="0" on="1"/>
        <pt x="225" y="656" on="1"/>
        <pt x="319" y="656" on="1"/>
        <pt x="541" y="0" on="1"/>
        <pt x="506" y="-14" on="0"/>
        <pt x="461" y="-76" on="0"/>
        <pt x="461" y="-107" on="1"/>
        <pt x="461" y="-130" on="0"/>
        <pt x="489" y="-153" on="0"/>
        <pt x="507" y="-153" on="1"/>
        <pt x="530" y="-153" on="0"/>
        <pt x="549" y="-139" on="1"/>
      </contour>
    </TTGlyph>
    <TTGlyph name="Aogonek.sc" xMin="3" yMin="-212" xMax="498" yMax="518">
      <contour>
        <pt x="312" y="208" on="1"/>
        <pt x="288" y="282" on="1"/>
        <pt x="274" y="325" on="0"/>
        <pt x="250" y="408" on="0"/>
        <pt x="236" y="451" on="1"/>
        <pt x="232" y="451" on="1"/>
        <pt x="218" y="407" on="0"/>
        <pt x="194" y="325" on="0"/>
        <pt x="180" y="282" on="1"/>
        <pt x="156" y="208" on="1"/>
      </contour>
      <contour>
        <pt x="498" y="-184" on="1"/>
        <pt x="484" y="-195" on="0"/>
        <pt x="439" y="-212" on="0"/>
        <pt x="419" y="-212" on="1"/>
        <pt x="379" y="-212" on="0"/>
        <pt x="323" y="-168" on="0"/>
        <pt x="323" y="-125" on="1"/>
        <pt x="323" y="-105" on="0"/>
        <pt x="337" y="-67" on="0"/>
        <pt x="359" y="-35" on="0"/>
        <pt x="385" y="-9" on="0"/>
        <pt x="398" y="0" on="1"/>
        <pt x="380" y="0" on="1"/>
        <pt x="332" y="146" on="1"/>
        <pt x="135" y="146" on="1"/>
        <pt x="87" y="0" on="1"/>
        <pt x="3" y="0" on="1"/>
        <pt x="188" y="518" on="1"/>
        <pt x="282" y="518" on="1"/>
        <pt x="468" y="0" on="1"/>
        <pt x="433" y="-14" on="0"/>
        <pt x="388" y="-76" on="0"/>
        <pt x="388" y="-107" on="1"/>
        <pt x="388" y="-130" on="0"/>
        <pt x="416" y="-153" on="0"/>
        <pt x="434" y="-153" on="1"/>
        <pt x="457" y="-153" on="0"/>
        <pt x="476" y="-139" on="1"/>
      </contour>
    </TTGlyph>
    <TTGlyph name="Aring" xMin="3" yMin="0" xMax="541" yMax="875">
      <component glyphName="A" x="0" y="0" flags="0x204"/>
      <component glyphName="uni030A.cap" x="271" y="0" flags="0x4"/>
    </TTGlyph>
    <TTGlyph name="Aring.sc" xMin="3" yMin="0" xMax="468" yMax="760">
      <component glyphName="A.sc" x="0" y="0" flags="0x204"/>
      <component glyphName="uni030A.cap" x="234" y="-115" flags="0x4"/>
    </TTGlyph>
    <TTGlyph name="Atilde" xMin="3" yMin="0" xMax="541" yMax="819">
      <component glyphName="A" x="0" y="0" flags="0x204"/>
      <component glyphName="uni0303.cap" x="271" y="0" flags="0x4"/>
    </TTGlyph>
    <TTGlyph name="Atilde.sc" xMin="3" yMin="0" xMax="468" yMax="704">
      <component glyphName="A.sc" x="0" y="0" flags="0x204"/>
      <component glyphName="uni0303.cap" x="234" y="-115" flags="0x4"/>
    </TTGlyph>
    <TTGlyph name="B" xMin="90" yMin="0" xMax="548" yMax="656">
      <contour>
        <pt x="90" y="656" on="1"/>
        <pt x="285" y="656" on="1"/>
        <pt x="335" y="656" on="0"/>
        <pt x="418" y="638" on="0"/>
        <pt x="477" y="600" on="0"/>
        <pt x="510" y="539" on="0"/>
        <pt x="510" y="496" on="1"/>
        <pt x="510" y="447" on="0"/>
        <pt x="454" y="368" on="0"/>
        <pt x="396" y="353" on="1"/>
        <pt x="396" y="349" on="1"/>
        <pt x="468" y="338" on="0"/>
        <pt x="548" y="260" on="0"/>
        <pt x="548" y="192" on="1"/>
        <pt x="548" y="144" on="0"/>
        <pt x="512" y="72" on="0"/>
        <pt x="446" y="24" on="0"/>
        <pt x="354" y="0" on="0"/>
        <pt x="299" y="0" on="1"/>
        <pt x="90" y="0" on="1"/>
      </contour>
      <contour>
        <pt x="270" y="376" on="1"/>
        <pt x="355" y="376" on="0"/>
        <pt x="428" y="434" on="0"/>
        <pt x="428" y="489" on="1"/>
        <pt x="428" y="543" on="0"/>
        <pt x="351" y="590" on="0"/>
        <pt x="274" y="590" on="1"/>
        <pt x="173" y="590" on="1"/>
        <pt x="173" y="376" on="1"/>
      </contour>
      <contour>
        <pt x="287" y="66" on="1"/>
        <pt x="372" y="66" on="0"/>
        <pt x="466" y="129" on="0"/>
        <pt x="466" y="196" on="1"/>
        <pt x="466" y="257" on="0"/>
        <pt x="374" y="314" on="0"/>
        <pt x="287" y="314" on="1"/>
        <pt x="173" y="314" on="1"/>
        <pt x="173" y="66" on="1"/>
      </contour>
    </TTGlyph>
    <TTGlyph name="B.sc" xMin="90" yMin="0" xMax="485" yMax="518">
      <contour>
        <pt x="90" y="518" on="1"/>
        <pt x="260" y="518" on="1"/>
        <pt x="303" y="518" on="0"/>
        <pt x="374" y="504" on="0"/>
        <pt x="426" y="474" on="0"/>
        <pt x="455" y="425" on="0"/>
        <pt x="455" y="390" on="1"/>
        <pt x="455" y="352" on="0"/>
        <pt x="410" y="291" on="0"/>
        <pt x="365" y="279" on="1"/>
        <pt x="365" y="275" on="1"/>
        <pt x="420" y="264" on="0"/>
        <pt x="485" y="205" on="0"/>
        <pt x="485" y="151" on="1"/>
        <pt x="485" y="112" on="0"/>
        <pt x="454" y="56" on="0"/>
        <pt x="397" y="18" on="0"/>
        <pt x="319" y="0" on="0"/>
        <pt x="273" y="0" on="1"/>
        <pt x="90" y="0" on="1"/>
      </contour>
      <contour>
        <pt x="251" y="299" on="1"/>
        <pt x="320" y="299" on="0"/>
        <pt x="378" y="341" on="0"/>
        <pt x="378" y="381" on="1"/>
        <pt x="378" y="421" on="0"/>
        <pt x="316" y="456" on="0"/>
        <pt x="254" y="456" on="1"/>
        <pt x="173" y="456" on="1"/>
        <pt x="173" y="299" on="1"/>
      </contour>
      <contour>
        <pt x="263" y="62" on="1"/>
        <pt x="328" y="62" on="0"/>
        <pt x="405" y="105" on="0"/>
        <pt x="405" y="156" on="1"/>
        <pt x="405" y="201" on="0"/>
        <pt x="332" y="243" on="0"/>
        <pt x="263" y="243" on="1"/>
        <pt x="173" y="243" on="1"/>
        <pt x="173" y="62" on="1"/>
      </contour>
    </TTGlyph>
    <TTGlyph name="B.sups" xMin="57" yMin="266" xMax="367" yMax="698">
      <contour>
        <pt x="57" y="698" on="1"/>
        <pt x="191" y="698" on="1"/>
        <pt x="258" y="698" on="0"/>
        <pt x="343" y="650" on="0"/>
        <pt x="343" y="593" on="1"/>
        <pt x="343" y="561" on="0"/>
        <pt x="305" y="510" on="0"/>
        <pt x="267" y="499" on="1"/>
        <pt x="267" y="497" on="1"/>
        <pt x="315" y="489" on="0"/>
        <pt x="367" y="438" on="0"/>
        <pt x="367" y="393" on="1"/>
        <pt x="367" y="329" on="0"/>
        <pt x="274" y="266" on="0"/>
        <pt x="201" y="266" on="1"/>
        <pt x="57" y="266" on="1"/>
      </contour>
      <contour>
        <pt x="182" y="516" on="1"/>
        <pt x="236" y="516" on="0"/>
        <pt x="282" y="552" on="0"/>
        <pt x="282" y="586" on="1"/>
        <pt x="282" y="650" on="0"/>
        <pt x="184" y="650" on="1"/>
        <pt x="120" y="650" on="1"/>
        <pt x="120" y="516" on="1"/>
      </contour>
      <contour>
        <pt x="193" y="315" on="1"/>
        <pt x="247" y="315" on="0"/>
        <pt x="306" y="353" on="0"/>
        <pt x="306" y="396" on="1"/>
        <pt x="306" y="434" on="0"/>
        <pt x="248" y="471" on="0"/>
        <pt x="193" y="471" on="1"/>
        <pt x="120" y="471" on="1"/>
        <pt x="120" y="315" on="1"/>
      </contour>
    </TTGlyph>
    <TTGlyph name="C" xMin="52" yMin="-12" xMax="539" yMax="668">
      <contour>
        <pt x="52" y="328" on="1"/>
        <pt x="52" y="407" on="0"/>
        <pt x="96" y="533" on="0"/>
        <pt x="174" y="621" on="0"/>
        <pt x="281" y="668" on="0"/>
        <pt x="344" y="668" on="1"/>
        <pt x="404" y="668" on="0"/>
        <pt x="494" y="619" on="0"/>
        <pt x="523" y="587" on="1"/>
        <pt x="476" y="534" on="1"/>
        <pt x="450" y="562" on="0"/>
        <pt x="387" y="595" on="0"/>
        <pt x="345" y="595" on="1"/>
        <pt x="298" y="595" on="0"/>
        <pt x="222" y="558" on="0"/>
        <pt x="168" y="489" on="0"/>
        <pt x="138" y="391" on="0"/>
        <pt x="138" y="330" on="1"/>
        <pt x="138" y="268" on="0"/>
        <pt x="167" y="169" on="0"/>
        <pt x="219" y="99" on="0"/>
        <pt x="294" y="61" on="0"/>
        <pt x="341" y="61" on="1"/>
        <pt x="389" y="61" on="0"/>
        <pt x="460" y="99" on="0"/>
        <pt x="492" y="134" on="1"/>
        <pt x="539" y="83" on="1"/>
        <pt x="500" y="38" on="0"/>
        <pt x="402" y="-12" on="0"/>
        <pt x="339" y="-12" on="1"/>
        <pt x="277" y="-12" on="0"/>
        <pt x="172" y="34" on="0"/>
        <pt x="95" y="121" on="0"/>
        <pt x="52" y="248" on="0"/>
      </contour>
    </TTGlyph>
    <TTGlyph name="C.sc" xMin="52" yMin="-12" xMax="471" yMax="530">
      <contour>
        <pt x="52" y="258" on="1"/>
        <pt x="52" y="321" on="0"/>
        <pt x="91" y="422" on="0"/>
        <pt x="158" y="493" on="0"/>
        <pt x="251" y="530" on="0"/>
        <pt x="305" y="530" on="1"/>
        <pt x="355" y="530" on="0"/>
        <pt x="434" y="490" on="0"/>
        <pt x="460" y="464" on="1"/>
        <pt x="413" y="413" on="1"/>
        <pt x="391" y="435" on="0"/>
        <pt x="340" y="460" on="0"/>
        <pt x="306" y="460" on="1"/>
        <pt x="229" y="460" on="0"/>
        <pt x="137" y="354" on="0"/>
        <pt x="137" y="260" on="1"/>
        <pt x="137" y="165" on="0"/>
        <pt x="225" y="58" on="0"/>
        <pt x="302" y="58" on="1"/>
        <pt x="341" y="58" on="0"/>
        <pt x="400" y="87" on="0"/>
        <pt x="425" y="113" on="1"/>
        <pt x="471" y="63" on="1"/>
        <pt x="437" y="26" on="0"/>
        <pt x="352" y="-12" on="0"/>
        <pt x="298" y="-12" on="1"/>
        <pt x="245" y="-12" on="0"/>
        <pt x="155" y="24" on="0"/>
        <pt x="89" y="93" on="0"/>
        <pt x="52" y="193" on="0"/>
      </contour>
    </TTGlyph>
    <TTGlyph name="C.sups" xMin="32" yMin="258" xMax="360" yMax="706">
      <contour>
        <pt x="32" y="481" on="1"/>
        <pt x="32" y="533" on="0"/>
        <pt x="62" y="616" on="0"/>
        <pt x="115" y="675" on="0"/>
        <pt x="187" y="706" on="0"/>
        <pt x="229" y="706" on="1"/>
        <pt x="270" y="706" on="0"/>
        <pt x="331" y="675" on="0"/>
        <pt x="351" y="652" on="1"/>
        <pt x="316" y="614" on="1"/>
        <pt x="298" y="631" on="0"/>
        <pt x="257" y="652" on="0"/>
        <pt x="231" y="652" on="1"/>
        <pt x="171" y="652" on="0"/>
        <pt x="97" y="561" on="0"/>
        <pt x="97" y="483" on="1"/>
        <pt x="97" y="404" on="0"/>
        <pt x="168" y="312" on="0"/>
        <pt x="228" y="312" on="1"/>
        <pt x="258" y="312" on="0"/>
        <pt x="305" y="336" on="0"/>
        <pt x="325" y="359" on="1"/>
        <pt x="360" y="321" on="1"/>
        <pt x="334" y="291" on="0"/>
        <pt x="268" y="258" on="0"/>
        <pt x="225" y="258" on="1"/>
        <pt x="184" y="258" on="0"/>
        <pt x="113" y="288" on="0"/>
        <pt x="61" y="345" on="0"/>
        <pt x="32" y="428" on="0"/>
      </contour>
    </TTGlyph>
    <TTGlyph name="Cacute" xMin="52" yMin="-12" xMax="539" yMax="818">
      <component glyphName="C" x="0" y="0" flags="0x204"/>
      <component glyphName="uni0301.cap" x="330" y="0" flags="0x4"/>
    </TTGlyph>
    <TTGlyph name="Cacute.sc" xMin="52" yMin="-12" xMax="471" yMax="703">
      <component glyphName="C.sc" x="0" y="0" flags="0x204"/>
      <component glyphName="uni0301.cap" x="294" y="-115" flags="0x4"/>
    </TTGlyph>
    <TTGlyph name="Ccaron" xMin="52" yMin="-12" xMax="539" yMax="818">
      <component glyphName="C" x="0" y="0" flags="0x204"/>
      <component glyphName="uni030C.cap" x="330" y="0" flags="0x4"/>
    </TTGlyph>
    <TTGlyph name="Ccaron.sc" xMin="52" yMin="-12" xMax="471" yMax="703">
      <component glyphName="C.sc" x="0" y="0" flags="0x204"/>
      <component glyphName="uni030C.cap" x="294" y="-115" flags="0x4"/>
    </TTGlyph>
    <TTGlyph name="Ccedilla" xMin="52" yMin="-213" xMax="539" yMax="668">
      <component glyphName="C" x="0" y="0" flags="0x204"/>
      <component glyphName="uni0327.cap" x="343" y="0" flags="0x4"/>
    </TTGlyph>
    <TTGlyph name="Ccedilla.sc" xMin="52" yMin="-213" xMax="471" yMax="530">
      <component glyphName="C.sc" x="0" y="0" flags="0x204"/>
      <component glyphName="uni0327.cap" x="294" y="0" flags="0x4"/>
    </TTGlyph>
    <TTGlyph name="Ccircumflex" xMin="52" yMin="-12" xMax="539" yMax="818">
      <component glyphName="C" x="0" y="0" flags="0x204"/>
      <component glyphName="uni0302.cap" x="330" y="0" flags="0x4"/>
    </TTGlyph>
    <TTGlyph name="Ccircumflex.sc" xMin="52" yMin="-12" xMax="471" yMax="703">
      <component glyphName="C.sc" x="0" y="0" flags="0x204"/>
      <component glyphName="uni0302.cap" x="294" y="-115" flags="0x4"/>
    </TTGlyph>
    <TTGlyph name="Cdotaccent" xMin="52" yMin="-12" xMax="539" yMax="821">
      <component glyphName="C" x="0" y="0" flags="0x204"/>
      <component glyphName="uni0307.cap" x="330" y="0" flags="0x4"/>
    </TTGlyph>
    <TTGlyph name="Cdotaccent.sc" xMin="52" yMin="-12" xMax="471" yMax="706">
      <component glyphName="C.sc" x="0" y="0" flags="0x204"/>
      <component glyphName="uni0307.cap" x="294" y="-115" flags="0x4"/>
    </TTGlyph>
    <TTGlyph name="D" xMin="90" yMin="0" xMax="564" yMax="656">
      <contour>
        <pt x="90" y="656" on="1"/>
        <pt x="254" y="656" on="1"/>
        <pt x="406" y="656" on="0"/>
        <pt x="564" y="488" on="0"/>
        <pt x="564" y="331" on="1"/>
        <pt x="564" y="253" on="0"/>
        <pt x="524" y="130" on="0"/>
        <pt x="446" y="45" on="0"/>
        <pt x="332" y="0" on="0"/>
        <pt x="258" y="0" on="1"/>
        <pt x="90" y="0" on="1"/>
      </contour>
      <contour>
        <pt x="248" y="68" on="1"/>
        <pt x="363" y="68" on="0"/>
        <pt x="478" y="206" on="0"/>
        <pt x="478" y="331" on="1"/>
        <pt x="478" y="456" on="0"/>
        <pt x="363" y="588" on="0"/>
        <pt x="248" y="588" on="1"/>
        <pt x="173" y="588" on="1"/>
        <pt x="173" y="68" on="1"/>
      </contour>
    </TTGlyph>
    <TTGlyph name="D.sc" xMin="90" yMin="0" xMax="503" yMax="518">
      <contour>
        <pt x="90" y="518" on="1"/>
        <pt x="233" y="518" on="1"/>
        <pt x="362" y="518" on="0"/>
        <pt x="503" y="389" on="0"/>
        <pt x="503" y="261" on="1"/>
        <pt x="503" y="132" on="0"/>
        <pt x="363" y="0" on="0"/>
        <pt x="237" y="0" on="1"/>
        <pt x="90" y="0" on="1"/>
      </contour>
      <contour>
        <pt x="235" y="65" on="1"/>
        <pt x="328" y="65" on="0"/>
        <pt x="417" y="164" on="0"/>
        <pt x="417" y="261" on="1"/>
        <pt x="417" y="352" on="0"/>
        <pt x="328" y="452" on="0"/>
        <pt x="235" y="452" on="1"/>
        <pt x="173" y="452" on="1"/>
        <pt x="173" y="65" on="1"/>
      </contour>
    </TTGlyph>
    <TTGlyph name="D.sups" xMin="57" yMin="266" xMax="378" yMax="698">
      <contour>
        <pt x="57" y="698" on="1"/>
        <pt x="169" y="698" on="1"/>
        <pt x="271" y="698" on="0"/>
        <pt x="378" y="589" on="0"/>
        <pt x="378" y="485" on="1"/>
        <pt x="378" y="379" on="0"/>
        <pt x="272" y="266" on="0"/>
        <pt x="172" y="266" on="1"/>
        <pt x="57" y="266" on="1"/>
      </contour>
      <contour>
        <pt x="168" y="317" on="1"/>
        <pt x="240" y="317" on="0"/>
        <pt x="313" y="403" on="0"/>
        <pt x="313" y="484" on="1"/>
        <pt x="313" y="648" on="0"/>
        <pt x="166" y="648" on="1"/>
        <pt x="120" y="648" on="1"/>
        <pt x="120" y="317" on="1"/>
      </contour>
    </TTGlyph>
    <TTGlyph name="Dcaron" xMin="90" yMin="0" xMax="564" yMax="818">
      <component glyphName="D" x="0" y="0" flags="0x204"/>
      <component glyphName="uni030C.cap" x="307" y="0" flags="0x4"/>
    </TTGlyph>
    <TTGlyph name="Dcaron.sc" xMin="90" yMin="0" xMax="503" yMax="703">
      <component glyphName="D.sc" x="0" y="0" flags="0x4"/>
      <component glyphName="uni030C.cap" x="283" y="-115" flags="0x4"/>
    </TTGlyph>
    <TTGlyph name="Dcroat" xMin="33" yMin="0" xMax="586" yMax="656">
      <component glyphName="Eth" x="0" y="0" flags="0x204"/>
    </TTGlyph>
    <TTGlyph name="Dcroat.sc" xMin="33" yMin="0" xMax="523" yMax="518">
      <component glyphName="Eth.sc" x="0" y="0" flags="0x204"/>
    </TTGlyph>
    <TTGlyph name="E" xMin="90" yMin="0" xMax="478" yMax="656">
      <contour>
        <pt x="90" y="656" on="1"/>
        <pt x="468" y="656" on="1"/>
        <pt x="468" y="586" on="1"/>
        <pt x="173" y="586" on="1"/>
        <pt x="173" y="380" on="1"/>
        <pt x="422" y="380" on="1"/>
        <pt x="422" y="309" on="1"/>
        <pt x="173" y="309" on="1"/>
        <pt x="173" y="71" on="1"/>
        <pt x="478" y="71" on="1"/>
        <pt x="478" y="0" on="1"/>
        <pt x="90" y="0" on="1"/>
      </contour>
    </TTGlyph>
    <TTGlyph name="E.sc" xMin="90" yMin="0" xMax="426" yMax="518">
      <contour>
        <pt x="90" y="518" on="1"/>
        <pt x="416" y="518" on="1"/>
        <pt x="416" y="452" on="1"/>
        <pt x="173" y="452" on="1"/>
        <pt x="173" y="302" on="1"/>
        <pt x="379" y="302" on="1"/>
        <pt x="379" y="239" on="1"/>
        <pt x="173" y="239" on="1"/>
        <pt x="173" y="66" on="1"/>
        <pt x="426" y="66" on="1"/>
        <pt x="426" y="0" on="1"/>
        <pt x="90" y="0" on="1"/>
      </contour>
    </TTGlyph>
    <TTGlyph name="E.sups" xMin="57" yMin="266" xMax="319" yMax="698">
      <contour>
        <pt x="57" y="698" on="1"/>
        <pt x="313" y="698" on="1"/>
        <pt x="313" y="646" on="1"/>
        <pt x="120" y="646" on="1"/>
        <pt x="120" y="519" on="1"/>
        <pt x="284" y="519" on="1"/>
        <pt x="284" y="467" on="1"/>
        <pt x="120" y="467" on="1"/>
        <pt x="120" y="319" on="1"/>
        <pt x="319" y="319" on="1"/>
        <pt x="319" y="266" on="1"/>
        <pt x="57" y="266" on="1"/>
      </contour>
    </TTGlyph>
    <TTGlyph name="Eacute" xMin="90" yMin="0" xMax="478" yMax="818">
      <component glyphName="E" x="0" y="0" flags="0x204"/>
      <component glyphName="uni0301.cap" x="284" y="0" flags="0x4"/>
    </TTGlyph>
    <TTGlyph name="Eacute.sc" xMin="90" yMin="0" xMax="426" yMax="703">
      <component glyphName="E.sc" x="0" y="0" flags="0x204"/>
      <component glyphName="uni0301.cap" x="264" y="-115" flags="0x4"/>
    </TTGlyph>
    <TTGlyph name="Ebreve" xMin="90" yMin="0" xMax="478" yMax="818">
      <component glyphName="E" x="0" y="0" flags="0x204"/>
      <component glyphName="uni0306.cap" x="284" y="0" flags="0x4"/>
    </TTGlyph>
    <TTGlyph name="Ebreve.sc" xMin="90" yMin="0" xMax="426" yMax="703">
      <component glyphName="E.sc" x="0" y="0" flags="0x204"/>
      <component glyphName="uni0306.cap" x="264" y="-115" flags="0x4"/>
    </TTGlyph>
    <TTGlyph name="Ecaron" xMin="90" yMin="0" xMax="478" yMax="818">
      <component glyphName="E" x="0" y="0" flags="0x204"/>
      <component glyphName="uni030C.cap" x="284" y="0" flags="0x4"/>
    </TTGlyph>
    <TTGlyph name="Ecaron.sc" xMin="90" yMin="0" xMax="426" yMax="703">
      <component glyphName="E.sc" x="0" y="0" flags="0x204"/>
      <component glyphName="uni030C.cap" x="264" y="-115" flags="0x4"/>
    </TTGlyph>
    <TTGlyph name="Ecircumflex" xMin="90" yMin="0" xMax="478" yMax="818">
      <component glyphName="E" x="0" y="0" flags="0x204"/>
      <component glyphName="uni0302.cap" x="284" y="0" flags="0x4"/>
    </TTGlyph>
    <TTGlyph name="Ecircumflex.sc" xMin="90" yMin="0" xMax="426" yMax="703">
      <component glyphName="E.sc" x="0" y="0" flags="0x204"/>
      <component glyphName="uni0302.cap" x="264" y="-115" flags="0x4"/>
    </TTGlyph>
    <TTGlyph name="Edieresis" xMin="90" yMin="0" xMax="478" yMax="813">
      <component glyphName="E" x="0" y="0" flags="0x204"/>
      <component glyphName="uni0308.cap" x="284" y="0" flags="0x4"/>
    </TTGlyph>
    <TTGlyph name="Edieresis.sc" xMin="90" yMin="0" xMax="426" yMax="698">
      <component glyphName="E.sc" x="0" y="0" flags="0x204"/>
      <component glyphName="uni0308.cap" x="264" y="-115" flags="0x4"/>
    </TTGlyph>
    <TTGlyph name="Edotaccent" xMin="90" yMin="0" xMax="478" yMax="821">
      <component glyphName="E" x="0" y="0" flags="0x204"/>
      <component glyphName="uni0307.cap" x="284" y="0" flags="0x4"/>
    </TTGlyph>
    <TTGlyph name="Edotaccent.sc" xMin="90" yMin="0" xMax="426" yMax="706">
      <component glyphName="E.sc" x="0" y="0" flags="0x204"/>
      <component glyphName="uni0307.cap" x="264" y="-115" flags="0x4"/>
    </TTGlyph>
    <TTGlyph name="Egrave" xMin="90" yMin="0" xMax="478" yMax="818">
      <component glyphName="E" x="0" y="0" flags="0x204"/>
      <component glyphName="uni0300.cap" x="284" y="0" flags="0x4"/>
    </TTGlyph>
    <TTGlyph name="Egrave.sc" xMin="90" yMin="0" xMax="426" yMax="703">
      <component glyphName="E.sc" x="0" y="0" flags="0x204"/>
      <component glyphName="uni0300.cap" x="264" y="-115" flags="0x4"/>
    </TTGlyph>
    <TTGlyph name="Emacron" xMin="90" yMin="0" xMax="478" yMax="786">
      <component glyphName="E" x="0" y="0" flags="0x204"/>
      <component glyphName="uni0304.cap" x="284" y="0" flags="0x4"/>
    </TTGlyph>
    <TTGlyph name="Emacron.sc" xMin="90" yMin="0" xMax="426" yMax="671">
      <component glyphName="E.sc" x="0" y="0" flags="0x204"/>
      <component glyphName="uni0304.cap" x="264" y="-115" flags="0x4"/>
    </TTGlyph>
    <TTGlyph name="Eogonek" xMin="90" yMin="-212" xMax="494" yMax="656">
      <contour>
        <pt x="90" y="656" on="1"/>
        <pt x="468" y="656" on="1"/>
        <pt x="468" y="586" on="1"/>
        <pt x="173" y="586" on="1"/>
        <pt x="173" y="380" on="1"/>
        <pt x="422" y="380" on="1"/>
        <pt x="422" y="309" on="1"/>
        <pt x="173" y="309" on="1"/>
        <pt x="173" y="71" on="1"/>
        <pt x="478" y="71" on="1"/>
        <pt x="478" y="0" on="1"/>
        <pt x="475" y="0" on="1"/>
        <pt x="458" y="-2" on="0"/>
        <pt x="425" y="-21" on="0"/>
        <pt x="399" y="-50" on="0"/>
        <pt x="383" y="-87" on="0"/>
        <pt x="383" y="-107" on="1"/>
        <pt x="383" y="-130" on="0"/>
        <pt x="413" y="-153" on="0"/>
        <pt x="431" y="-153" on="1"/>
        <pt x="452" y="-153" on="0"/>
        <pt x="471" y="-139" on="1"/>
        <pt x="494" y="-184" on="1"/>
        <pt x="480" y="-195" on="0"/>
        <pt x="434" y="-212" on="0"/>
        <pt x="414" y="-212" on="1"/>
        <pt x="374" y="-212" on="0"/>
        <pt x="318" y="-168" on="0"/>
        <pt x="318" y="-125" on="1"/>
        <pt x="318" y="-83" on="0"/>
        <pt x="365" y="-18" on="0"/>
        <pt x="393" y="0" on="1"/>
        <pt x="90" y="0" on="1"/>
      </contour>
    </TTGlyph>
    <TTGlyph name="Eogonek.sc" xMin="90" yMin="-212" xMax="442" yMax="518">
      <contour>
        <pt x="90" y="518" on="1"/>
        <pt x="416" y="518" on="1"/>
        <pt x="416" y="452" on="1"/>
        <pt x="173" y="452" on="1"/>
        <pt x="173" y="302" on="1"/>
        <pt x="379" y="302" on="1"/>
        <pt x="379" y="239" on="1"/>
        <pt x="173" y="239" on="1"/>
        <pt x="173" y="66" on="1"/>
        <pt x="426" y="66" on="1"/>
        <pt x="426" y="0" on="1"/>
        <pt x="423" y="0" on="1"/>
        <pt x="406" y="-2" on="0"/>
        <pt x="373" y="-21" on="0"/>
        <pt x="347" y="-50" on="0"/>
        <pt x="331" y="-87" on="0"/>
        <pt x="331" y="-107" on="1"/>
        <pt x="331" y="-130" on="0"/>
        <pt x="361" y="-153" on="0"/>
        <pt x="379" y="-153" on="1"/>
        <pt x="391" y="-153" on="0"/>
        <pt x="410" y="-146" on="0"/>
        <pt x="419" y="-139" on="1"/>
        <pt x="442" y="-184" on="1"/>
        <pt x="428" y="-195" on="0"/>
        <pt x="382" y="-212" on="0"/>
        <pt x="362" y="-212" on="1"/>
        <pt x="322" y="-212" on="0"/>
        <pt x="267" y="-168" on="0"/>
        <pt x="267" y="-125" on="1"/>
        <pt x="267" y="-83" on="0"/>
        <pt x="313" y="-18" on="0"/>
        <pt x="341" y="0" on="1"/>
        <pt x="90" y="0" on="1"/>
      </contour>
    </TTGlyph>
    <TTGlyph name="Eth" xMin="33" yMin="0" xMax="586" yMax="656">
      <contour>
        <pt x="270" y="68" on="1"/>
        <pt x="385" y="68" on="0"/>
        <pt x="500" y="206" on="0"/>
        <pt x="500" y="331" on="1"/>
        <pt x="500" y="456" on="0"/>
        <pt x="385" y="588" on="0"/>
        <pt x="270" y="588" on="1"/>
        <pt x="195" y="588" on="1"/>
        <pt x="195" y="368" on="1"/>
        <pt x="344" y="368" on="1"/>
        <pt x="344" y="321" on="1"/>
        <pt x="195" y="321" on="1"/>
        <pt x="195" y="68" on="1"/>
      </contour>
      <contour>
        <pt x="276" y="656" on="1"/>
        <pt x="428" y="656" on="0"/>
        <pt x="586" y="488" on="0"/>
        <pt x="586" y="331" on="1"/>
        <pt x="586" y="253" on="0"/>
        <pt x="546" y="130" on="0"/>
        <pt x="468" y="45" on="0"/>
        <pt x="354" y="0" on="0"/>
        <pt x="280" y="0" on="1"/>
        <pt x="112" y="0" on="1"/>
        <pt x="112" y="321" on="1"/>
        <pt x="33" y="321" on="1"/>
        <pt x="33" y="364" on="1"/>
        <pt x="112" y="368" on="1"/>
        <pt x="112" y="656" on="1"/>
      </contour>
    </TTGlyph>
    <TTGlyph name="Eth.sc" xMin="33" yMin="0" xMax="523" yMax="518">
      <contour>
        <pt x="255" y="65" on="1"/>
        <pt x="348" y="65" on="0"/>
        <pt x="436" y="164" on="0"/>
        <pt x="436" y="261" on="1"/>
        <pt x="436" y="352" on="0"/>
        <pt x="348" y="452" on="0"/>
        <pt x="255" y="452" on="1"/>
        <pt x="193" y="452" on="1"/>
        <pt x="193" y="295" on="1"/>
        <pt x="319" y="295" on="1"/>
        <pt x="319" y="248" on="1"/>
        <pt x="193" y="248" on="1"/>
        <pt x="193" y="65" on="1"/>
      </contour>
      <contour>
        <pt x="253" y="518" on="1"/>
        <pt x="382" y="518" on="0"/>
        <pt x="523" y="389" on="0"/>
        <pt x="523" y="261" on="1"/>
        <pt x="523" y="132" on="0"/>
        <pt x="383" y="0" on="0"/>
        <pt x="257" y="0" on="1"/>
        <pt x="109" y="0" on="1"/>
        <pt x="109" y="248" on="1"/>
        <pt x="33" y="248" on="1"/>
        <pt x="33" y="291" on="1"/>
        <pt x="109" y="295" on="1"/>
        <pt x="109" y="518" on="1"/>
      </contour>
    </TTGlyph>
    <TTGlyph name="Euro" xMin="23" yMin="-12" xMax="491" yMax="650">
      <contour>
        <pt x="491" y="81" on="1"/>
        <pt x="458" y="37" on="0"/>
        <pt x="374" y="-12" on="0"/>
        <pt x="319" y="-12" on="1"/>
        <pt x="274" y="-12" on="0"/>
        <pt x="197" y="21" on="0"/>
        <pt x="137" y="85" on="0"/>
        <pt x="96" y="176" on="0"/>
        <pt x="87" y="235" on="1"/>
        <pt x="23" y="235" on="1"/>
        <pt x="23" y="278" on="1"/>
        <pt x="82" y="282" on="1"/>
        <pt x="81" y="291" on="0"/>
        <pt x="81" y="309" on="0"/>
        <pt x="81" y="318" on="1"/>
        <pt x="81" y="326" on="0"/>
        <pt x="81" y="342" on="0"/>
        <pt x="82" y="350" on="1"/>
        <pt x="23" y="350" on="1"/>
        <pt x="23" y="394" on="1"/>
        <pt x="87" y="399" on="1"/>
        <pt x="96" y="458" on="0"/>
        <pt x="138" y="551" on="0"/>
        <pt x="201" y="616" on="0"/>
        <pt x="284" y="650" on="0"/>
        <pt x="333" y="650" on="1"/>
        <pt x="378" y="650" on="0"/>
        <pt x="456" y="605" on="0"/>
        <pt x="482" y="572" on="1"/>
        <pt x="433" y="525" on="1"/>
        <pt x="412" y="551" on="0"/>
        <pt x="362" y="584" on="0"/>
        <pt x="330" y="584" on="1"/>
        <pt x="264" y="584" on="0"/>
        <pt x="183" y="486" on="0"/>
        <pt x="171" y="399" on="1"/>
        <pt x="425" y="399" on="1"/>
        <pt x="425" y="350" on="1"/>
        <pt x="167" y="350" on="1"/>
        <pt x="166" y="343" on="0"/>
        <pt x="166" y="329" on="0"/>
        <pt x="166" y="321" on="1"/>
        <pt x="166" y="311" on="0"/>
        <pt x="166" y="292" on="0"/>
        <pt x="167" y="283" on="1"/>
        <pt x="385" y="283" on="1"/>
        <pt x="385" y="235" on="1"/>
        <pt x="172" y="235" on="1"/>
        <pt x="185" y="150" on="0"/>
        <pt x="262" y="54" on="0"/>
        <pt x="324" y="54" on="1"/>
        <pt x="361" y="54" on="0"/>
        <pt x="416" y="90" on="0"/>
        <pt x="442" y="125" on="1"/>
      </contour>
    </TTGlyph>
    <TTGlyph name="F" xMin="90" yMin="0" xMax="468" yMax="656">
      <contour>
        <pt x="90" y="656" on="1"/>
        <pt x="468" y="656" on="1"/>
        <pt x="468" y="586" on="1"/>
        <pt x="173" y="586" on="1"/>
        <pt x="173" y="364" on="1"/>
        <pt x="423" y="364" on="1"/>
        <pt x="423" y="294" on="1"/>
        <pt x="173" y="294" on="1"/>
        <pt x="173" y="0" on="1"/>
        <pt x="90" y="0" on="1"/>
      </contour>
    </TTGlyph>
    <TTGlyph name="F.sc" xMin="90" yMin="0" xMax="417" yMax="518">
      <contour>
        <pt x="90" y="518" on="1"/>
        <pt x="417" y="518" on="1"/>
        <pt x="417" y="450" on="1"/>
        <pt x="173" y="450" on="1"/>
        <pt x="173" y="287" on="1"/>
        <pt x="380" y="287" on="1"/>
        <pt x="380" y="223" on="1"/>
        <pt x="173" y="223" on="1"/>
        <pt x="173" y="0" on="1"/>
        <pt x="90" y="0" on="1"/>
      </contour>
    </TTGlyph>
    <TTGlyph name="F.sups" xMin="57" yMin="266" xMax="314" yMax="698">
      <contour>
        <pt x="57" y="698" on="1"/>
        <pt x="314" y="698" on="1"/>
        <pt x="314" y="646" on="1"/>
        <pt x="120" y="646" on="1"/>
        <pt x="120" y="508" on="1"/>
        <pt x="285" y="508" on="1"/>
        <pt x="285" y="455" on="1"/>
        <pt x="120" y="455" on="1"/>
        <pt x="120" y="266" on="1"/>
        <pt x="57" y="266" on="1"/>
      </contour>
    </TTGlyph>
    <TTGlyph name="G" xMin="52" yMin="-12" xMax="550" yMax="668">
      <contour>
        <pt x="52" y="328" on="1"/>
        <pt x="52" y="407" on="0"/>
        <pt x="97" y="533" on="0"/>
        <pt x="178" y="621" on="0"/>
        <pt x="288" y="668" on="0"/>
        <pt x="354" y="668" on="1"/>
        <pt x="422" y="668" on="0"/>
        <pt x="513" y="617" on="0"/>
        <pt x="542" y="587" on="1"/>
        <pt x="495" y="534" on="1"/>
        <pt x="470" y="560" on="0"/>
        <pt x="405" y="595" on="0"/>
        <pt x="355" y="595" on="1"/>
        <pt x="305" y="595" on="0"/>
        <pt x="225" y="558" on="0"/>
        <pt x="169" y="489" on="0"/>
        <pt x="138" y="391" on="0"/>
        <pt x="138" y="330" on="1"/>
        <pt x="138" y="268" on="0"/>
        <pt x="167" y="169" on="0"/>
        <pt x="222" y="99" on="0"/>
        <pt x="303" y="61" on="0"/>
        <pt x="356" y="61" on="1"/>
        <pt x="391" y="61" on="0"/>
        <pt x="454" y="82" on="0"/>
        <pt x="474" y="100" on="1"/>
        <pt x="474" y="271" on="1"/>
        <pt x="335" y="271" on="1"/>
        <pt x="335" y="340" on="1"/>
        <pt x="550" y="340" on="1"/>
        <pt x="550" y="64" on="1"/>
        <pt x="518" y="31" on="0"/>
        <pt x="413" y="-12" on="0"/>
        <pt x="347" y="-12" on="1"/>
        <pt x="282" y="-12" on="0"/>
        <pt x="174" y="34" on="0"/>
        <pt x="96" y="121" on="0"/>
        <pt x="52" y="248" on="0"/>
      </contour>
    </TTGlyph>
    <TTGlyph name="G.sc" xMin="52" yMin="-12" xMax="483" yMax="530">
      <contour>
        <pt x="52" y="258" on="1"/>
        <pt x="52" y="322" on="0"/>
        <pt x="91" y="423" on="0"/>
        <pt x="161" y="493" on="0"/>
        <pt x="257" y="530" on="0"/>
        <pt x="313" y="530" on="1"/>
        <pt x="370" y="530" on="0"/>
        <pt x="448" y="489" on="0"/>
        <pt x="474" y="465" on="1"/>
        <pt x="428" y="414" on="1"/>
        <pt x="407" y="434" on="0"/>
        <pt x="354" y="460" on="0"/>
        <pt x="314" y="460" on="1"/>
        <pt x="233" y="460" on="0"/>
        <pt x="137" y="354" on="0"/>
        <pt x="137" y="258" on="1"/>
        <pt x="137" y="164" on="0"/>
        <pt x="227" y="57" on="0"/>
        <pt x="314" y="57" on="1"/>
        <pt x="343" y="57" on="0"/>
        <pt x="391" y="71" on="0"/>
        <pt x="407" y="85" on="1"/>
        <pt x="407" y="212" on="1"/>
        <pt x="295" y="212" on="1"/>
        <pt x="295" y="273" on="1"/>
        <pt x="483" y="273" on="1"/>
        <pt x="483" y="47" on="1"/>
        <pt x="454" y="21" on="0"/>
        <pt x="364" y="-12" on="0"/>
        <pt x="307" y="-12" on="1"/>
        <pt x="251" y="-12" on="0"/>
        <pt x="158" y="24" on="0"/>
        <pt x="90" y="93" on="0"/>
        <pt x="52" y="193" on="0"/>
      </contour>
    </TTGlyph>
    <TTGlyph name="G.sups" xMin="32" yMin="258" xMax="370" yMax="706">
      <contour>
        <pt x="32" y="482" on="1"/>
        <pt x="32" y="534" on="0"/>
        <pt x="63" y="617" on="0"/>
        <pt x="118" y="675" on="0"/>
        <pt x="193" y="706" on="0"/>
        <pt x="237" y="706" on="1"/>
        <pt x="282" y="706" on="0"/>
        <pt x="344" y="674" on="0"/>
        <pt x="364" y="654" on="1"/>
        <pt x="328" y="614" on="1"/>
        <pt x="312" y="631" on="0"/>
        <pt x="269" y="653" on="0"/>
        <pt x="237" y="653" on="1"/>
        <pt x="173" y="653" on="0"/>
        <pt x="97" y="562" on="0"/>
        <pt x="97" y="484" on="1"/>
        <pt x="97" y="404" on="0"/>
        <pt x="169" y="312" on="0"/>
        <pt x="238" y="312" on="1"/>
        <pt x="261" y="312" on="0"/>
        <pt x="301" y="325" on="0"/>
        <pt x="313" y="336" on="1"/>
        <pt x="313" y="442" on="1"/>
        <pt x="224" y="442" on="1"/>
        <pt x="224" y="494" on="1"/>
        <pt x="370" y="494" on="1"/>
        <pt x="370" y="309" on="1"/>
        <pt x="347" y="288" on="0"/>
        <pt x="277" y="258" on="0"/>
        <pt x="232" y="258" on="1"/>
        <pt x="189" y="258" on="0"/>
        <pt x="116" y="288" on="0"/>
        <pt x="62" y="346" on="0"/>
        <pt x="32" y="429" on="0"/>
      </contour>
    </TTGlyph>
    <TTGlyph name="Gbreve" xMin="52" yMin="-12" xMax="550" yMax="818">
      <component glyphName="G" x="0" y="0" flags="0x204"/>
      <component glyphName="uni0306.cap" x="353" y="0" flags="0x4"/>
    </TTGlyph>
    <TTGlyph name="Gbreve.sc" xMin="52" yMin="-12" xMax="483" yMax="703">
      <component glyphName="G.sc" x="0" y="0" flags="0x204"/>
      <component glyphName="uni0306.cap" x="308" y="-115" flags="0x4"/>
    </TTGlyph>
    <TTGlyph name="Gcaron" xMin="52" yMin="-12" xMax="550" yMax="818">
      <component glyphName="G" x="0" y="0" flags="0x204"/>
      <component glyphName="uni030C.cap" x="353" y="0" flags="0x4"/>
    </TTGlyph>
    <TTGlyph name="Gcaron.sc" xMin="52" yMin="-12" xMax="483" yMax="703">
      <component glyphName="G.sc" x="0" y="0" flags="0x204"/>
      <component glyphName="uni030C.cap" x="308" y="-115" flags="0x4"/>
    </TTGlyph>
    <TTGlyph name="Gcircumflex" xMin="52" yMin="-12" xMax="550" yMax="818">
      <component glyphName="G" x="0" y="0" flags="0x204"/>
      <component glyphName="uni0302.cap" x="353" y="0" flags="0x4"/>
    </TTGlyph>
    <TTGlyph name="Gcircumflex.sc" xMin="52" yMin="-12" xMax="483" yMax="703">
      <component glyphName="G.sc" x="0" y="0" flags="0x204"/>
      <component glyphName="uni0302.cap" x="308" y="-115" flags="0x4"/>
    </TTGlyph>
    <TTGlyph name="Gdotaccent" xMin="52" yMin="-12" xMax="550" yMax="821">
      <component glyphName="G" x="0" y="0" flags="0x204"/>
      <component glyphName="uni0307.cap" x="353" y="0" flags="0x4"/>
    </TTGlyph>
    <TTGlyph name="Gdotaccent.sc" xMin="52" yMin="-12" xMax="483" yMax="706">
      <component glyphName="G.sc" x="0" y="0" flags="0x204"/>
      <component glyphName="uni0307.cap" x="308" y="-115" flags="0x4"/>
    </TTGlyph>
    <TTGlyph name="H" xMin="90" yMin="0" xMax="562" yMax="656">
      <contour>
        <pt x="90" y="656" on="1"/>
        <pt x="173" y="656" on="1"/>
        <pt x="173" y="381" on="1"/>
        <pt x="478" y="381" on="1"/>
        <pt x="478" y="656" on="1"/>
        <pt x="562" y="656" on="1"/>
        <pt x="562" y="0" on="1"/>
        <pt x="478" y="0" on="1"/>
        <pt x="478" y="309" on="1"/>
        <pt x="173" y="309" on="1"/>
        <pt x="173" y="0" on="1"/>
        <pt x="90" y="0" on="1"/>
      </contour>
    </TTGlyph>
    <TTGlyph name="H.sc" xMin="90" yMin="0" xMax="504" yMax="518">
      <contour>
        <pt x="90" y="518" on="1"/>
        <pt x="173" y="518" on="1"/>
        <pt x="173" y="307" on="1"/>
        <pt x="421" y="307" on="1"/>
        <pt x="421" y="518" on="1"/>
        <pt x="504" y="518" on="1"/>
        <pt x="504" y="0" on="1"/>
        <pt x="421" y="0" on="1"/>
        <pt x="421" y="235" on="1"/>
        <pt x="173" y="235" on="1"/>
        <pt x="173" y="0" on="1"/>
        <pt x="90" y="0" on="1"/>
      </contour>
    </TTGlyph>
    <TTGlyph name="H.sups" xMin="57" yMin="266" xMax="378" yMax="698">
      <contour>
        <pt x="57" y="698" on="1"/>
        <pt x="120" y="698" on="1"/>
        <pt x="120" y="520" on="1"/>
        <pt x="315" y="520" on="1"/>
        <pt x="315" y="698" on="1"/>
        <pt x="378" y="698" on="1"/>
        <pt x="378" y="266" on="1"/>
        <pt x="315" y="266" on="1"/>
        <pt x="315" y="467" on="1"/>
        <pt x="120" y="467" on="1"/>
        <pt x="120" y="266" on="1"/>
        <pt x="57" y="266" on="1"/>
      </contour>
    </TTGlyph>
    <TTGlyph name="Hbar" xMin="32" yMin="0" xMax="654" yMax="656">
      <contour>
        <pt x="498" y="492" on="1"/>
        <pt x="193" y="492" on="1"/>
        <pt x="193" y="381" on="1"/>
        <pt x="498" y="381" on="1"/>
      </contour>
      <contour>
        <pt x="654" y="492" on="1"/>
        <pt x="582" y="492" on="1"/>
        <pt x="582" y="0" on="1"/>
        <pt x="498" y="0" on="1"/>
        <pt x="498" y="309" on="1"/>
        <pt x="193" y="309" on="1"/>
        <pt x="193" y="0" on="1"/>
        <pt x="110" y="0" on="1"/>
        <pt x="110" y="492" on="1"/>
        <pt x="32" y="492" on="1"/>
        <pt x="32" y="534" on="1"/>
        <pt x="110" y="539" on="1"/>
        <pt x="110" y="656" on="1"/>
        <pt x="193" y="656" on="1"/>
        <pt x="193" y="539" on="1"/>
        <pt x="498" y="539" on="1"/>
        <pt x="498" y="656" on="1"/>
        <pt x="582" y="656" on="1"/>
        <pt x="582" y="539" on="1"/>
        <pt x="654" y="539" on="1"/>
      </contour>
    </TTGlyph>
    <TTGlyph name="Hbar.sc" xMin="32" yMin="0" xMax="598" yMax="518">
      <contour>
        <pt x="441" y="384" on="1"/>
        <pt x="193" y="384" on="1"/>
        <pt x="193" y="304" on="1"/>
        <pt x="441" y="304" on="1"/>
      </contour>
      <contour>
        <pt x="598" y="384" on="1"/>
        <pt x="524" y="384" on="1"/>
        <pt x="524" y="0" on="1"/>
        <pt x="441" y="0" on="1"/>
        <pt x="441" y="239" on="1"/>
        <pt x="193" y="239" on="1"/>
        <pt x="193" y="0" on="1"/>
        <pt x="110" y="0" on="1"/>
        <pt x="110" y="384" on="1"/>
        <pt x="32" y="384" on="1"/>
        <pt x="32" y="425" on="1"/>
        <pt x="110" y="430" on="1"/>
        <pt x="110" y="518" on="1"/>
        <pt x="193" y="518" on="1"/>
        <pt x="193" y="430" on="1"/>
        <pt x="441" y="430" on="1"/>
        <pt x="441" y="518" on="1"/>
        <pt x="524" y="518" on="1"/>
        <pt x="524" y="430" on="1"/>
        <pt x="598" y="430" on="1"/>
      </contour>
    </TTGlyph>
    <TTGlyph name="Hcircumflex" xMin="90" yMin="0" xMax="562" yMax="818">
      <component glyphName="H" x="0" y="0" flags="0x204"/>
      <component glyphName="uni0302.cap" x="326" y="0" flags="0x4"/>
    </TTGlyph>
    <TTGlyph name="Hcircumflex.sc" xMin="90" yMin="0" xMax="504" yMax="703">
      <component glyphName="H.sc" x="0" y="0" flags="0x204"/>
      <component glyphName="uni0302.cap" x="297" y="-115" flags="0x4"/>
    </TTGlyph>
    <TTGlyph name="I" xMin="90" yMin="0" xMax="173" yMax="656">
      <contour>
        <pt x="90" y="656" on="1"/>
        <pt x="173" y="656" on="1"/>
        <pt x="173" y="0" on="1"/>
        <pt x="90" y="0" on="1"/>
      </contour>
    </TTGlyph>
    <TTGlyph name="I.a" xMin="46" yMin="0" xMax="296" yMax="656">
      <contour>
        <pt x="46" y="71" on="1"/>
        <pt x="130" y="71" on="1"/>
        <pt x="130" y="586" on="1"/>
        <pt x="46" y="586" on="1"/>
        <pt x="46" y="656" on="1"/>
        <pt x="296" y="656" on="1"/>
        <pt x="296" y="586" on="1"/>
        <pt x="213" y="586" on="1"/>
        <pt x="213" y="71" on="1"/>
        <pt x="296" y="71" on="1"/>
        <pt x="296" y="0" on="1"/>
        <pt x="46" y="0" on="1"/>
      </contour>
    </TTGlyph>
    <TTGlyph name="I.sc" xMin="90" yMin="0" xMax="173" yMax="518">
      <contour>
        <pt x="90" y="518" on="1"/>
        <pt x="173" y="518" on="1"/>
        <pt x="173" y="0" on="1"/>
        <pt x="90" y="0" on="1"/>
      </contour>
    </TTGlyph>
    <TTGlyph name="I.sups" xMin="57" yMin="266" xMax="120" yMax="698">
      <contour>
        <pt x="57" y="698" on="1"/>
        <pt x="120" y="698" on="1"/>
        <pt x="120" y="266" on="1"/>
        <pt x="57" y="266" on="1"/>
      </contour>
    </TTGlyph>
    <TTGlyph name="Iacute" xMin="80" yMin="0" xMax="262" yMax="818">
      <component glyphName="I" x="0" y="0" flags="0x204"/>
      <component glyphName="uni0301.cap" x="131" y="0" flags="0x4"/>
    </TTGlyph>
    <TTGlyph name="Iacute.a" xMin="46" yMin="0" xMax="303" yMax="818">
      <component glyphName="I.a" x="0" y="0" flags="0x204"/>
      <component glyphName="uni0301.cap" x="172" y="0" flags="0x4"/>
    </TTGlyph>
    <TTGlyph name="Iacute.sc" xMin="80" yMin="0" xMax="262" yMax="703">
      <component glyphName="I.sc" x="0" y="0" flags="0x204"/>
      <component glyphName="uni0301.cap" x="131" y="-115" flags="0x4"/>
    </TTGlyph>
    <TTGlyph name="Icircumflex" xMin="-5" yMin="0" xMax="267" yMax="818">
      <component glyphName="I" x="0" y="0" flags="0x204"/>
      <component glyphName="uni0302.cap" x="131" y="0" flags="0x4"/>
    </TTGlyph>
    <TTGlyph name="Icircumflex.a" xMin="36" yMin="0" xMax="308" yMax="818">
      <component glyphName="I.a" x="0" y="0" flags="0x204"/>
      <component glyphName="uni0302.cap" x="172" y="0" flags="0x4"/>
    </TTGlyph>
    <TTGlyph name="Icircumflex.sc" xMin="-5" yMin="0" xMax="267" yMax="703">
      <component glyphName="I.sc" x="0" y="0" flags="0x204"/>
      <component glyphName="uni0302.cap" x="131" y="-115" flags="0x4"/>
    </TTGlyph>
    <TTGlyph name="Idieresis" xMin="-4" yMin="0" xMax="266" yMax="813">
      <component glyphName="I" x="0" y="0" flags="0x204"/>
      <component glyphName="uni0308.cap" x="131" y="0" flags="0x4"/>
    </TTGlyph>
    <TTGlyph name="Idieresis.a" xMin="37" yMin="0" xMax="307" yMax="813">
      <component glyphName="I.a" x="0" y="0" flags="0x204"/>
      <component glyphName="uni0308.cap" x="172" y="0" flags="0x4"/>
    </TTGlyph>
    <TTGlyph name="Idieresis.sc" xMin="-4" yMin="0" xMax="266" yMax="698">
      <component glyphName="I.sc" x="0" y="0" flags="0x204"/>
      <component glyphName="uni0308.cap" x="131" y="-115" flags="0x4"/>
    </TTGlyph>
    <TTGlyph name="Idotaccent" xMin="74" yMin="0" xMax="188" yMax="821">
      <component glyphName="I" x="0" y="0" flags="0x204"/>
      <component glyphName="uni0307.cap" x="131" y="0" flags="0x4"/>
    </TTGlyph>
    <TTGlyph name="Idotaccent.a" xMin="46" yMin="0" xMax="296" yMax="821">
      <component glyphName="I.a" x="0" y="0" flags="0x204"/>
      <component glyphName="uni0307.cap" x="172" y="0" flags="0x4"/>
    </TTGlyph>
    <TTGlyph name="Idotaccent.sc" xMin="74" yMin="0" xMax="188" yMax="706">
      <component glyphName="I.sc" x="0" y="0" flags="0x204"/>
      <component glyphName="uni0307.cap" x="131" y="-115" flags="0x4"/>
    </TTGlyph>
    <TTGlyph name="Igrave" xMin="0" yMin="0" xMax="182" yMax="818">
      <component glyphName="I" x="0" y="0" flags="0x204"/>
      <component glyphName="uni0300.cap" x="131" y="0" flags="0x4"/>
    </TTGlyph>
    <TTGlyph name="Igrave.a" xMin="41" yMin="0" xMax="296" yMax="818">
      <component glyphName="I.a" x="0" y="0" flags="0x204"/>
      <component glyphName="uni0300.cap" x="172" y="0" flags="0x4"/>
    </TTGlyph>
    <TTGlyph name="Igrave.sc" xMin="0" yMin="0" xMax="182" yMax="703">
      <component glyphName="I.sc" x="0" y="0" flags="0x204"/>
      <component glyphName="uni0300.cap" x="131" y="-115" flags="0x4"/>
    </TTGlyph>
    <TTGlyph name="Imacron" xMin="7" yMin="0" xMax="255" yMax="786">
      <component glyphName="I" x="0" y="0" flags="0x204"/>
      <component glyphName="uni0304.cap" x="131" y="0" flags="0x4"/>
    </TTGlyph>
    <TTGlyph name="Imacron.a" xMin="46" yMin="0" xMax="296" yMax="786">
      <component glyphName="I.a" x="0" y="0" flags="0x204"/>
      <component glyphName="uni0304.cap" x="172" y="0" flags="0x4"/>
    </TTGlyph>
    <TTGlyph name="Imacron.sc" xMin="7" yMin="0" xMax="255" yMax="671">
      <component glyphName="I.sc" x="0" y="0" flags="0x204"/>
      <component glyphName="uni0304.cap" x="131" y="-115" flags="0x4"/>
    </TTGlyph>
    <TTGlyph name="Iogonek" xMin="43" yMin="-212" xMax="219" yMax="656">
      <contour>
        <pt x="90" y="656" on="1"/>
        <pt x="173" y="656" on="1"/>
        <pt x="173" y="0" on="1"/>
        <pt x="142" y="-24" on="0"/>
        <pt x="108" y="-76" on="0"/>
        <pt x="108" y="-107" on="1"/>
        <pt x="108" y="-130" on="0"/>
        <pt x="138" y="-153" on="0"/>
        <pt x="155" y="-153" on="1"/>
        <pt x="177" y="-153" on="0"/>
        <pt x="196" y="-139" on="1"/>
        <pt x="219" y="-184" on="1"/>
        <pt x="204" y="-195" on="0"/>
        <pt x="159" y="-212" on="0"/>
        <pt x="139" y="-212" on="1"/>
        <pt x="99" y="-212" on="0"/>
        <pt x="43" y="-168" on="0"/>
        <pt x="43" y="-125" on="1"/>
        <pt x="43" y="-82" on="0"/>
        <pt x="86" y="-22" on="0"/>
        <pt x="110" y="0" on="1"/>
        <pt x="90" y="0" on="1"/>
      </contour>
    </TTGlyph>
    <TTGlyph name="Iogonek.a" xMin="46" yMin="-212" xMax="296" yMax="656">
      <contour>
        <pt x="46" y="71" on="1"/>
        <pt x="130" y="71" on="1"/>
        <pt x="130" y="586" on="1"/>
        <pt x="46" y="586" on="1"/>
        <pt x="46" y="656" on="1"/>
        <pt x="296" y="656" on="1"/>
        <pt x="296" y="586" on="1"/>
        <pt x="213" y="586" on="1"/>
        <pt x="213" y="71" on="1"/>
        <pt x="296" y="71" on="1"/>
        <pt x="296" y="0" on="1"/>
        <pt x="209" y="0" on="1"/>
        <pt x="180" y="-23" on="0"/>
        <pt x="146" y="-78" on="0"/>
        <pt x="146" y="-107" on="1"/>
        <pt x="146" y="-130" on="0"/>
        <pt x="176" y="-153" on="0"/>
        <pt x="194" y="-153" on="1"/>
        <pt x="206" y="-153" on="0"/>
        <pt x="225" y="-146" on="0"/>
        <pt x="234" y="-139" on="1"/>
        <pt x="257" y="-184" on="1"/>
        <pt x="243" y="-195" on="0"/>
        <pt x="197" y="-212" on="0"/>
        <pt x="177" y="-212" on="1"/>
        <pt x="138" y="-212" on="0"/>
        <pt x="82" y="-168" on="0"/>
        <pt x="82" y="-125" on="1"/>
        <pt x="82" y="-84" on="0"/>
        <pt x="126" y="-20" on="0"/>
        <pt x="150" y="0" on="1"/>
        <pt x="46" y="0" on="1"/>
      </contour>
    </TTGlyph>
    <TTGlyph name="Iogonek.sc" xMin="43" yMin="-212" xMax="219" yMax="518">
      <contour>
        <pt x="90" y="518" on="1"/>
        <pt x="173" y="518" on="1"/>
        <pt x="173" y="0" on="1"/>
        <pt x="142" y="-24" on="0"/>
        <pt x="108" y="-76" on="0"/>
        <pt x="108" y="-107" on="1"/>
        <pt x="108" y="-130" on="0"/>
        <pt x="138" y="-153" on="0"/>
        <pt x="155" y="-153" on="1"/>
        <pt x="177" y="-153" on="0"/>
        <pt x="196" y="-139" on="1"/>
        <pt x="219" y="-184" on="1"/>
        <pt x="204" y="-195" on="0"/>
        <pt x="159" y="-212" on="0"/>
        <pt x="139" y="-212" on="1"/>
        <pt x="99" y="-212" on="0"/>
        <pt x="43" y="-168" on="0"/>
        <pt x="43" y="-125" on="1"/>
        <pt x="43" y="-82" on="0"/>
        <pt x="86" y="-22" on="0"/>
        <pt x="110" y="0" on="1"/>
        <pt x="90" y="0" on="1"/>
      </contour>
    </TTGlyph>
    <TTGlyph name="Itilde" xMin="-14" yMin="0" xMax="276" yMax="819">
      <component glyphName="I" x="0" y="0" flags="0x204"/>
      <component glyphName="uni0303.cap" x="131" y="0" flags="0x4"/>
    </TTGlyph>
    <TTGlyph name="Itilde.a" xMin="27" yMin="0" xMax="317" yMax="819">
      <component glyphName="I.a" x="0" y="0" flags="0x204"/>
      <component glyphName="uni0303.cap" x="172" y="0" flags="0x4"/>
    </TTGlyph>
    <TTGlyph name="Itilde.sc" xMin="-14" yMin="0" xMax="276" yMax="704">
      <component glyphName="I.sc" x="0" y="0" flags="0x204"/>
      <component glyphName="uni0303.cap" x="131" y="-115" flags="0x4"/>
    </TTGlyph>
    <TTGlyph name="J" xMin="31" yMin="-12" xMax="393" yMax="656">
      <contour>
        <pt x="91" y="135" on="1"/>
        <pt x="113" y="96" on="0"/>
        <pt x="169" y="61" on="0"/>
        <pt x="204" y="61" on="1"/>
        <pt x="257" y="61" on="0"/>
        <pt x="309" y="126" on="0"/>
        <pt x="309" y="201" on="1"/>
        <pt x="309" y="656" on="1"/>
        <pt x="393" y="656" on="1"/>
        <pt x="393" y="193" on="1"/>
        <pt x="393" y="151" on="0"/>
        <pt x="372" y="76" on="0"/>
        <pt x="329" y="20" on="0"/>
        <pt x="260" y="-12" on="0"/>
        <pt x="212" y="-12" on="1"/>
        <pt x="89" y="-12" on="0"/>
        <pt x="31" y="93" on="1"/>
      </contour>
    </TTGlyph>
    <TTGlyph name="J.sc" xMin="31" yMin="-12" xMax="351" yMax="518">
      <contour>
        <pt x="89" y="117" on="1"/>
        <pt x="125" y="59" on="0"/>
        <pt x="182" y="59" on="1"/>
        <pt x="224" y="59" on="0"/>
        <pt x="267" y="106" on="0"/>
        <pt x="267" y="163" on="1"/>
        <pt x="267" y="518" on="1"/>
        <pt x="351" y="518" on="1"/>
        <pt x="351" y="157" on="1"/>
        <pt x="351" y="122" on="0"/>
        <pt x="332" y="61" on="0"/>
        <pt x="293" y="15" on="0"/>
        <pt x="232" y="-12" on="0"/>
        <pt x="190" y="-12" on="1"/>
        <pt x="83" y="-12" on="0"/>
        <pt x="31" y="76" on="1"/>
      </contour>
    </TTGlyph>
    <TTGlyph name="J.sups" xMin="18" yMin="258" xMax="266" yMax="698">
      <contour>
        <pt x="62" y="360" on="1"/>
        <pt x="90" y="312" on="0"/>
        <pt x="135" y="312" on="1"/>
        <pt x="169" y="312" on="0"/>
        <pt x="203" y="353" on="0"/>
        <pt x="203" y="402" on="1"/>
        <pt x="203" y="698" on="1"/>
        <pt x="266" y="698" on="1"/>
        <pt x="266" y="397" on="1"/>
        <pt x="266" y="368" on="0"/>
        <pt x="252" y="317" on="0"/>
        <pt x="221" y="280" on="0"/>
        <pt x="173" y="258" on="0"/>
        <pt x="140" y="258" on="1"/>
        <pt x="97" y="258" on="0"/>
        <pt x="38" y="294" on="0"/>
        <pt x="18" y="329" on="1"/>
      </contour>
    </TTGlyph>
    <TTGlyph name="Jcircumflex" xMin="31" yMin="-12" xMax="484" yMax="818">
      <component glyphName="J" x="0" y="0" flags="0x204"/>
      <component glyphName="uni0302.cap" x="348" y="0" flags="0x4"/>
    </TTGlyph>
    <TTGlyph name="Jcircumflex.sc" xMin="31" yMin="-12" xMax="439" yMax="703">
      <component glyphName="J.sc" x="0" y="0" flags="0x204"/>
      <component glyphName="uni0302.cap" x="303" y="-115" flags="0x4"/>
    </TTGlyph>
    <TTGlyph name="K" xMin="90" yMin="0" xMax="575" yMax="656">
      <contour>
        <pt x="90" y="656" on="1"/>
        <pt x="173" y="656" on="1"/>
        <pt x="173" y="327" on="1"/>
        <pt x="176" y="327" on="1"/>
        <pt x="449" y="656" on="1"/>
        <pt x="543" y="656" on="1"/>
        <pt x="338" y="406" on="1"/>
        <pt x="575" y="0" on="1"/>
        <pt x="482" y="0" on="1"/>
        <pt x="286" y="341" on="1"/>
        <pt x="173" y="208" on="1"/>
        <pt x="173" y="0" on="1"/>
        <pt x="90" y="0" on="1"/>
      </contour>
    </TTGlyph>
    <TTGlyph name="K.sc" xMin="90" yMin="0" xMax="510" yMax="518">
      <contour>
        <pt x="90" y="518" on="1"/>
        <pt x="173" y="518" on="1"/>
        <pt x="173" y="272" on="1"/>
        <pt x="176" y="272" on="1"/>
        <pt x="394" y="518" on="1"/>
        <pt x="486" y="518" on="1"/>
        <pt x="313" y="318" on="1"/>
        <pt x="510" y="0" on="1"/>
        <pt x="421" y="0" on="1"/>
        <pt x="263" y="260" on="1"/>
        <pt x="173" y="165" on="1"/>
        <pt x="173" y="0" on="1"/>
        <pt x="90" y="0" on="1"/>
      </contour>
    </TTGlyph>
    <TTGlyph name="K.sups" xMin="57" yMin="266" xMax="387" yMax="698">
      <contour>
        <pt x="57" y="698" on="1"/>
        <pt x="120" y="698" on="1"/>
        <pt x="120" y="489" on="1"/>
        <pt x="122" y="489" on="1"/>
        <pt x="296" y="698" on="1"/>
        <pt x="366" y="698" on="1"/>
        <pt x="230" y="534" on="1"/>
        <pt x="387" y="266" on="1"/>
        <pt x="318" y="266" on="1"/>
        <pt x="192" y="486" on="1"/>
        <pt x="120" y="402" on="1"/>
        <pt x="120" y="266" on="1"/>
        <pt x="57" y="266" on="1"/>
      </contour>
    </TTGlyph>
    <TTGlyph name="L" xMin="90" yMin="0" xMax="460" yMax="656">
      <contour>
        <pt x="90" y="656" on="1"/>
        <pt x="173" y="656" on="1"/>
        <pt x="173" y="71" on="1"/>
        <pt x="460" y="71" on="1"/>
        <pt x="460" y="0" on="1"/>
        <pt x="90" y="0" on="1"/>
      </contour>
    </TTGlyph>
    <TTGlyph name="L.sc" xMin="90" yMin="0" xMax="410" yMax="518">
      <contour>
        <pt x="90" y="518" on="1"/>
        <pt x="173" y="518" on="1"/>
        <pt x="173" y="69" on="1"/>
        <pt x="410" y="69" on="1"/>
        <pt x="410" y="0" on="1"/>
        <pt x="90" y="0" on="1"/>
      </contour>
    </TTGlyph>
    <TTGlyph name="L.sups" xMin="57" yMin="266" xMax="308" yMax="698">
      <contour>
        <pt x="57" y="698" on="1"/>
        <pt x="120" y="698" on="1"/>
        <pt x="120" y="319" on="1"/>
        <pt x="308" y="319" on="1"/>
        <pt x="308" y="266" on="1"/>
        <pt x="57" y="266" on="1"/>
      </contour>
    </TTGlyph>
    <TTGlyph name="Lacute" xMin="83" yMin="0" xMax="460" yMax="818">
      <component glyphName="L" x="0" y="0" flags="0x204"/>
      <component glyphName="uni0301.cap" x="134" y="0" flags="0x4"/>
    </TTGlyph>
    <TTGlyph name="Lacute.sc" xMin="86" yMin="0" xMax="410" yMax="703">
      <component glyphName="L.sc" x="0" y="0" flags="0x204"/>
      <component glyphName="uni0301.cap" x="137" y="-115" flags="0x4"/>
    </TTGlyph>
    <TTGlyph name="Lcaron" xMin="90" yMin="0" xMax="460" yMax="727">
      <component glyphName="L" x="0" y="0" flags="0x204"/>
      <component glyphName="uni030C.a" x="359" y="-33" flags="0x4"/>
    </TTGlyph>
    <TTGlyph name="Lcaron.sc" xMin="90" yMin="0" xMax="410" yMax="615">
      <component glyphName="L.sc" x="0" y="0" flags="0x204"/>
      <component glyphName="uni030C.a" x="337" y="-145" flags="0x4"/>
    </TTGlyph>
    <TTGlyph name="Ldot" xMin="90" yMin="0" xMax="460" yMax="656">
      <component glyphName="L" x="0" y="0" flags="0x204"/>
      <component glyphName="period" x="252" y="275" flags="0x4"/>
    </TTGlyph>
    <TTGlyph name="Ldot.sc" xMin="90" yMin="0" xMax="410" yMax="518">
      <component glyphName="L.sc" x="0" y="0" flags="0x204"/>
      <component glyphName="period" x="224" y="237" flags="0x4"/>
    </TTGlyph>
    <TTGlyph name="Lslash" xMin="13" yMin="0" xMax="465" yMax="656">
      <contour>
        <pt x="465" y="71" on="1"/>
        <pt x="465" y="0" on="1"/>
        <pt x="95" y="0" on="1"/>
        <pt x="95" y="240" on="1"/>
        <pt x="13" y="194" on="1"/>
        <pt x="13" y="261" on="1"/>
        <pt x="95" y="308" on="1"/>
        <pt x="95" y="656" on="1"/>
        <pt x="179" y="656" on="1"/>
        <pt x="179" y="345" on="1"/>
        <pt x="364" y="445" on="1"/>
        <pt x="364" y="377" on="1"/>
        <pt x="179" y="278" on="1"/>
        <pt x="179" y="71" on="1"/>
      </contour>
    </TTGlyph>
    <TTGlyph name="Lslash.sc" xMin="13" yMin="0" xMax="415" yMax="518">
      <contour>
        <pt x="415" y="69" on="1"/>
        <pt x="415" y="0" on="1"/>
        <pt x="95" y="0" on="1"/>
        <pt x="95" y="174" on="1"/>
        <pt x="13" y="128" on="1"/>
        <pt x="13" y="193" on="1"/>
        <pt x="95" y="239" on="1"/>
        <pt x="95" y="518" on="1"/>
        <pt x="179" y="518" on="1"/>
        <pt x="179" y="277" on="1"/>
        <pt x="334" y="361" on="1"/>
        <pt x="334" y="295" on="1"/>
        <pt x="179" y="212" on="1"/>
        <pt x="179" y="69" on="1"/>
      </contour>
    </TTGlyph>
    <TTGlyph name="M" xMin="90" yMin="0" xMax="637" yMax="656">
      <contour>
        <pt x="90" y="656" on="1"/>
        <pt x="188" y="656" on="1"/>
        <pt x="315" y="304" on="1"/>
        <pt x="363" y="170" on="1"/>
        <pt x="367" y="170" on="1"/>
        <pt x="413" y="304" on="1"/>
        <pt x="539" y="656" on="1"/>
        <pt x="637" y="656" on="1"/>
        <pt x="637" y="0" on="1"/>
        <pt x="558" y="0" on="1"/>
        <pt x="558" y="361" on="1"/>
        <pt x="558" y="405" on="0"/>
        <pt x="565" y="511" on="0"/>
        <pt x="569" y="555" on="1"/>
        <pt x="565" y="555" on="1"/>
        <pt x="512" y="409" on="1"/>
        <pt x="386" y="66" on="1"/>
        <pt x="339" y="66" on="1"/>
        <pt x="212" y="409" on="1"/>
        <pt x="160" y="555" on="1"/>
        <pt x="156" y="555" on="1"/>
        <pt x="159" y="511" on="0"/>
        <pt x="167" y="405" on="0"/>
        <pt x="167" y="361" on="1"/>
        <pt x="167" y="0" on="1"/>
        <pt x="90" y="0" on="1"/>
      </contour>
    </TTGlyph>
    <TTGlyph name="M.sc" xMin="90" yMin="0" xMax="557" yMax="518">
      <contour>
        <pt x="90" y="518" on="1"/>
        <pt x="183" y="518" on="1"/>
        <pt x="285" y="254" on="1"/>
        <pt x="322" y="151" on="1"/>
        <pt x="326" y="151" on="1"/>
        <pt x="364" y="254" on="1"/>
        <pt x="464" y="518" on="1"/>
        <pt x="557" y="518" on="1"/>
        <pt x="557" y="0" on="1"/>
        <pt x="482" y="0" on="1"/>
        <pt x="482" y="256" on="1"/>
        <pt x="482" y="274" on="0"/>
        <pt x="484" y="316" on="0"/>
        <pt x="486" y="359" on="0"/>
        <pt x="489" y="402" on="0"/>
        <pt x="491" y="420" on="1"/>
        <pt x="487" y="420" on="1"/>
        <pt x="442" y="303" on="1"/>
        <pt x="343" y="50" on="1"/>
        <pt x="303" y="50" on="1"/>
        <pt x="204" y="303" on="1"/>
        <pt x="159" y="420" on="1"/>
        <pt x="155" y="420" on="1"/>
        <pt x="156" y="402" on="0"/>
        <pt x="160" y="360" on="0"/>
        <pt x="163" y="316" on="0"/>
        <pt x="165" y="274" on="0"/>
        <pt x="165" y="256" on="1"/>
        <pt x="165" y="0" on="1"/>
        <pt x="90" y="0" on="1"/>
      </contour>
    </TTGlyph>
    <TTGlyph name="M.sups" xMin="57" yMin="266" xMax="430" yMax="698">
      <contour>
        <pt x="57" y="698" on="1"/>
        <pt x="130" y="698" on="1"/>
        <pt x="213" y="474" on="1"/>
        <pt x="244" y="388" on="1"/>
        <pt x="247" y="388" on="1"/>
        <pt x="277" y="474" on="1"/>
        <pt x="357" y="698" on="1"/>
        <pt x="430" y="698" on="1"/>
        <pt x="430" y="266" on="1"/>
        <pt x="371" y="266" on="1"/>
        <pt x="371" y="491" on="1"/>
        <pt x="371" y="520" on="0"/>
        <pt x="377" y="592" on="0"/>
        <pt x="379" y="621" on="1"/>
        <pt x="376" y="621" on="1"/>
        <pt x="341" y="524" on="1"/>
        <pt x="260" y="308" on="1"/>
        <pt x="227" y="308" on="1"/>
        <pt x="145" y="524" on="1"/>
        <pt x="109" y="621" on="1"/>
        <pt x="107" y="621" on="1"/>
        <pt x="109" y="592" on="0"/>
        <pt x="115" y="520" on="0"/>
        <pt x="115" y="491" on="1"/>
        <pt x="115" y="266" on="1"/>
        <pt x="57" y="266" on="1"/>
      </contour>
    </TTGlyph>
    <TTGlyph name="N" xMin="90" yMin="0" xMax="557" yMax="656">
      <contour>
        <pt x="90" y="656" on="1"/>
        <pt x="176" y="656" on="1"/>
        <pt x="413" y="244" on="1"/>
        <pt x="484" y="108" on="1"/>
        <pt x="488" y="108" on="1"/>
        <pt x="485" y="158" on="0"/>
        <pt x="478" y="265" on="0"/>
        <pt x="478" y="317" on="1"/>
        <pt x="478" y="656" on="1"/>
        <pt x="557" y="656" on="1"/>
        <pt x="557" y="0" on="1"/>
        <pt x="471" y="0" on="1"/>
        <pt x="233" y="413" on="1"/>
        <pt x="162" y="548" on="1"/>
        <pt x="158" y="548" on="1"/>
        <pt x="162" y="498" on="0"/>
        <pt x="169" y="395" on="0"/>
        <pt x="169" y="343" on="1"/>
        <pt x="169" y="0" on="1"/>
        <pt x="90" y="0" on="1"/>
      </contour>
    </TTGlyph>
    <TTGlyph name="N.sc" xMin="90" yMin="0" xMax="495" yMax="518">
      <contour>
        <pt x="90" y="518" on="1"/>
        <pt x="174" y="518" on="1"/>
        <pt x="365" y="212" on="1"/>
        <pt x="425" y="101" on="1"/>
        <pt x="429" y="101" on="1"/>
        <pt x="426" y="140" on="0"/>
        <pt x="418" y="233" on="0"/>
        <pt x="418" y="275" on="1"/>
        <pt x="418" y="518" on="1"/>
        <pt x="495" y="518" on="1"/>
        <pt x="495" y="0" on="1"/>
        <pt x="412" y="0" on="1"/>
        <pt x="220" y="306" on="1"/>
        <pt x="160" y="417" on="1"/>
        <pt x="156" y="417" on="1"/>
        <pt x="159" y="376" on="0"/>
        <pt x="167" y="287" on="0"/>
        <pt x="167" y="245" on="1"/>
        <pt x="167" y="0" on="1"/>
        <pt x="90" y="0" on="1"/>
      </contour>
    </TTGlyph>
    <TTGlyph name="N.sups" xMin="57" yMin="266" xMax="374" yMax="698">
      <contour>
        <pt x="57" y="698" on="1"/>
        <pt x="123" y="698" on="1"/>
        <pt x="274" y="436" on="1"/>
        <pt x="320" y="346" on="1"/>
        <pt x="323" y="346" on="1"/>
        <pt x="321" y="378" on="0"/>
        <pt x="316" y="452" on="0"/>
        <pt x="316" y="487" on="1"/>
        <pt x="316" y="698" on="1"/>
        <pt x="374" y="698" on="1"/>
        <pt x="374" y="266" on="1"/>
        <pt x="309" y="266" on="1"/>
        <pt x="158" y="530" on="1"/>
        <pt x="111" y="619" on="1"/>
        <pt x="109" y="619" on="1"/>
        <pt x="111" y="586" on="0"/>
        <pt x="115" y="516" on="0"/>
        <pt x="115" y="482" on="1"/>
        <pt x="115" y="266" on="1"/>
        <pt x="57" y="266" on="1"/>
      </contour>
    </TTGlyph>
    <TTGlyph name="Nacute" xMin="90" yMin="0" xMax="557" yMax="818">
      <component glyphName="N" x="0" y="0" flags="0x204"/>
      <component glyphName="uni0301.cap" x="326" y="0" flags="0x4"/>
    </TTGlyph>
    <TTGlyph name="Nacute.sc" xMin="90" yMin="0" xMax="495" yMax="703">
      <component glyphName="N.sc" x="0" y="0" flags="0x204"/>
      <component glyphName="uni0301.cap" x="300" y="-115" flags="0x4"/>
    </TTGlyph>
    <TTGlyph name="Ncaron" xMin="90" yMin="0" xMax="557" yMax="818">
      <component glyphName="N" x="0" y="0" flags="0x204"/>
      <component glyphName="uni030C.cap" x="326" y="0" flags="0x4"/>
    </TTGlyph>
    <TTGlyph name="Ncaron.sc" xMin="90" yMin="0" xMax="495" yMax="703">
      <component glyphName="N.sc" x="0" y="0" flags="0x204"/>
      <component glyphName="uni030C.cap" x="300" y="-115" flags="0x4"/>
    </TTGlyph>
    <TTGlyph name="Ntilde" xMin="90" yMin="0" xMax="557" yMax="819">
      <component glyphName="N" x="0" y="0" flags="0x204"/>
      <component glyphName="uni0303.cap" x="326" y="0" flags="0x4"/>
    </TTGlyph>
    <TTGlyph name="Ntilde.sc" xMin="90" yMin="0" xMax="495" yMax="704">
      <component glyphName="N.sc" x="0" y="0" flags="0x204"/>
      <component glyphName="uni0303.cap" x="300" y="-115" flags="0x4"/>
    </TTGlyph>
    <TTGlyph name="O" xMin="52" yMin="-12" xMax="613" yMax="668">
      <contour>
        <pt x="332" y="-12" on="1"/>
        <pt x="270" y="-12" on="0"/>
        <pt x="167" y="36" on="0"/>
        <pt x="93" y="125" on="0"/>
        <pt x="52" y="252" on="0"/>
        <pt x="52" y="331" on="1"/>
        <pt x="52" y="410" on="0"/>
        <pt x="93" y="535" on="0"/>
        <pt x="167" y="622" on="0"/>
        <pt x="270" y="668" on="0"/>
        <pt x="332" y="668" on="1"/>
        <pt x="394" y="668" on="0"/>
        <pt x="497" y="621" on="0"/>
        <pt x="572" y="534" on="0"/>
        <pt x="613" y="409" on="0"/>
        <pt x="613" y="331" on="1"/>
        <pt x="613" y="252" on="0"/>
        <pt x="572" y="125" on="0"/>
        <pt x="497" y="36" on="0"/>
        <pt x="394" y="-12" on="0"/>
      </contour>
      <contour>
        <pt x="332" y="61" on="1"/>
        <pt x="376" y="61" on="0"/>
        <pt x="447" y="99" on="0"/>
        <pt x="498" y="170" on="0"/>
        <pt x="526" y="269" on="0"/>
        <pt x="526" y="331" on="1"/>
        <pt x="526" y="392" on="0"/>
        <pt x="498" y="490" on="0"/>
        <pt x="447" y="558" on="0"/>
        <pt x="376" y="595" on="0"/>
        <pt x="332" y="595" on="1"/>
        <pt x="288" y="595" on="0"/>
        <pt x="217" y="558" on="0"/>
        <pt x="166" y="490" on="0"/>
        <pt x="138" y="392" on="0"/>
        <pt x="138" y="331" on="1"/>
        <pt x="138" y="269" on="0"/>
        <pt x="166" y="170" on="0"/>
        <pt x="217" y="99" on="0"/>
        <pt x="288" y="61" on="0"/>
      </contour>
    </TTGlyph>
    <TTGlyph name="O.sc" xMin="52" yMin="-12" xMax="538" yMax="530">
      <contour>
        <pt x="295" y="-12" on="1"/>
        <pt x="241" y="-12" on="0"/>
        <pt x="152" y="26" on="0"/>
        <pt x="88" y="96" on="0"/>
        <pt x="52" y="198" on="0"/>
        <pt x="52" y="261" on="1"/>
        <pt x="52" y="324" on="0"/>
        <pt x="88" y="424" on="0"/>
        <pt x="152" y="493" on="0"/>
        <pt x="241" y="530" on="0"/>
        <pt x="295" y="530" on="1"/>
        <pt x="348" y="530" on="0"/>
        <pt x="437" y="493" on="0"/>
        <pt x="502" y="424" on="0"/>
        <pt x="538" y="324" on="0"/>
        <pt x="538" y="261" on="1"/>
        <pt x="538" y="198" on="0"/>
        <pt x="502" y="96" on="0"/>
        <pt x="437" y="26" on="0"/>
        <pt x="348" y="-12" on="0"/>
      </contour>
      <contour>
        <pt x="295" y="58" on="1"/>
        <pt x="367" y="58" on="0"/>
        <pt x="452" y="167" on="0"/>
        <pt x="452" y="261" on="1"/>
        <pt x="452" y="355" on="0"/>
        <pt x="367" y="460" on="0"/>
        <pt x="295" y="460" on="1"/>
        <pt x="223" y="460" on="0"/>
        <pt x="138" y="355" on="0"/>
        <pt x="138" y="261" on="1"/>
        <pt x="138" y="167" on="0"/>
        <pt x="223" y="58" on="0"/>
      </contour>
    </TTGlyph>
    <TTGlyph name="O.sups" xMin="32" yMin="258" xMax="411" yMax="706">
      <contour>
        <pt x="221" y="258" on="1"/>
        <pt x="179" y="258" on="0"/>
        <pt x="110" y="290" on="0"/>
        <pt x="60" y="348" on="0"/>
        <pt x="32" y="432" on="0"/>
        <pt x="32" y="484" on="1"/>
        <pt x="32" y="536" on="0"/>
        <pt x="60" y="619" on="0"/>
        <pt x="110" y="676" on="0"/>
        <pt x="179" y="706" on="0"/>
        <pt x="221" y="706" on="1"/>
        <pt x="263" y="706" on="0"/>
        <pt x="333" y="675" on="0"/>
        <pt x="383" y="618" on="0"/>
        <pt x="411" y="536" on="0"/>
        <pt x="411" y="484" on="1"/>
        <pt x="411" y="432" on="0"/>
        <pt x="383" y="348" on="0"/>
        <pt x="333" y="290" on="0"/>
        <pt x="263" y="258" on="0"/>
      </contour>
      <contour>
        <pt x="221" y="312" on="1"/>
        <pt x="278" y="312" on="0"/>
        <pt x="346" y="406" on="0"/>
        <pt x="346" y="484" on="1"/>
        <pt x="346" y="562" on="0"/>
        <pt x="278" y="653" on="0"/>
        <pt x="221" y="653" on="1"/>
        <pt x="164" y="653" on="0"/>
        <pt x="97" y="562" on="0"/>
        <pt x="97" y="484" on="1"/>
        <pt x="97" y="406" on="0"/>
        <pt x="164" y="312" on="0"/>
      </contour>
    </TTGlyph>
    <TTGlyph name="OE" xMin="52" yMin="0" xMax="798" yMax="656">
      <contour>
        <pt x="52" y="331" on="1"/>
        <pt x="52" y="488" on="0"/>
        <pt x="220" y="656" on="0"/>
        <pt x="373" y="656" on="1"/>
        <pt x="788" y="656" on="1"/>
        <pt x="788" y="586" on="1"/>
        <pt x="510" y="586" on="1"/>
        <pt x="510" y="380" on="1"/>
        <pt x="742" y="380" on="1"/>
        <pt x="742" y="309" on="1"/>
        <pt x="510" y="309" on="1"/>
        <pt x="510" y="71" on="1"/>
        <pt x="798" y="71" on="1"/>
        <pt x="798" y="0" on="1"/>
        <pt x="369" y="0" on="1"/>
        <pt x="294" y="0" on="0"/>
        <pt x="177" y="45" on="0"/>
        <pt x="95" y="130" on="0"/>
        <pt x="52" y="253" on="0"/>
      </contour>
      <contour>
        <pt x="138" y="331" on="1"/>
        <pt x="138" y="205" on="0"/>
        <pt x="260" y="68" on="0"/>
        <pt x="379" y="68" on="1"/>
        <pt x="427" y="68" on="1"/>
        <pt x="427" y="588" on="1"/>
        <pt x="379" y="588" on="1"/>
        <pt x="260" y="588" on="0"/>
        <pt x="138" y="456" on="0"/>
      </contour>
    </TTGlyph>
    <TTGlyph name="OE.sc" xMin="52" yMin="0" xMax="686" yMax="518">
      <contour>
        <pt x="52" y="257" on="1"/>
        <pt x="52" y="386" on="0"/>
        <pt x="195" y="518" on="0"/>
        <pt x="324" y="518" on="1"/>
        <pt x="676" y="518" on="1"/>
        <pt x="676" y="452" on="1"/>
        <pt x="447" y="452" on="1"/>
        <pt x="447" y="302" on="1"/>
        <pt x="639" y="302" on="1"/>
        <pt x="639" y="239" on="1"/>
        <pt x="447" y="239" on="1"/>
        <pt x="447" y="66" on="1"/>
        <pt x="686" y="66" on="1"/>
        <pt x="686" y="0" on="1"/>
        <pt x="328" y="0" on="1"/>
        <pt x="196" y="0" on="0"/>
        <pt x="52" y="129" on="0"/>
      </contour>
      <contour>
        <pt x="326" y="453" on="1"/>
        <pt x="229" y="453" on="0"/>
        <pt x="138" y="354" on="0"/>
        <pt x="138" y="257" on="1"/>
        <pt x="138" y="166" on="0"/>
        <pt x="229" y="66" on="0"/>
        <pt x="326" y="66" on="1"/>
        <pt x="364" y="66" on="1"/>
        <pt x="364" y="453" on="1"/>
      </contour>
    </TTGlyph>
    <TTGlyph name="Oacute" xMin="52" yMin="-12" xMax="613" yMax="818">
      <component glyphName="O" x="0" y="0" flags="0x204"/>
      <component glyphName="uni0301.cap" x="332" y="0" flags="0x4"/>
    </TTGlyph>
    <TTGlyph name="Oacute.sc" xMin="52" yMin="-12" xMax="538" yMax="703">
      <component glyphName="O.sc" x="0" y="0" flags="0x204"/>
      <component glyphName="uni0301.cap" x="294" y="-115" flags="0x4"/>
    </TTGlyph>
    <TTGlyph name="Ocircumflex" xMin="52" yMin="-12" xMax="613" yMax="818">
      <component glyphName="O" x="0" y="0" flags="0x204"/>
      <component glyphName="uni0302.cap" x="332" y="0" flags="0x4"/>
    </TTGlyph>
    <TTGlyph name="Ocircumflex.sc" xMin="52" yMin="-12" xMax="538" yMax="703">
      <component glyphName="O.sc" x="0" y="0" flags="0x204"/>
      <component glyphName="uni0302.cap" x="294" y="-115" flags="0x4"/>
    </TTGlyph>
    <TTGlyph name="Odieresis" xMin="52" yMin="-12" xMax="613" yMax="813">
      <component glyphName="O" x="0" y="0" flags="0x204"/>
      <component glyphName="uni0308.cap" x="332" y="0" flags="0x4"/>
    </TTGlyph>
    <TTGlyph name="Odieresis.sc" xMin="52" yMin="-12" xMax="538" yMax="698">
      <component glyphName="O.sc" x="0" y="0" flags="0x204"/>
      <component glyphName="uni0308.cap" x="294" y="-115" flags="0x4"/>
    </TTGlyph>
    <TTGlyph name="Ograve" xMin="52" yMin="-12" xMax="613" yMax="818">
      <component glyphName="O" x="0" y="0" flags="0x204"/>
      <component glyphName="uni0300.cap" x="332" y="0" flags="0x4"/>
    </TTGlyph>
    <TTGlyph name="Ograve.sc" xMin="52" yMin="-12" xMax="538" yMax="703">
      <component glyphName="O.sc" x="0" y="0" flags="0x204"/>
      <component glyphName="uni0300.cap" x="294" y="-115" flags="0x4"/>
    </TTGlyph>
    <TTGlyph name="Ohorn" xMin="54" yMin="-12" xMax="615" yMax="773">
      <contour>
        <pt x="335" y="61" on="1"/>
        <pt x="379" y="61" on="0"/>
        <pt x="450" y="99" on="0"/>
        <pt x="501" y="170" on="0"/>
        <pt x="529" y="269" on="0"/>
        <pt x="529" y="331" on="1"/>
        <pt x="529" y="392" on="0"/>
        <pt x="501" y="490" on="0"/>
        <pt x="450" y="558" on="0"/>
        <pt x="379" y="595" on="0"/>
        <pt x="335" y="595" on="1"/>
        <pt x="291" y="595" on="0"/>
        <pt x="219" y="558" on="0"/>
        <pt x="168" y="490" on="0"/>
        <pt x="140" y="392" on="0"/>
        <pt x="140" y="331" on="1"/>
        <pt x="140" y="269" on="0"/>
        <pt x="168" y="170" on="0"/>
        <pt x="219" y="99" on="0"/>
        <pt x="291" y="61" on="0"/>
      </contour>
      <contour>
        <pt x="591" y="773" on="1"/>
        <pt x="601" y="759" on="0"/>
        <pt x="614" y="727" on="0"/>
        <pt x="614" y="708" on="1"/>
        <pt x="614" y="665" on="0"/>
        <pt x="559" y="614" on="0"/>
        <pt x="512" y="603" on="1"/>
        <pt x="560" y="559" on="0"/>
        <pt x="615" y="422" on="0"/>
        <pt x="615" y="331" on="1"/>
        <pt x="615" y="252" on="0"/>
        <pt x="574" y="125" on="0"/>
        <pt x="499" y="36" on="0"/>
        <pt x="396" y="-12" on="0"/>
        <pt x="335" y="-12" on="1"/>
        <pt x="273" y="-12" on="0"/>
        <pt x="170" y="36" on="0"/>
        <pt x="95" y="125" on="0"/>
        <pt x="54" y="252" on="0"/>
        <pt x="54" y="331" on="1"/>
        <pt x="54" y="410" on="0"/>
        <pt x="95" y="535" on="0"/>
        <pt x="170" y="622" on="0"/>
        <pt x="273" y="668" on="0"/>
        <pt x="335" y="668" on="1"/>
        <pt x="407" y="668" on="0"/>
        <pt x="465" y="636" on="1"/>
        <pt x="507" y="644" on="0"/>
        <pt x="546" y="675" on="0"/>
        <pt x="546" y="703" on="1"/>
        <pt x="546" y="714" on="0"/>
        <pt x="538" y="734" on="0"/>
        <pt x="532" y="744" on="1"/>
      </contour>
    </TTGlyph>
    <TTGlyph name="Ohorn.sc" xMin="52" yMin="-12" xMax="566" yMax="625">
      <contour>
        <pt x="295" y="58" on="1"/>
        <pt x="367" y="58" on="0"/>
        <pt x="452" y="167" on="0"/>
        <pt x="452" y="261" on="1"/>
        <pt x="452" y="355" on="0"/>
        <pt x="367" y="460" on="0"/>
        <pt x="295" y="460" on="1"/>
        <pt x="223" y="460" on="0"/>
        <pt x="138" y="355" on="0"/>
        <pt x="138" y="261" on="1"/>
        <pt x="138" y="167" on="0"/>
        <pt x="223" y="58" on="0"/>
      </contour>
      <contour>
        <pt x="542" y="625" on="1"/>
        <pt x="553" y="611" on="0"/>
        <pt x="566" y="579" on="0"/>
        <pt x="566" y="560" on="1"/>
        <pt x="566" y="518" on="0"/>
        <pt x="514" y="467" on="0"/>
        <pt x="472" y="456" on="1"/>
        <pt x="504" y="421" on="0"/>
        <pt x="538" y="323" on="0"/>
        <pt x="538" y="261" on="1"/>
        <pt x="538" y="198" on="0"/>
        <pt x="502" y="96" on="0"/>
        <pt x="437" y="26" on="0"/>
        <pt x="348" y="-12" on="0"/>
        <pt x="295" y="-12" on="1"/>
        <pt x="241" y="-12" on="0"/>
        <pt x="152" y="26" on="0"/>
        <pt x="88" y="96" on="0"/>
        <pt x="52" y="198" on="0"/>
        <pt x="52" y="261" on="1"/>
        <pt x="52" y="324" on="0"/>
        <pt x="88" y="424" on="0"/>
        <pt x="152" y="493" on="0"/>
        <pt x="241" y="530" on="0"/>
        <pt x="295" y="530" on="1"/>
        <pt x="372" y="530" on="0"/>
        <pt x="431" y="491" on="1"/>
        <pt x="464" y="498" on="0"/>
        <pt x="498" y="527" on="0"/>
        <pt x="498" y="554" on="1"/>
        <pt x="498" y="565" on="0"/>
        <pt x="490" y="586" on="0"/>
        <pt x="483" y="596" on="1"/>
      </contour>
    </TTGlyph>
    <TTGlyph name="Ohungarumlaut" xMin="52" yMin="-12" xMax="613" yMax="818">
      <component glyphName="O" x="0" y="0" flags="0x204"/>
      <component glyphName="uni030B.cap" x="332" y="0" flags="0x4"/>
    </TTGlyph>
    <TTGlyph name="Ohungarumlaut.sc" xMin="52" yMin="-12" xMax="538" yMax="703">
      <component glyphName="O.sc" x="0" y="0" flags="0x204"/>
      <component glyphName="uni030B.cap" x="294" y="-115" flags="0x4"/>
    </TTGlyph>
    <TTGlyph name="Omacron" xMin="52" yMin="-12" xMax="613" yMax="786">
      <component glyphName="O" x="0" y="0" flags="0x204"/>
      <component glyphName="uni0304.cap" x="332" y="0" flags="0x4"/>
    </TTGlyph>
    <TTGlyph name="Omacron.sc" xMin="52" yMin="-12" xMax="538" yMax="671">
      <component glyphName="O.sc" x="0" y="0" flags="0x204"/>
      <component glyphName="uni0304.cap" x="294" y="-115" flags="0x4"/>
    </TTGlyph>
    <TTGlyph name="Oslash" xMin="50" yMin="-30" xMax="619" yMax="686">
      <contour>
        <pt x="208" y="116" on="1"/>
        <pt x="233" y="90" on="0"/>
        <pt x="297" y="61" on="0"/>
        <pt x="335" y="61" on="1"/>
        <pt x="379" y="61" on="0"/>
        <pt x="450" y="99" on="0"/>
        <pt x="501" y="170" on="0"/>
        <pt x="529" y="269" on="0"/>
        <pt x="529" y="331" on="1"/>
        <pt x="529" y="379" on="0"/>
        <pt x="512" y="459" on="0"/>
        <pt x="496" y="491" on="1"/>
      </contour>
      <contour>
        <pt x="462" y="541" on="1"/>
        <pt x="411" y="595" on="0"/>
        <pt x="335" y="595" on="1"/>
        <pt x="291" y="595" on="0"/>
        <pt x="219" y="558" on="0"/>
        <pt x="168" y="490" on="0"/>
        <pt x="140" y="392" on="0"/>
        <pt x="140" y="331" on="1"/>
        <pt x="140" y="235" on="0"/>
        <pt x="174" y="167" on="1"/>
      </contour>
      <contour>
        <pt x="550" y="561" on="1"/>
        <pt x="581" y="518" on="0"/>
        <pt x="615" y="403" on="0"/>
        <pt x="615" y="331" on="1"/>
        <pt x="615" y="252" on="0"/>
        <pt x="574" y="125" on="0"/>
        <pt x="499" y="36" on="0"/>
        <pt x="396" y="-12" on="0"/>
        <pt x="335" y="-12" on="1"/>
        <pt x="283" y="-12" on="0"/>
        <pt x="194" y="21" on="0"/>
        <pt x="159" y="53" on="1"/>
        <pt x="96" y="-30" on="1"/>
        <pt x="50" y="6" on="1"/>
        <pt x="120" y="97" on="1"/>
        <pt x="88" y="141" on="0"/>
        <pt x="54" y="259" on="0"/>
        <pt x="54" y="331" on="1"/>
        <pt x="54" y="410" on="0"/>
        <pt x="95" y="535" on="0"/>
        <pt x="170" y="622" on="0"/>
        <pt x="273" y="668" on="0"/>
        <pt x="335" y="668" on="1"/>
        <pt x="439" y="668" on="0"/>
        <pt x="510" y="605" on="1"/>
        <pt x="573" y="686" on="1"/>
        <pt x="619" y="651" on="1"/>
      </contour>
    </TTGlyph>
    <TTGlyph name="Oslash.sc" xMin="47" yMin="-23" xMax="543" yMax="542">
      <contour>
        <pt x="188" y="99" on="1"/>
        <pt x="230" y="55" on="0"/>
        <pt x="295" y="55" on="1"/>
        <pt x="368" y="55" on="0"/>
        <pt x="455" y="165" on="0"/>
        <pt x="455" y="261" on="1"/>
        <pt x="455" y="331" on="0"/>
        <pt x="430" y="381" on="1"/>
      </contour>
      <contour>
        <pt x="402" y="420" on="1"/>
        <pt x="361" y="463" on="0"/>
        <pt x="295" y="463" on="1"/>
        <pt x="221" y="463" on="0"/>
        <pt x="134" y="356" on="0"/>
        <pt x="134" y="261" on="1"/>
        <pt x="134" y="188" on="0"/>
        <pt x="160" y="138" on="1"/>
      </contour>
      <contour>
        <pt x="483" y="443" on="1"/>
        <pt x="509" y="409" on="0"/>
        <pt x="538" y="318" on="0"/>
        <pt x="538" y="261" on="1"/>
        <pt x="538" y="198" on="0"/>
        <pt x="502" y="96" on="0"/>
        <pt x="437" y="26" on="0"/>
        <pt x="348" y="-12" on="0"/>
        <pt x="295" y="-12" on="1"/>
        <pt x="202" y="-12" on="0"/>
        <pt x="139" y="42" on="1"/>
        <pt x="83" y="-23" on="1"/>
        <pt x="47" y="6" on="1"/>
        <pt x="107" y="76" on="1"/>
        <pt x="81" y="111" on="0"/>
        <pt x="52" y="204" on="0"/>
        <pt x="52" y="261" on="1"/>
        <pt x="52" y="324" on="0"/>
        <pt x="88" y="424" on="0"/>
        <pt x="152" y="493" on="0"/>
        <pt x="241" y="530" on="0"/>
        <pt x="295" y="530" on="1"/>
        <pt x="341" y="530" on="0"/>
        <pt x="419" y="503" on="0"/>
        <pt x="450" y="477" on="1"/>
        <pt x="506" y="542" on="1"/>
        <pt x="543" y="513" on="1"/>
      </contour>
    </TTGlyph>
    <TTGlyph name="Otilde" xMin="52" yMin="-12" xMax="613" yMax="819">
      <component glyphName="O" x="0" y="0" flags="0x204"/>
      <component glyphName="uni0303.cap" x="332" y="0" flags="0x4"/>
    </TTGlyph>
    <TTGlyph name="Otilde.sc" xMin="52" yMin="-12" xMax="538" yMax="704">
      <component glyphName="O.sc" x="0" y="0" flags="0x204"/>
      <component glyphName="uni0303.cap" x="294" y="-115" flags="0x4"/>
    </TTGlyph>
    <TTGlyph name="P" xMin="90" yMin="0" xMax="533" yMax="656">
      <contour>
        <pt x="90" y="656" on="1"/>
        <pt x="291" y="656" on="1"/>
        <pt x="345" y="656" on="0"/>
        <pt x="435" y="636" on="0"/>
        <pt x="498" y="591" on="0"/>
        <pt x="533" y="517" on="0"/>
        <pt x="533" y="463" on="1"/>
        <pt x="533" y="411" on="0"/>
        <pt x="498" y="335" on="0"/>
        <pt x="434" y="285" on="0"/>
        <pt x="345" y="260" on="0"/>
        <pt x="291" y="260" on="1"/>
        <pt x="173" y="260" on="1"/>
        <pt x="173" y="0" on="1"/>
        <pt x="90" y="0" on="1"/>
      </contour>
      <contour>
        <pt x="281" y="328" on="1"/>
        <pt x="367" y="328" on="0"/>
        <pt x="450" y="393" on="0"/>
        <pt x="450" y="463" on="1"/>
        <pt x="450" y="534" on="0"/>
        <pt x="366" y="589" on="0"/>
        <pt x="281" y="589" on="1"/>
        <pt x="173" y="589" on="1"/>
        <pt x="173" y="328" on="1"/>
      </contour>
    </TTGlyph>
    <TTGlyph name="P.sc" xMin="90" yMin="0" xMax="476" yMax="518">
      <contour>
        <pt x="90" y="518" on="1"/>
        <pt x="267" y="518" on="1"/>
        <pt x="313" y="518" on="0"/>
        <pt x="390" y="502" on="0"/>
        <pt x="445" y="465" on="0"/>
        <pt x="476" y="405" on="0"/>
        <pt x="476" y="361" on="1"/>
        <pt x="476" y="319" on="0"/>
        <pt x="445" y="256" on="0"/>
        <pt x="389" y="216" on="0"/>
        <pt x="313" y="196" on="0"/>
        <pt x="267" y="196" on="1"/>
        <pt x="173" y="196" on="1"/>
        <pt x="173" y="0" on="1"/>
        <pt x="90" y="0" on="1"/>
      </contour>
      <contour>
        <pt x="261" y="256" on="1"/>
        <pt x="330" y="256" on="0"/>
        <pt x="395" y="306" on="0"/>
        <pt x="395" y="357" on="1"/>
        <pt x="395" y="410" on="0"/>
        <pt x="328" y="452" on="0"/>
        <pt x="259" y="452" on="1"/>
        <pt x="173" y="452" on="1"/>
        <pt x="173" y="256" on="1"/>
      </contour>
    </TTGlyph>
    <TTGlyph name="P.sups" xMin="57" yMin="266" xMax="359" yMax="698">
      <contour>
        <pt x="57" y="698" on="1"/>
        <pt x="196" y="698" on="1"/>
        <pt x="269" y="698" on="0"/>
        <pt x="359" y="641" on="0"/>
        <pt x="359" y="570" on="1"/>
        <pt x="359" y="535" on="0"/>
        <pt x="335" y="484" on="0"/>
        <pt x="291" y="450" on="0"/>
        <pt x="232" y="434" on="0"/>
        <pt x="196" y="434" on="1"/>
        <pt x="120" y="434" on="1"/>
        <pt x="120" y="266" on="1"/>
        <pt x="57" y="266" on="1"/>
      </contour>
      <contour>
        <pt x="189" y="484" on="1"/>
        <pt x="297" y="484" on="0"/>
        <pt x="297" y="570" on="1"/>
        <pt x="297" y="615" on="0"/>
        <pt x="243" y="648" on="0"/>
        <pt x="189" y="648" on="1"/>
        <pt x="120" y="648" on="1"/>
        <pt x="120" y="484" on="1"/>
      </contour>
    </TTGlyph>
    <TTGlyph name="Q" xMin="52" yMin="-164" xMax="627" yMax="668">
      <contour>
        <pt x="138" y="331" on="1"/>
        <pt x="138" y="268" on="0"/>
        <pt x="166" y="167" on="0"/>
        <pt x="217" y="95" on="0"/>
        <pt x="288" y="57" on="0"/>
        <pt x="332" y="57" on="1"/>
        <pt x="376" y="57" on="0"/>
        <pt x="447" y="95" on="0"/>
        <pt x="498" y="167" on="0"/>
        <pt x="526" y="268" on="0"/>
        <pt x="526" y="331" on="1"/>
        <pt x="526" y="392" on="0"/>
        <pt x="498" y="490" on="0"/>
        <pt x="447" y="558" on="0"/>
        <pt x="376" y="595" on="0"/>
        <pt x="332" y="595" on="1"/>
        <pt x="288" y="595" on="0"/>
        <pt x="217" y="558" on="0"/>
        <pt x="166" y="490" on="0"/>
        <pt x="138" y="392" on="0"/>
      </contour>
      <contour>
        <pt x="627" y="-149" on="1"/>
        <pt x="612" y="-154" on="0"/>
        <pt x="562" y="-164" on="0"/>
        <pt x="533" y="-164" on="1"/>
        <pt x="442" y="-164" on="0"/>
        <pt x="320" y="-77" on="0"/>
        <pt x="291" y="-9" on="1"/>
        <pt x="237" y="-2" on="0"/>
        <pt x="149" y="52" on="0"/>
        <pt x="86" y="140" on="0"/>
        <pt x="52" y="259" on="0"/>
        <pt x="52" y="331" on="1"/>
        <pt x="52" y="410" on="0"/>
        <pt x="93" y="535" on="0"/>
        <pt x="167" y="622" on="0"/>
        <pt x="270" y="668" on="0"/>
        <pt x="332" y="668" on="1"/>
        <pt x="394" y="668" on="0"/>
        <pt x="497" y="621" on="0"/>
        <pt x="572" y="534" on="0"/>
        <pt x="613" y="409" on="0"/>
        <pt x="613" y="331" on="1"/>
        <pt x="613" y="260" on="0"/>
        <pt x="580" y="143" on="0"/>
        <pt x="519" y="56" on="0"/>
        <pt x="433" y="1" on="0"/>
        <pt x="381" y="-8" on="1"/>
        <pt x="404" y="-52" on="0"/>
        <pt x="488" y="-94" on="0"/>
        <pt x="542" y="-94" on="1"/>
        <pt x="564" y="-94" on="0"/>
        <pt x="597" y="-88" on="0"/>
        <pt x="611" y="-84" on="1"/>
      </contour>
    </TTGlyph>
    <TTGlyph name="Q.sc" xMin="51" yMin="-152" xMax="547" yMax="530">
      <contour>
        <pt x="137" y="261" on="1"/>
        <pt x="137" y="165" on="0"/>
        <pt x="222" y="54" on="0"/>
        <pt x="294" y="54" on="1"/>
        <pt x="366" y="54" on="0"/>
        <pt x="451" y="164" on="0"/>
        <pt x="451" y="261" on="1"/>
        <pt x="451" y="355" on="0"/>
        <pt x="366" y="460" on="0"/>
        <pt x="294" y="460" on="1"/>
        <pt x="222" y="460" on="0"/>
        <pt x="137" y="355" on="0"/>
      </contour>
      <contour>
        <pt x="547" y="-138" on="1"/>
        <pt x="533" y="-145" on="0"/>
        <pt x="489" y="-152" on="0"/>
        <pt x="463" y="-152" on="1"/>
        <pt x="382" y="-152" on="0"/>
        <pt x="276" y="-72" on="0"/>
        <pt x="251" y="-9" on="1"/>
        <pt x="206" y="-2" on="0"/>
        <pt x="132" y="42" on="0"/>
        <pt x="80" y="111" on="0"/>
        <pt x="51" y="204" on="0"/>
        <pt x="51" y="261" on="1"/>
        <pt x="51" y="324" on="0"/>
        <pt x="87" y="424" on="0"/>
        <pt x="151" y="493" on="0"/>
        <pt x="240" y="530" on="0"/>
        <pt x="294" y="530" on="1"/>
        <pt x="347" y="530" on="0"/>
        <pt x="436" y="493" on="0"/>
        <pt x="501" y="424" on="0"/>
        <pt x="537" y="324" on="0"/>
        <pt x="537" y="261" on="1"/>
        <pt x="537" y="204" on="0"/>
        <pt x="508" y="111" on="0"/>
        <pt x="455" y="42" on="0"/>
        <pt x="382" y="-2" on="0"/>
        <pt x="337" y="-9" on="1"/>
        <pt x="356" y="-51" on="0"/>
        <pt x="425" y="-85" on="0"/>
        <pt x="472" y="-85" on="1"/>
        <pt x="490" y="-85" on="0"/>
        <pt x="519" y="-80" on="0"/>
        <pt x="531" y="-76" on="1"/>
      </contour>
    </TTGlyph>
    <TTGlyph name="Q.sups" xMin="31" yMin="158" xMax="421" yMax="706">
      <contour>
        <pt x="96" y="485" on="1"/>
        <pt x="96" y="405" on="0"/>
        <pt x="163" y="311" on="0"/>
        <pt x="220" y="311" on="1"/>
        <pt x="277" y="311" on="0"/>
        <pt x="345" y="405" on="0"/>
        <pt x="345" y="485" on="1"/>
        <pt x="345" y="563" on="0"/>
        <pt x="277" y="653" on="0"/>
        <pt x="220" y="653" on="1"/>
        <pt x="163" y="653" on="0"/>
        <pt x="96" y="563" on="0"/>
      </contour>
      <contour>
        <pt x="421" y="168" on="1"/>
        <pt x="411" y="164" on="0"/>
        <pt x="377" y="158" on="0"/>
        <pt x="356" y="158" on="1"/>
        <pt x="294" y="158" on="0"/>
        <pt x="211" y="215" on="0"/>
        <pt x="191" y="260" on="1"/>
        <pt x="119" y="271" on="0"/>
        <pt x="31" y="388" on="0"/>
        <pt x="31" y="485" on="1"/>
        <pt x="31" y="537" on="0"/>
        <pt x="59" y="619" on="0"/>
        <pt x="109" y="676" on="0"/>
        <pt x="178" y="706" on="0"/>
        <pt x="220" y="706" on="1"/>
        <pt x="262" y="706" on="0"/>
        <pt x="332" y="675" on="0"/>
        <pt x="382" y="618" on="0"/>
        <pt x="410" y="536" on="0"/>
        <pt x="410" y="485" on="1"/>
        <pt x="410" y="391" on="0"/>
        <pt x="326" y="275" on="0"/>
        <pt x="257" y="261" on="1"/>
        <pt x="273" y="234" on="0"/>
        <pt x="328" y="209" on="0"/>
        <pt x="363" y="209" on="1"/>
        <pt x="378" y="209" on="0"/>
        <pt x="400" y="213" on="0"/>
        <pt x="409" y="215" on="1"/>
      </contour>
    </TTGlyph>
    <TTGlyph name="R" xMin="90" yMin="0" xMax="544" yMax="656">
      <contour>
        <pt x="173" y="345" on="1"/>
        <pt x="283" y="345" on="1"/>
        <pt x="360" y="345" on="0"/>
        <pt x="442" y="408" on="0"/>
        <pt x="442" y="472" on="1"/>
        <pt x="442" y="537" on="0"/>
        <pt x="360" y="589" on="0"/>
        <pt x="283" y="589" on="1"/>
        <pt x="173" y="589" on="1"/>
      </contour>
      <contour>
        <pt x="450" y="0" on="1"/>
        <pt x="292" y="277" on="1"/>
        <pt x="173" y="277" on="1"/>
        <pt x="173" y="0" on="1"/>
        <pt x="90" y="0" on="1"/>
        <pt x="90" y="656" on="1"/>
        <pt x="295" y="656" on="1"/>
        <pt x="345" y="656" on="0"/>
        <pt x="430" y="637" on="0"/>
        <pt x="491" y="593" on="0"/>
        <pt x="525" y="523" on="0"/>
        <pt x="525" y="472" on="1"/>
        <pt x="525" y="395" on="0"/>
        <pt x="445" y="303" on="0"/>
        <pt x="378" y="286" on="1"/>
        <pt x="544" y="0" on="1"/>
      </contour>
    </TTGlyph>
    <TTGlyph name="R.sc" xMin="90" yMin="0" xMax="487" yMax="518">
      <contour>
        <pt x="173" y="268" on="1"/>
        <pt x="260" y="268" on="1"/>
        <pt x="389" y="268" on="0"/>
        <pt x="389" y="362" on="1"/>
        <pt x="389" y="412" on="0"/>
        <pt x="322" y="452" on="0"/>
        <pt x="259" y="452" on="1"/>
        <pt x="173" y="452" on="1"/>
      </contour>
      <contour>
        <pt x="398" y="0" on="1"/>
        <pt x="269" y="208" on="1"/>
        <pt x="173" y="208" on="1"/>
        <pt x="173" y="0" on="1"/>
        <pt x="90" y="0" on="1"/>
        <pt x="90" y="518" on="1"/>
        <pt x="269" y="518" on="1"/>
        <pt x="312" y="518" on="0"/>
        <pt x="385" y="503" on="0"/>
        <pt x="438" y="467" on="0"/>
        <pt x="468" y="409" on="0"/>
        <pt x="468" y="367" on="1"/>
        <pt x="468" y="308" on="0"/>
        <pt x="403" y="233" on="0"/>
        <pt x="349" y="218" on="1"/>
        <pt x="487" y="0" on="1"/>
      </contour>
    </TTGlyph>
    <TTGlyph name="R.sups" xMin="57" yMin="266" xMax="368" yMax="698">
      <contour>
        <pt x="120" y="495" on="1"/>
        <pt x="190" y="495" on="1"/>
        <pt x="291" y="495" on="0"/>
        <pt x="291" y="574" on="1"/>
        <pt x="291" y="615" on="0"/>
        <pt x="240" y="648" on="0"/>
        <pt x="190" y="648" on="1"/>
        <pt x="120" y="648" on="1"/>
      </contour>
      <contour>
        <pt x="297" y="266" on="1"/>
        <pt x="196" y="445" on="1"/>
        <pt x="120" y="445" on="1"/>
        <pt x="120" y="266" on="1"/>
        <pt x="57" y="266" on="1"/>
        <pt x="57" y="698" on="1"/>
        <pt x="198" y="698" on="1"/>
        <pt x="231" y="698" on="0"/>
        <pt x="288" y="685" on="0"/>
        <pt x="330" y="656" on="0"/>
        <pt x="353" y="610" on="0"/>
        <pt x="353" y="576" on="1"/>
        <pt x="353" y="525" on="0"/>
        <pt x="301" y="465" on="0"/>
        <pt x="258" y="453" on="1"/>
        <pt x="368" y="266" on="1"/>
      </contour>
    </TTGlyph>
    <TTGlyph name="Racute" xMin="90" yMin="0" xMax="544" yMax="818">
      <component glyphName="R" x="0" y="0" flags="0x204"/>
      <component glyphName="uni0301.cap" x="294" y="0" flags="0x4"/>
    </TTGlyph>
    <TTGlyph name="Racute.sc" xMin="90" yMin="0" xMax="487" yMax="703">
      <component glyphName="R.sc" x="0" y="0" flags="0x204"/>
      <component glyphName="uni0301.cap" x="282" y="-115" flags="0x4"/>
    </TTGlyph>
    <TTGlyph name="Rcaron" xMin="90" yMin="0" xMax="544" yMax="818">
      <component glyphName="R" x="0" y="0" flags="0x204"/>
      <component glyphName="uni030C.cap" x="294" y="0" flags="0x4"/>
    </TTGlyph>
    <TTGlyph name="Rcaron.sc" xMin="90" yMin="0" xMax="487" yMax="703">
      <component glyphName="R.sc" x="0" y="0" flags="0x204"/>
      <component glyphName="uni030C.cap" x="282" y="-115" flags="0x4"/>
    </TTGlyph>
    <TTGlyph name="S" xMin="42" yMin="-12" xMax="495" yMax="668">
      <contour>
        <pt x="92" y="143" on="1"/>
        <pt x="127" y="106" on="0"/>
        <pt x="222" y="61" on="0"/>
        <pt x="273" y="61" on="1"/>
        <pt x="338" y="61" on="0"/>
        <pt x="410" y="120" on="0"/>
        <pt x="410" y="168" on="1"/>
        <pt x="410" y="193" on="0"/>
        <pt x="393" y="228" on="0"/>
        <pt x="364" y="253" on="0"/>
        <pt x="324" y="273" on="0"/>
        <pt x="301" y="284" on="1"/>
        <pt x="207" y="325" on="1"/>
        <pt x="184" y="335" on="0"/>
        <pt x="136" y="363" on="0"/>
        <pt x="98" y="403" on="0"/>
        <pt x="74" y="458" on="0"/>
        <pt x="74" y="494" on="1"/>
        <pt x="74" y="531" on="0"/>
        <pt x="105" y="595" on="0"/>
        <pt x="160" y="642" on="0"/>
        <pt x="235" y="668" on="0"/>
        <pt x="280" y="668" on="1"/>
        <pt x="339" y="668" on="0"/>
        <pt x="439" y="623" on="0"/>
        <pt x="474" y="587" on="1"/>
        <pt x="429" y="533" on="1"/>
        <pt x="399" y="562" on="0"/>
        <pt x="326" y="595" on="0"/>
        <pt x="280" y="595" on="1"/>
        <pt x="225" y="595" on="0"/>
        <pt x="158" y="544" on="0"/>
        <pt x="158" y="499" on="1"/>
        <pt x="158" y="475" on="0"/>
        <pt x="177" y="442" on="0"/>
        <pt x="209" y="417" on="0"/>
        <pt x="247" y="398" on="0"/>
        <pt x="267" y="390" on="1"/>
        <pt x="360" y="350" on="1"/>
        <pt x="388" y="338" on="0"/>
        <pt x="438" y="307" on="0"/>
        <pt x="474" y="266" on="0"/>
        <pt x="495" y="211" on="0"/>
        <pt x="495" y="175" on="1"/>
        <pt x="495" y="136" on="0"/>
        <pt x="464" y="68" on="0"/>
        <pt x="406" y="17" on="0"/>
        <pt x="324" y="-12" on="0"/>
        <pt x="272" y="-12" on="1"/>
        <pt x="203" y="-12" on="0"/>
        <pt x="85" y="40" on="0"/>
        <pt x="42" y="85" on="1"/>
      </contour>
    </TTGlyph>
    <TTGlyph name="S.sc" xMin="42" yMin="-12" xMax="436" yMax="530">
      <contour>
        <pt x="86" y="120" on="1"/>
        <pt x="119" y="90" on="0"/>
        <pt x="200" y="54" on="0"/>
        <pt x="246" y="54" on="1"/>
        <pt x="297" y="54" on="0"/>
        <pt x="352" y="98" on="0"/>
        <pt x="352" y="133" on="1"/>
        <pt x="352" y="152" on="0"/>
        <pt x="339" y="178" on="0"/>
        <pt x="316" y="197" on="0"/>
        <pt x="285" y="212" on="0"/>
        <pt x="267" y="220" on="1"/>
        <pt x="202" y="246" on="1"/>
        <pt x="175" y="256" on="0"/>
        <pt x="128" y="282" on="0"/>
        <pt x="93" y="315" on="0"/>
        <pt x="72" y="359" on="0"/>
        <pt x="72" y="387" on="1"/>
        <pt x="72" y="419" on="0"/>
        <pt x="99" y="472" on="0"/>
        <pt x="147" y="509" on="0"/>
        <pt x="213" y="530" on="0"/>
        <pt x="252" y="530" on="1"/>
        <pt x="309" y="530" on="0"/>
        <pt x="395" y="492" on="0"/>
        <pt x="424" y="467" on="1"/>
        <pt x="381" y="413" on="1"/>
        <pt x="355" y="436" on="0"/>
        <pt x="289" y="464" on="0"/>
        <pt x="251" y="464" on="1"/>
        <pt x="206" y="464" on="0"/>
        <pt x="155" y="426" on="0"/>
        <pt x="155" y="391" on="1"/>
        <pt x="155" y="360" on="0"/>
        <pt x="200" y="326" on="0"/>
        <pt x="240" y="310" on="1"/>
        <pt x="306" y="284" on="1"/>
        <pt x="334" y="273" on="0"/>
        <pt x="382" y="250" on="0"/>
        <pt x="417" y="217" on="0"/>
        <pt x="436" y="172" on="0"/>
        <pt x="436" y="139" on="1"/>
        <pt x="436" y="107" on="0"/>
        <pt x="409" y="51" on="0"/>
        <pt x="359" y="11" on="0"/>
        <pt x="288" y="-12" on="0"/>
        <pt x="243" y="-12" on="1"/>
        <pt x="180" y="-12" on="0"/>
        <pt x="79" y="30" on="0"/>
        <pt x="42" y="63" on="1"/>
      </contour>
    </TTGlyph>
    <TTGlyph name="S.sups" xMin="26" yMin="258" xMax="332" yMax="707">
      <contour>
        <pt x="63" y="365" on="1"/>
        <pt x="87" y="340" on="0"/>
        <pt x="151" y="313" on="0"/>
        <pt x="184" y="313" on="1"/>
        <pt x="226" y="313" on="0"/>
        <pt x="269" y="350" on="0"/>
        <pt x="269" y="379" on="1"/>
        <pt x="269" y="410" on="0"/>
        <pt x="229" y="438" on="0"/>
        <pt x="198" y="451" on="1"/>
        <pt x="135" y="479" on="1"/>
        <pt x="119" y="486" on="0"/>
        <pt x="87" y="505" on="0"/>
        <pt x="62" y="531" on="0"/>
        <pt x="46" y="566" on="0"/>
        <pt x="46" y="590" on="1"/>
        <pt x="46" y="615" on="0"/>
        <pt x="67" y="658" on="0"/>
        <pt x="105" y="689" on="0"/>
        <pt x="157" y="707" on="0"/>
        <pt x="188" y="707" on="1"/>
        <pt x="226" y="707" on="0"/>
        <pt x="295" y="677" on="0"/>
        <pt x="319" y="653" on="1"/>
        <pt x="286" y="614" on="1"/>
        <pt x="265" y="632" on="0"/>
        <pt x="217" y="654" on="0"/>
        <pt x="186" y="654" on="1"/>
        <pt x="151" y="654" on="0"/>
        <pt x="110" y="621" on="0"/>
        <pt x="110" y="594" on="1"/>
        <pt x="110" y="579" on="0"/>
        <pt x="123" y="558" on="0"/>
        <pt x="143" y="542" on="0"/>
        <pt x="168" y="530" on="0"/>
        <pt x="180" y="525" on="1"/>
        <pt x="243" y="498" on="1"/>
        <pt x="285" y="480" on="0"/>
        <pt x="332" y="432" on="0"/>
        <pt x="332" y="387" on="1"/>
        <pt x="332" y="332" on="0"/>
        <pt x="252" y="258" on="0"/>
        <pt x="181" y="258" on="1"/>
        <pt x="135" y="258" on="0"/>
        <pt x="56" y="292" on="0"/>
        <pt x="26" y="323" on="1"/>
      </contour>
    </TTGlyph>
    <TTGlyph name="Sacute" xMin="42" yMin="-12" xMax="495" yMax="818">
      <component glyphName="S" x="0" y="0" flags="0x204"/>
      <component glyphName="uni0301.cap" x="279" y="0" flags="0x4"/>
    </TTGlyph>
    <TTGlyph name="Sacute.sc" xMin="42" yMin="-12" xMax="436" yMax="703">
      <component glyphName="S.sc" x="0" y="0" flags="0x204"/>
      <component glyphName="uni0301.cap" x="254" y="-115" flags="0x4"/>
    </TTGlyph>
    <TTGlyph name="Scaron" xMin="42" yMin="-12" xMax="495" yMax="818">
      <component glyphName="S" x="0" y="0" flags="0x204"/>
      <component glyphName="uni030C.cap" x="279" y="0" flags="0x4"/>
    </TTGlyph>
    <TTGlyph name="Scaron.sc" xMin="42" yMin="-12" xMax="436" yMax="703">
      <component glyphName="S.sc" x="0" y="0" flags="0x204"/>
      <component glyphName="uni030C.cap" x="254" y="-115" flags="0x4"/>
    </TTGlyph>
    <TTGlyph name="Scircumflex" xMin="42" yMin="-12" xMax="495" yMax="818">
      <component glyphName="S" x="0" y="0" flags="0x204"/>
      <component glyphName="uni0302.cap" x="279" y="0" flags="0x4"/>
    </TTGlyph>
    <TTGlyph name="Scircumflex.sc" xMin="42" yMin="-12" xMax="436" yMax="703">
      <component glyphName="S.sc" x="0" y="0" flags="0x204"/>
      <component glyphName="uni0302.cap" x="254" y="-115" flags="0x4"/>
    </TTGlyph>
    <TTGlyph name="T" xMin="28" yMin="0" xMax="508" yMax="656">
      <contour>
        <pt x="226" y="586" on="1"/>
        <pt x="28" y="586" on="1"/>
        <pt x="28" y="656" on="1"/>
        <pt x="508" y="656" on="1"/>
        <pt x="508" y="586" on="1"/>
        <pt x="310" y="586" on="1"/>
        <pt x="310" y="0" on="1"/>
        <pt x="226" y="0" on="1"/>
      </contour>
    </TTGlyph>
    <TTGlyph name="T.sc" xMin="28" yMin="0" xMax="439" yMax="518">
      <contour>
        <pt x="192" y="450" on="1"/>
        <pt x="28" y="450" on="1"/>
        <pt x="28" y="518" on="1"/>
        <pt x="439" y="518" on="1"/>
        <pt x="439" y="450" on="1"/>
        <pt x="275" y="450" on="1"/>
        <pt x="275" y="0" on="1"/>
        <pt x="192" y="0" on="1"/>
      </contour>
    </TTGlyph>
    <TTGlyph name="T.sups" xMin="17" yMin="266" xMax="340" yMax="698">
      <contour>
        <pt x="148" y="646" on="1"/>
        <pt x="17" y="646" on="1"/>
        <pt x="17" y="698" on="1"/>
        <pt x="340" y="698" on="1"/>
        <pt x="340" y="646" on="1"/>
        <pt x="210" y="646" on="1"/>
        <pt x="210" y="266" on="1"/>
        <pt x="148" y="266" on="1"/>
      </contour>
    </TTGlyph>
    <TTGlyph name="Tcaron" xMin="28" yMin="0" xMax="508" yMax="818">
      <component glyphName="T" x="0" y="0" flags="0x204"/>
      <component glyphName="uni030C.cap" x="267" y="0" flags="0x4"/>
    </TTGlyph>
    <TTGlyph name="Tcaron.sc" xMin="28" yMin="0" xMax="439" yMax="703">
      <component glyphName="T.sc" x="0" y="0" flags="0x204"/>
      <component glyphName="uni030C.cap" x="233" y="-115" flags="0x4"/>
    </TTGlyph>
    <TTGlyph name="Thorn" xMin="90" yMin="0" xMax="533" yMax="656">
      <contour>
        <pt x="90" y="656" on="1"/>
        <pt x="173" y="656" on="1"/>
        <pt x="173" y="546" on="1"/>
        <pt x="291" y="546" on="1"/>
        <pt x="345" y="546" on="0"/>
        <pt x="435" y="526" on="0"/>
        <pt x="498" y="480" on="0"/>
        <pt x="533" y="407" on="0"/>
        <pt x="533" y="353" on="1"/>
        <pt x="533" y="301" on="0"/>
        <pt x="498" y="224" on="0"/>
        <pt x="434" y="174" on="0"/>
        <pt x="345" y="150" on="0"/>
        <pt x="291" y="150" on="1"/>
        <pt x="173" y="150" on="1"/>
        <pt x="173" y="0" on="1"/>
        <pt x="90" y="0" on="1"/>
      </contour>
      <contour>
        <pt x="281" y="218" on="1"/>
        <pt x="367" y="218" on="0"/>
        <pt x="450" y="282" on="0"/>
        <pt x="450" y="353" on="1"/>
        <pt x="450" y="424" on="0"/>
        <pt x="366" y="478" on="0"/>
        <pt x="281" y="478" on="1"/>
        <pt x="173" y="478" on="1"/>
        <pt x="173" y="218" on="1"/>
      </contour>
    </TTGlyph>
    <TTGlyph name="Thorn.sc" xMin="90" yMin="0" xMax="476" yMax="518">
      <contour>
        <pt x="90" y="518" on="1"/>
        <pt x="173" y="518" on="1"/>
        <pt x="173" y="432" on="1"/>
        <pt x="267" y="432" on="1"/>
        <pt x="313" y="432" on="0"/>
        <pt x="389" y="416" on="0"/>
        <pt x="445" y="380" on="0"/>
        <pt x="476" y="320" on="0"/>
        <pt x="476" y="276" on="1"/>
        <pt x="476" y="234" on="0"/>
        <pt x="445" y="172" on="0"/>
        <pt x="389" y="131" on="0"/>
        <pt x="312" y="112" on="0"/>
        <pt x="267" y="112" on="1"/>
        <pt x="173" y="112" on="1"/>
        <pt x="173" y="0" on="1"/>
        <pt x="90" y="0" on="1"/>
      </contour>
      <contour>
        <pt x="258" y="175" on="1"/>
        <pt x="327" y="175" on="0"/>
        <pt x="393" y="223" on="0"/>
        <pt x="393" y="276" on="1"/>
        <pt x="393" y="329" on="0"/>
        <pt x="326" y="369" on="0"/>
        <pt x="258" y="369" on="1"/>
        <pt x="173" y="369" on="1"/>
        <pt x="173" y="175" on="1"/>
      </contour>
    </TTGlyph>
    <TTGlyph name="U" xMin="87" yMin="-12" xMax="558" yMax="656">
      <contour>
        <pt x="87" y="656" on="1"/>
        <pt x="170" y="656" on="1"/>
        <pt x="170" y="269" on="1"/>
        <pt x="170" y="210" on="0"/>
        <pt x="194" y="130" on="0"/>
        <pt x="235" y="82" on="0"/>
        <pt x="291" y="61" on="0"/>
        <pt x="323" y="61" on="1"/>
        <pt x="356" y="61" on="0"/>
        <pt x="412" y="82" on="0"/>
        <pt x="454" y="130" on="0"/>
        <pt x="478" y="210" on="0"/>
        <pt x="478" y="269" on="1"/>
        <pt x="478" y="656" on="1"/>
        <pt x="558" y="656" on="1"/>
        <pt x="558" y="271" on="1"/>
        <pt x="558" y="192" on="0"/>
        <pt x="522" y="84" on="0"/>
        <pt x="459" y="17" on="0"/>
        <pt x="373" y="-12" on="0"/>
        <pt x="323" y="-12" on="1"/>
        <pt x="273" y="-12" on="0"/>
        <pt x="186" y="17" on="0"/>
        <pt x="123" y="84" on="0"/>
        <pt x="87" y="192" on="0"/>
        <pt x="87" y="271" on="1"/>
      </contour>
    </TTGlyph>
    <TTGlyph name="U.sc" xMin="87" yMin="-12" xMax="496" yMax="518">
      <contour>
        <pt x="87" y="518" on="1"/>
        <pt x="170" y="518" on="1"/>
        <pt x="170" y="215" on="1"/>
        <pt x="170" y="170" on="0"/>
        <pt x="188" y="110" on="0"/>
        <pt x="221" y="74" on="0"/>
        <pt x="266" y="58" on="0"/>
        <pt x="293" y="58" on="1"/>
        <pt x="320" y="58" on="0"/>
        <pt x="365" y="74" on="0"/>
        <pt x="398" y="110" on="0"/>
        <pt x="417" y="170" on="0"/>
        <pt x="417" y="215" on="1"/>
        <pt x="417" y="518" on="1"/>
        <pt x="496" y="518" on="1"/>
        <pt x="496" y="216" on="1"/>
        <pt x="496" y="152" on="0"/>
        <pt x="466" y="65" on="0"/>
        <pt x="412" y="11" on="0"/>
        <pt x="337" y="-12" on="0"/>
        <pt x="292" y="-12" on="1"/>
        <pt x="248" y="-12" on="0"/>
        <pt x="173" y="11" on="0"/>
        <pt x="118" y="65" on="0"/>
        <pt x="87" y="152" on="0"/>
        <pt x="87" y="216" on="1"/>
      </contour>
    </TTGlyph>
    <TTGlyph name="U.sups" xMin="56" yMin="258" xMax="376" yMax="698">
      <contour>
        <pt x="56" y="698" on="1"/>
        <pt x="118" y="698" on="1"/>
        <pt x="118" y="446" on="1"/>
        <pt x="118" y="408" on="0"/>
        <pt x="133" y="356" on="0"/>
        <pt x="159" y="325" on="0"/>
        <pt x="196" y="312" on="0"/>
        <pt x="217" y="312" on="1"/>
        <pt x="238" y="312" on="0"/>
        <pt x="274" y="325" on="0"/>
        <pt x="301" y="356" on="0"/>
        <pt x="316" y="408" on="0"/>
        <pt x="316" y="446" on="1"/>
        <pt x="316" y="698" on="1"/>
        <pt x="376" y="698" on="1"/>
        <pt x="376" y="449" on="1"/>
        <pt x="376" y="396" on="0"/>
        <pt x="352" y="324" on="0"/>
        <pt x="310" y="278" on="0"/>
        <pt x="251" y="258" on="0"/>
        <pt x="217" y="258" on="1"/>
        <pt x="181" y="258" on="0"/>
        <pt x="122" y="278" on="0"/>
        <pt x="79" y="324" on="0"/>
        <pt x="56" y="396" on="0"/>
        <pt x="56" y="449" on="1"/>
      </contour>
    </TTGlyph>
    <TTGlyph name="Uacute" xMin="87" yMin="-12" xMax="558" yMax="818">
      <component glyphName="U" x="0" y="0" flags="0x204"/>
      <component glyphName="uni0301.cap" x="322" y="0" flags="0x4"/>
    </TTGlyph>
    <TTGlyph name="Uacute.sc" xMin="87" yMin="-12" xMax="496" yMax="703">
      <component glyphName="U.sc" x="0" y="0" flags="0x204"/>
      <component glyphName="uni0301.cap" x="291" y="-115" flags="0x4"/>
    </TTGlyph>
    <TTGlyph name="Ubreve" xMin="87" yMin="-12" xMax="558" yMax="818">
      <component glyphName="U" x="0" y="0" flags="0x204"/>
      <component glyphName="uni0306.cap" x="322" y="0" flags="0x4"/>
    </TTGlyph>
    <TTGlyph name="Ubreve.sc" xMin="87" yMin="-12" xMax="496" yMax="703">
      <component glyphName="U.sc" x="0" y="0" flags="0x204"/>
      <component glyphName="uni0306.cap" x="291" y="-115" flags="0x4"/>
    </TTGlyph>
    <TTGlyph name="Ucircumflex" xMin="87" yMin="-12" xMax="558" yMax="818">
      <component glyphName="U" x="0" y="0" flags="0x204"/>
      <component glyphName="uni0302.cap" x="322" y="0" flags="0x4"/>
    </TTGlyph>
    <TTGlyph name="Ucircumflex.sc" xMin="87" yMin="-12" xMax="496" yMax="703">
      <component glyphName="U.sc" x="0" y="0" flags="0x204"/>
      <component glyphName="uni0302.cap" x="291" y="-115" flags="0x4"/>
    </TTGlyph>
    <TTGlyph name="Udieresis" xMin="87" yMin="-12" xMax="558" yMax="813">
      <component glyphName="U" x="0" y="0" flags="0x204"/>
      <component glyphName="uni0308.cap" x="322" y="0" flags="0x4"/>
    </TTGlyph>
    <TTGlyph name="Udieresis.sc" xMin="87" yMin="-12" xMax="496" yMax="698">
      <component glyphName="U.sc" x="0" y="0" flags="0x204"/>
      <component glyphName="uni0308.cap" x="291" y="-115" flags="0x4"/>
    </TTGlyph>
    <TTGlyph name="Ugrave" xMin="87" yMin="-12" xMax="558" yMax="818">
      <component glyphName="U" x="0" y="0" flags="0x204"/>
      <component glyphName="uni0300.cap" x="322" y="0" flags="0x4"/>
    </TTGlyph>
    <TTGlyph name="Ugrave.sc" xMin="87" yMin="-12" xMax="496" yMax="703">
      <component glyphName="U.sc" x="0" y="0" flags="0x204"/>
      <component glyphName="uni0300.cap" x="291" y="-115" flags="0x4"/>
    </TTGlyph>
    <TTGlyph name="Uhorn" xMin="87" yMin="-12" xMax="668" yMax="793">
      <contour>
        <pt x="645" y="793" on="1"/>
        <pt x="656" y="779" on="0"/>
        <pt x="668" y="747" on="0"/>
        <pt x="668" y="728" on="1"/>
        <pt x="668" y="703" on="0"/>
        <pt x="650" y="667" on="0"/>
        <pt x="620" y="641" on="0"/>
        <pt x="580" y="625" on="0"/>
        <pt x="558" y="620" on="1"/>
        <pt x="558" y="271" on="1"/>
        <pt x="558" y="192" on="0"/>
        <pt x="522" y="84" on="0"/>
        <pt x="459" y="17" on="0"/>
        <pt x="373" y="-12" on="0"/>
        <pt x="323" y="-12" on="1"/>
        <pt x="273" y="-12" on="0"/>
        <pt x="186" y="17" on="0"/>
        <pt x="123" y="84" on="0"/>
        <pt x="87" y="192" on="0"/>
        <pt x="87" y="271" on="1"/>
        <pt x="87" y="656" on="1"/>
        <pt x="170" y="656" on="1"/>
        <pt x="170" y="269" on="1"/>
        <pt x="170" y="210" on="0"/>
        <pt x="194" y="130" on="0"/>
        <pt x="235" y="82" on="0"/>
        <pt x="291" y="61" on="0"/>
        <pt x="323" y="61" on="1"/>
        <pt x="356" y="61" on="0"/>
        <pt x="412" y="82" on="0"/>
        <pt x="454" y="130" on="0"/>
        <pt x="478" y="210" on="0"/>
        <pt x="478" y="269" on="1"/>
        <pt x="478" y="656" on="1"/>
        <pt x="511" y="656" on="1"/>
        <pt x="553" y="660" on="0"/>
        <pt x="601" y="688" on="0"/>
        <pt x="601" y="723" on="1"/>
        <pt x="601" y="734" on="0"/>
        <pt x="593" y="754" on="0"/>
        <pt x="586" y="764" on="1"/>
      </contour>
    </TTGlyph>
    <TTGlyph name="Uhorn.sc" xMin="87" yMin="-12" xMax="606" yMax="655">
      <contour>
        <pt x="583" y="655" on="1"/>
        <pt x="593" y="641" on="0"/>
        <pt x="606" y="609" on="0"/>
        <pt x="606" y="590" on="1"/>
        <pt x="606" y="565" on="0"/>
        <pt x="588" y="528" on="0"/>
        <pt x="558" y="503" on="0"/>
        <pt x="518" y="486" on="0"/>
        <pt x="496" y="482" on="1"/>
        <pt x="496" y="216" on="1"/>
        <pt x="496" y="152" on="0"/>
        <pt x="466" y="65" on="0"/>
        <pt x="412" y="11" on="0"/>
        <pt x="337" y="-12" on="0"/>
        <pt x="292" y="-12" on="1"/>
        <pt x="248" y="-12" on="0"/>
        <pt x="173" y="11" on="0"/>
        <pt x="118" y="65" on="0"/>
        <pt x="87" y="152" on="0"/>
        <pt x="87" y="216" on="1"/>
        <pt x="87" y="518" on="1"/>
        <pt x="170" y="518" on="1"/>
        <pt x="170" y="215" on="1"/>
        <pt x="170" y="170" on="0"/>
        <pt x="188" y="110" on="0"/>
        <pt x="221" y="74" on="0"/>
        <pt x="266" y="58" on="0"/>
        <pt x="293" y="58" on="1"/>
        <pt x="320" y="58" on="0"/>
        <pt x="365" y="74" on="0"/>
        <pt x="398" y="110" on="0"/>
        <pt x="417" y="170" on="0"/>
        <pt x="417" y="215" on="1"/>
        <pt x="417" y="518" on="1"/>
        <pt x="448" y="518" on="1"/>
        <pt x="490" y="522" on="0"/>
        <pt x="538" y="550" on="0"/>
        <pt x="538" y="584" on="1"/>
        <pt x="538" y="606" on="0"/>
        <pt x="524" y="626" on="1"/>
      </contour>
    </TTGlyph>
    <TTGlyph name="Uhungarumlaut" xMin="87" yMin="-12" xMax="558" yMax="818">
      <component glyphName="U" x="0" y="0" flags="0x204"/>
      <component glyphName="uni030B.cap" x="322" y="0" flags="0x4"/>
    </TTGlyph>
    <TTGlyph name="Uhungarumlaut.sc" xMin="87" yMin="-12" xMax="496" yMax="703">
      <component glyphName="U.sc" x="0" y="0" flags="0x204"/>
      <component glyphName="uni030B.cap" x="291" y="-115" flags="0x4"/>
    </TTGlyph>
    <TTGlyph name="Umacron" xMin="87" yMin="-12" xMax="558" yMax="786">
      <component glyphName="U" x="0" y="0" flags="0x204"/>
      <component glyphName="uni0304.cap" x="322" y="0" flags="0x4"/>
    </TTGlyph>
    <TTGlyph name="Umacron.sc" xMin="87" yMin="-12" xMax="496" yMax="671">
      <component glyphName="U.sc" x="0" y="0" flags="0x204"/>
      <component glyphName="uni0304.cap" x="291" y="-115" flags="0x4"/>
    </TTGlyph>
    <TTGlyph name="Uogonek" xMin="87" yMin="-212" xMax="558" yMax="656">
      <contour>
        <pt x="87" y="656" on="1"/>
        <pt x="170" y="656" on="1"/>
        <pt x="170" y="269" on="1"/>
        <pt x="170" y="210" on="0"/>
        <pt x="194" y="130" on="0"/>
        <pt x="235" y="82" on="0"/>
        <pt x="291" y="61" on="0"/>
        <pt x="323" y="61" on="1"/>
        <pt x="356" y="61" on="0"/>
        <pt x="412" y="82" on="0"/>
        <pt x="454" y="130" on="0"/>
        <pt x="478" y="210" on="0"/>
        <pt x="478" y="269" on="1"/>
        <pt x="478" y="656" on="1"/>
        <pt x="558" y="656" on="1"/>
        <pt x="558" y="271" on="1"/>
        <pt x="558" y="205" on="0"/>
        <pt x="535" y="114" on="0"/>
        <pt x="493" y="51" on="0"/>
        <pt x="434" y="10" on="0"/>
        <pt x="398" y="-7" on="1"/>
        <pt x="359" y="-26" on="0"/>
        <pt x="319" y="-82" on="0"/>
        <pt x="319" y="-107" on="1"/>
        <pt x="319" y="-130" on="0"/>
        <pt x="349" y="-153" on="0"/>
        <pt x="367" y="-153" on="1"/>
        <pt x="388" y="-153" on="0"/>
        <pt x="407" y="-139" on="1"/>
        <pt x="430" y="-184" on="1"/>
        <pt x="416" y="-195" on="0"/>
        <pt x="370" y="-212" on="0"/>
        <pt x="350" y="-212" on="1"/>
        <pt x="310" y="-212" on="0"/>
        <pt x="254" y="-168" on="0"/>
        <pt x="254" y="-125" on="1"/>
        <pt x="254" y="-104" on="0"/>
        <pt x="267" y="-71" on="0"/>
        <pt x="286" y="-43" on="0"/>
        <pt x="309" y="-20" on="0"/>
        <pt x="318" y="-11" on="1"/>
        <pt x="267" y="-10" on="0"/>
        <pt x="182" y="22" on="0"/>
        <pt x="121" y="89" on="0"/>
        <pt x="87" y="195" on="0"/>
        <pt x="87" y="271" on="1"/>
      </contour>
    </TTGlyph>
    <TTGlyph name="Uogonek.sc" xMin="87" yMin="-212" xMax="496" yMax="518">
      <contour>
        <pt x="496" y="216" on="1"/>
        <pt x="496" y="163" on="0"/>
        <pt x="477" y="90" on="0"/>
        <pt x="444" y="40" on="0"/>
        <pt x="397" y="6" on="0"/>
        <pt x="369" y="-7" on="1"/>
        <pt x="330" y="-26" on="0"/>
        <pt x="290" y="-82" on="0"/>
        <pt x="290" y="-107" on="1"/>
        <pt x="290" y="-130" on="0"/>
        <pt x="320" y="-153" on="0"/>
        <pt x="337" y="-153" on="1"/>
        <pt x="359" y="-153" on="0"/>
        <pt x="378" y="-139" on="1"/>
        <pt x="400" y="-184" on="1"/>
        <pt x="386" y="-195" on="0"/>
        <pt x="341" y="-212" on="0"/>
        <pt x="321" y="-212" on="1"/>
        <pt x="281" y="-212" on="0"/>
        <pt x="225" y="-168" on="0"/>
        <pt x="225" y="-125" on="1"/>
        <pt x="225" y="-104" on="0"/>
        <pt x="238" y="-71" on="0"/>
        <pt x="257" y="-43" on="0"/>
        <pt x="280" y="-20" on="0"/>
        <pt x="289" y="-11" on="1"/>
        <pt x="244" y="-10" on="0"/>
        <pt x="170" y="15" on="0"/>
        <pt x="116" y="68" on="0"/>
        <pt x="87" y="154" on="0"/>
        <pt x="87" y="216" on="1"/>
        <pt x="87" y="518" on="1"/>
        <pt x="170" y="518" on="1"/>
        <pt x="170" y="215" on="1"/>
        <pt x="170" y="170" on="0"/>
        <pt x="188" y="110" on="0"/>
        <pt x="221" y="74" on="0"/>
        <pt x="266" y="58" on="0"/>
        <pt x="293" y="58" on="1"/>
        <pt x="320" y="58" on="0"/>
        <pt x="365" y="74" on="0"/>
        <pt x="398" y="110" on="0"/>
        <pt x="417" y="170" on="0"/>
        <pt x="417" y="215" on="1"/>
        <pt x="417" y="518" on="1"/>
        <pt x="496" y="518" on="1"/>
      </contour>
    </TTGlyph>
    <TTGlyph name="Uring" xMin="87" yMin="-12" xMax="558" yMax="875">
      <component glyphName="U" x="0" y="0" flags="0x204"/>
      <component glyphName="uni030A.cap" x="322" y="0" flags="0x4"/>
    </TTGlyph>
    <TTGlyph name="Uring.sc" xMin="87" yMin="-12" xMax="496" yMax="760">
      <component glyphName="U.sc" x="0" y="0" flags="0x204"/>
      <component glyphName="uni030A.cap" x="291" y="-115" flags="0x4"/>
    </TTGlyph>
    <TTGlyph name="Utilde" xMin="87" yMin="-12" xMax="558" yMax="819">
      <component glyphName="U" x="0" y="0" flags="0x204"/>
      <component glyphName="uni0303.cap" x="322" y="0" flags="0x4"/>
    </TTGlyph>
    <TTGlyph name="Utilde.sc" xMin="87" yMin="-12" xMax="496" yMax="704">
      <component glyphName="U.sc" x="0" y="0" flags="0x204"/>
      <component glyphName="uni0303.cap" x="291" y="-115" flags="0x4"/>
    </TTGlyph>
    <TTGlyph name="V" xMin="0" yMin="0" xMax="515" yMax="656">
      <contour>
        <pt x="0" y="656" on="1"/>
        <pt x="89" y="656" on="1"/>
        <pt x="194" y="302" on="1"/>
        <pt x="212" y="243" on="0"/>
        <pt x="239" y="143" on="0"/>
        <pt x="258" y="85" on="1"/>
        <pt x="262" y="85" on="1"/>
        <pt x="280" y="143" on="0"/>
        <pt x="308" y="243" on="0"/>
        <pt x="325" y="302" on="1"/>
        <pt x="430" y="656" on="1"/>
        <pt x="515" y="656" on="1"/>
        <pt x="307" y="0" on="1"/>
        <pt x="210" y="0" on="1"/>
      </contour>
    </TTGlyph>
    <TTGlyph name="V.sc" xMin="0" yMin="0" xMax="447" yMax="518">
      <contour>
        <pt x="0" y="518" on="1"/>
        <pt x="87" y="518" on="1"/>
        <pt x="172" y="250" on="1"/>
        <pt x="186" y="205" on="0"/>
        <pt x="210" y="125" on="0"/>
        <pt x="224" y="80" on="1"/>
        <pt x="228" y="80" on="1"/>
        <pt x="243" y="125" on="0"/>
        <pt x="266" y="205" on="0"/>
        <pt x="280" y="250" on="1"/>
        <pt x="363" y="518" on="1"/>
        <pt x="447" y="518" on="1"/>
        <pt x="272" y="0" on="1"/>
        <pt x="176" y="0" on="1"/>
      </contour>
    </TTGlyph>
    <TTGlyph name="V.sups" xMin="-2" yMin="266" xMax="348" yMax="698">
      <contour>
        <pt x="-2" y="698" on="1"/>
        <pt x="64" y="698" on="1"/>
        <pt x="133" y="471" on="1"/>
        <pt x="144" y="433" on="0"/>
        <pt x="162" y="367" on="0"/>
        <pt x="174" y="329" on="1"/>
        <pt x="177" y="329" on="1"/>
        <pt x="189" y="367" on="0"/>
        <pt x="206" y="433" on="0"/>
        <pt x="217" y="471" on="1"/>
        <pt x="284" y="698" on="1"/>
        <pt x="348" y="698" on="1"/>
        <pt x="210" y="266" on="1"/>
        <pt x="138" y="266" on="1"/>
      </contour>
    </TTGlyph>
    <TTGlyph name="W" xMin="23" yMin="0" xMax="762" yMax="656">
      <contour>
        <pt x="23" y="656" on="1"/>
        <pt x="109" y="656" on="1"/>
        <pt x="178" y="299" on="1"/>
        <pt x="187" y="245" on="0"/>
        <pt x="207" y="141" on="0"/>
        <pt x="216" y="87" on="1"/>
        <pt x="220" y="87" on="1"/>
        <pt x="231" y="141" on="0"/>
        <pt x="255" y="246" on="0"/>
        <pt x="266" y="299" on="1"/>
        <pt x="357" y="656" on="1"/>
        <pt x="433" y="656" on="1"/>
        <pt x="524" y="299" on="1"/>
        <pt x="536" y="247" on="0"/>
        <pt x="560" y="141" on="0"/>
        <pt x="572" y="87" on="1"/>
        <pt x="576" y="87" on="1"/>
        <pt x="585" y="141" on="0"/>
        <pt x="603" y="246" on="0"/>
        <pt x="613" y="299" on="1"/>
        <pt x="682" y="656" on="1"/>
        <pt x="762" y="656" on="1"/>
        <pt x="626" y="0" on="1"/>
        <pt x="526" y="0" on="1"/>
        <pt x="427" y="395" on="1"/>
        <pt x="418" y="433" on="0"/>
        <pt x="403" y="506" on="0"/>
        <pt x="395" y="544" on="1"/>
        <pt x="391" y="544" on="1"/>
        <pt x="383" y="506" on="0"/>
        <pt x="366" y="433" on="0"/>
        <pt x="358" y="395" on="1"/>
        <pt x="261" y="0" on="1"/>
        <pt x="162" y="0" on="1"/>
      </contour>
    </TTGlyph>
    <TTGlyph name="W.sc" xMin="23" yMin="0" xMax="660" yMax="518">
      <contour>
        <pt x="23" y="518" on="1"/>
        <pt x="105" y="518" on="1"/>
        <pt x="160" y="248" on="1"/>
        <pt x="168" y="206" on="0"/>
        <pt x="184" y="123" on="0"/>
        <pt x="192" y="81" on="1"/>
        <pt x="195" y="81" on="1"/>
        <pt x="204" y="123" on="0"/>
        <pt x="225" y="206" on="0"/>
        <pt x="235" y="248" on="1"/>
        <pt x="309" y="518" on="1"/>
        <pt x="381" y="518" on="1"/>
        <pt x="453" y="248" on="1"/>
        <pt x="463" y="206" on="0"/>
        <pt x="483" y="123" on="0"/>
        <pt x="494" y="81" on="1"/>
        <pt x="498" y="81" on="1"/>
        <pt x="506" y="123" on="0"/>
        <pt x="520" y="206" on="0"/>
        <pt x="528" y="248" on="1"/>
        <pt x="583" y="518" on="1"/>
        <pt x="660" y="518" on="1"/>
        <pt x="547" y="0" on="1"/>
        <pt x="450" y="0" on="1"/>
        <pt x="370" y="290" on="1"/>
        <pt x="362" y="321" on="0"/>
        <pt x="350" y="380" on="0"/>
        <pt x="344" y="409" on="1"/>
        <pt x="340" y="409" on="1"/>
        <pt x="333" y="380" on="0"/>
        <pt x="321" y="321" on="0"/>
        <pt x="313" y="290" on="1"/>
        <pt x="235" y="0" on="1"/>
        <pt x="139" y="0" on="1"/>
      </contour>
    </TTGlyph>
    <TTGlyph name="W.sups" xMin="13" yMin="266" xMax="513" yMax="698">
      <contour>
        <pt x="13" y="698" on="1"/>
        <pt x="78" y="698" on="1"/>
        <pt x="121" y="470" on="1"/>
        <pt x="128" y="435" on="0"/>
        <pt x="140" y="366" on="0"/>
        <pt x="146" y="331" on="1"/>
        <pt x="149" y="331" on="1"/>
        <pt x="156" y="366" on="0"/>
        <pt x="170" y="435" on="0"/>
        <pt x="178" y="470" on="1"/>
        <pt x="237" y="698" on="1"/>
        <pt x="293" y="698" on="1"/>
        <pt x="352" y="470" on="1"/>
        <pt x="360" y="435" on="0"/>
        <pt x="375" y="366" on="0"/>
        <pt x="383" y="331" on="1"/>
        <pt x="385" y="331" on="1"/>
        <pt x="391" y="366" on="0"/>
        <pt x="402" y="435" on="0"/>
        <pt x="409" y="470" on="1"/>
        <pt x="453" y="698" on="1"/>
        <pt x="513" y="698" on="1"/>
        <pt x="423" y="266" on="1"/>
        <pt x="348" y="266" on="1"/>
        <pt x="285" y="516" on="1"/>
        <pt x="279" y="541" on="0"/>
        <pt x="269" y="589" on="0"/>
        <pt x="264" y="614" on="1"/>
        <pt x="262" y="614" on="1"/>
        <pt x="257" y="589" on="0"/>
        <pt x="246" y="541" on="0"/>
        <pt x="241" y="516" on="1"/>
        <pt x="180" y="266" on="1"/>
        <pt x="104" y="266" on="1"/>
      </contour>
    </TTGlyph>
    <TTGlyph name="Wacute" xMin="23" yMin="0" xMax="762" yMax="818">
      <component glyphName="W" x="0" y="0" flags="0x204"/>
      <component glyphName="uni0301.cap" x="393" y="0" flags="0x4"/>
    </TTGlyph>
    <TTGlyph name="Wacute.sc" xMin="23" yMin="0" xMax="660" yMax="703">
      <component glyphName="W.sc" x="0" y="0" flags="0x204"/>
      <component glyphName="uni0301.cap" x="342" y="-115" flags="0x4"/>
    </TTGlyph>
    <TTGlyph name="Wcircumflex" xMin="23" yMin="0" xMax="762" yMax="818">
      <component glyphName="W" x="0" y="0" flags="0x204"/>
      <component glyphName="uni0302.cap" x="393" y="0" flags="0x4"/>
    </TTGlyph>
    <TTGlyph name="Wcircumflex.sc" xMin="23" yMin="0" xMax="660" yMax="703">
      <component glyphName="W.sc" x="0" y="0" flags="0x204"/>
      <component glyphName="uni0302.cap" x="342" y="-115" flags="0x4"/>
    </TTGlyph>
    <TTGlyph name="Wdieresis" xMin="23" yMin="0" xMax="762" yMax="813">
      <component glyphName="W" x="0" y="0" flags="0x204"/>
      <component glyphName="uni0308.cap" x="393" y="0" flags="0x4"/>
    </TTGlyph>
    <TTGlyph name="Wdieresis.sc" xMin="23" yMin="0" xMax="660" yMax="698">
      <component glyphName="W.sc" x="0" y="0" flags="0x204"/>
      <component glyphName="uni0308.cap" x="342" y="-115" flags="0x4"/>
    </TTGlyph>
    <TTGlyph name="Wgrave" xMin="23" yMin="0" xMax="762" yMax="818">
      <component glyphName="W" x="0" y="0" flags="0x204"/>
      <component glyphName="uni0300.cap" x="393" y="0" flags="0x4"/>
    </TTGlyph>
    <TTGlyph name="Wgrave.sc" xMin="23" yMin="0" xMax="660" yMax="703">
      <component glyphName="W.sc" x="0" y="0" flags="0x204"/>
      <component glyphName="uni0300.cap" x="342" y="-115" flags="0x4"/>
    </TTGlyph>
    <TTGlyph name="X" xMin="15" yMin="0" xMax="498" yMax="656">
      <contour>
        <pt x="206" y="339" on="1"/>
        <pt x="28" y="656" on="1"/>
        <pt x="120" y="656" on="1"/>
        <pt x="209" y="488" on="1"/>
        <pt x="222" y="465" on="0"/>
        <pt x="245" y="422" on="0"/>
        <pt x="260" y="393" on="1"/>
        <pt x="264" y="393" on="1"/>
        <pt x="278" y="422" on="0"/>
        <pt x="299" y="465" on="0"/>
        <pt x="311" y="488" on="1"/>
        <pt x="398" y="656" on="1"/>
        <pt x="486" y="656" on="1"/>
        <pt x="307" y="335" on="1"/>
        <pt x="498" y="0" on="1"/>
        <pt x="406" y="0" on="1"/>
        <pt x="310" y="177" on="1"/>
        <pt x="297" y="201" on="0"/>
        <pt x="270" y="252" on="0"/>
        <pt x="254" y="282" on="1"/>
        <pt x="250" y="282" on="1"/>
        <pt x="236" y="252" on="0"/>
        <pt x="210" y="201" on="0"/>
        <pt x="198" y="177" on="1"/>
        <pt x="103" y="0" on="1"/>
        <pt x="15" y="0" on="1"/>
      </contour>
    </TTGlyph>
    <TTGlyph name="X.sc" xMin="15" yMin="0" xMax="438" yMax="518">
      <contour>
        <pt x="176" y="267" on="1"/>
        <pt x="26" y="518" on="1"/>
        <pt x="117" y="518" on="1"/>
        <pt x="187" y="396" on="1"/>
        <pt x="197" y="379" on="0"/>
        <pt x="216" y="342" on="0"/>
        <pt x="229" y="319" on="1"/>
        <pt x="233" y="319" on="1"/>
        <pt x="244" y="342" on="0"/>
        <pt x="263" y="379" on="0"/>
        <pt x="272" y="396" on="1"/>
        <pt x="339" y="518" on="1"/>
        <pt x="427" y="518" on="1"/>
        <pt x="277" y="263" on="1"/>
        <pt x="438" y="0" on="1"/>
        <pt x="346" y="0" on="1"/>
        <pt x="270" y="128" on="1"/>
        <pt x="259" y="148" on="0"/>
        <pt x="237" y="189" on="0"/>
        <pt x="224" y="213" on="1"/>
        <pt x="220" y="213" on="1"/>
        <pt x="209" y="189" on="0"/>
        <pt x="188" y="148" on="0"/>
        <pt x="177" y="128" on="1"/>
        <pt x="103" y="0" on="1"/>
        <pt x="15" y="0" on="1"/>
      </contour>
    </TTGlyph>
    <TTGlyph name="X.sups" xMin="8" yMin="266" xMax="338" yMax="698">
      <contour>
        <pt x="135" y="490" on="1"/>
        <pt x="17" y="698" on="1"/>
        <pt x="86" y="698" on="1"/>
        <pt x="142" y="593" on="1"/>
        <pt x="150" y="578" on="0"/>
        <pt x="165" y="549" on="0"/>
        <pt x="175" y="529" on="1"/>
        <pt x="178" y="529" on="1"/>
        <pt x="187" y="549" on="0"/>
        <pt x="201" y="578" on="0"/>
        <pt x="209" y="593" on="1"/>
        <pt x="263" y="698" on="1"/>
        <pt x="330" y="698" on="1"/>
        <pt x="211" y="487" on="1"/>
        <pt x="338" y="266" on="1"/>
        <pt x="269" y="266" on="1"/>
        <pt x="209" y="379" on="1"/>
        <pt x="201" y="395" on="0"/>
        <pt x="183" y="428" on="0"/>
        <pt x="172" y="448" on="1"/>
        <pt x="169" y="448" on="1"/>
        <pt x="160" y="428" on="0"/>
        <pt x="142" y="395" on="0"/>
        <pt x="134" y="379" on="1"/>
        <pt x="74" y="266" on="1"/>
        <pt x="8" y="266" on="1"/>
      </contour>
    </TTGlyph>
    <TTGlyph name="Y" xMin="-1" yMin="0" xMax="477" yMax="656">
      <contour>
        <pt x="196" y="254" on="1"/>
        <pt x="-1" y="656" on="1"/>
        <pt x="88" y="656" on="1"/>
        <pt x="173" y="471" on="1"/>
        <pt x="189" y="435" on="0"/>
        <pt x="219" y="365" on="0"/>
        <pt x="236" y="328" on="1"/>
        <pt x="240" y="328" on="1"/>
        <pt x="257" y="365" on="0"/>
        <pt x="291" y="435" on="0"/>
        <pt x="306" y="471" on="1"/>
        <pt x="390" y="656" on="1"/>
        <pt x="477" y="656" on="1"/>
        <pt x="280" y="254" on="1"/>
        <pt x="280" y="0" on="1"/>
        <pt x="196" y="0" on="1"/>
      </contour>
    </TTGlyph>
    <TTGlyph name="Y.sc" xMin="-1" yMin="0" xMax="416" yMax="518">
      <contour>
        <pt x="166" y="196" on="1"/>
        <pt x="-1" y="518" on="1"/>
        <pt x="87" y="518" on="1"/>
        <pt x="153" y="381" on="1"/>
        <pt x="166" y="352" on="0"/>
        <pt x="193" y="297" on="0"/>
        <pt x="207" y="268" on="1"/>
        <pt x="211" y="268" on="1"/>
        <pt x="225" y="297" on="0"/>
        <pt x="250" y="352" on="0"/>
        <pt x="264" y="381" on="1"/>
        <pt x="330" y="518" on="1"/>
        <pt x="416" y="518" on="1"/>
        <pt x="249" y="196" on="1"/>
        <pt x="249" y="0" on="1"/>
        <pt x="166" y="0" on="1"/>
      </contour>
    </TTGlyph>
    <TTGlyph name="Y.sups" xMin="-3" yMin="266" xMax="323" yMax="698">
      <contour>
        <pt x="129" y="432" on="1"/>
        <pt x="-3" y="698" on="1"/>
        <pt x="63" y="698" on="1"/>
        <pt x="118" y="581" on="1"/>
        <pt x="129" y="556" on="0"/>
        <pt x="149" y="511" on="0"/>
        <pt x="160" y="486" on="1"/>
        <pt x="163" y="486" on="1"/>
        <pt x="174" y="511" on="0"/>
        <pt x="195" y="556" on="0"/>
        <pt x="205" y="581" on="1"/>
        <pt x="258" y="698" on="1"/>
        <pt x="323" y="698" on="1"/>
        <pt x="192" y="432" on="1"/>
        <pt x="192" y="266" on="1"/>
        <pt x="129" y="266" on="1"/>
      </contour>
    </TTGlyph>
    <TTGlyph name="Yacute" xMin="-1" yMin="0" xMax="477" yMax="818">
      <component glyphName="Y" x="0" y="0" flags="0x204"/>
      <component glyphName="uni0301.cap" x="238" y="0" flags="0x4"/>
    </TTGlyph>
    <TTGlyph name="Yacute.sc" xMin="-1" yMin="0" xMax="416" yMax="703">
      <component glyphName="Y.sc" x="0" y="0" flags="0x204"/>
      <component glyphName="uni0301.cap" x="208" y="-115" flags="0x4"/>
    </TTGlyph>
    <TTGlyph name="Ycircumflex" xMin="-1" yMin="0" xMax="477" yMax="818">
      <component glyphName="Y" x="0" y="0" flags="0x204"/>
      <component glyphName="uni0302.cap" x="238" y="0" flags="0x4"/>
    </TTGlyph>
    <TTGlyph name="Ycircumflex.sc" xMin="-1" yMin="0" xMax="416" yMax="703">
      <component glyphName="Y.sc" x="0" y="0" flags="0x204"/>
      <component glyphName="uni0302.cap" x="208" y="-115" flags="0x4"/>
    </TTGlyph>
    <TTGlyph name="Ydieresis" xMin="-1" yMin="0" xMax="477" yMax="813">
      <component glyphName="Y" x="0" y="0" flags="0x204"/>
      <component glyphName="uni0308.cap" x="238" y="0" flags="0x4"/>
    </TTGlyph>
    <TTGlyph name="Ydieresis.sc" xMin="-1" yMin="0" xMax="416" yMax="698">
      <component glyphName="Y.sc" x="0" y="0" flags="0x204"/>
      <component glyphName="uni0308.cap" x="208" y="-115" flags="0x4"/>
    </TTGlyph>
    <TTGlyph name="Ygrave" xMin="-1" yMin="0" xMax="477" yMax="818">
      <component glyphName="Y" x="0" y="0" flags="0x204"/>
      <component glyphName="uni0300.cap" x="238" y="0" flags="0x4"/>
    </TTGlyph>
    <TTGlyph name="Ygrave.sc" xMin="-1" yMin="0" xMax="416" yMax="703">
      <component glyphName="Y.sc" x="0" y="0" flags="0x204"/>
      <component glyphName="uni0300.cap" x="208" y="-115" flags="0x4"/>
    </TTGlyph>
    <TTGlyph name="Z" xMin="45" yMin="0" xMax="497" yMax="656">
      <contour>
        <pt x="45" y="50" on="1"/>
        <pt x="390" y="586" on="1"/>
        <pt x="76" y="586" on="1"/>
        <pt x="76" y="656" on="1"/>
        <pt x="494" y="656" on="1"/>
        <pt x="494" y="607" on="1"/>
        <pt x="148" y="71" on="1"/>
        <pt x="497" y="71" on="1"/>
        <pt x="497" y="0" on="1"/>
        <pt x="45" y="0" on="1"/>
      </contour>
    </TTGlyph>
    <TTGlyph name="Z.sc" xMin="45" yMin="0" xMax="433" yMax="518">
      <contour>
        <pt x="45" y="49" on="1"/>
        <pt x="328" y="450" on="1"/>
        <pt x="70" y="450" on="1"/>
        <pt x="70" y="518" on="1"/>
        <pt x="429" y="518" on="1"/>
        <pt x="429" y="469" on="1"/>
        <pt x="146" y="69" on="1"/>
        <pt x="433" y="69" on="1"/>
        <pt x="433" y="0" on="1"/>
        <pt x="45" y="0" on="1"/>
      </contour>
    </TTGlyph>
    <TTGlyph name="Z.sups" xMin="27" yMin="266" xMax="332" yMax="698">
      <contour>
        <pt x="27" y="304" on="1"/>
        <pt x="253" y="646" on="1"/>
        <pt x="47" y="646" on="1"/>
        <pt x="47" y="698" on="1"/>
        <pt x="330" y="698" on="1"/>
        <pt x="330" y="661" on="1"/>
        <pt x="105" y="319" on="1"/>
        <pt x="332" y="319" on="1"/>
        <pt x="332" y="266" on="1"/>
        <pt x="27" y="266" on="1"/>
      </contour>
    </TTGlyph>
    <TTGlyph name="Zacute" xMin="45" yMin="0" xMax="497" yMax="818">
      <component glyphName="Z" x="0" y="0" flags="0x204"/>
      <component glyphName="uni0301.cap" x="280" y="0" flags="0x4"/>
    </TTGlyph>
    <TTGlyph name="Zacute.sc" xMin="45" yMin="0" xMax="433" yMax="703">
      <component glyphName="Z.sc" x="0" y="0" flags="0x204"/>
      <component glyphName="uni0301.cap" x="250" y="-115" flags="0x4"/>
    </TTGlyph>
    <TTGlyph name="Zcaron" xMin="45" yMin="0" xMax="497" yMax="818">
      <component glyphName="Z" x="0" y="0" flags="0x204"/>
      <component glyphName="uni030C.cap" x="280" y="0" flags="0x4"/>
    </TTGlyph>
    <TTGlyph name="Zcaron.sc" xMin="45" yMin="0" xMax="433" yMax="703">
      <component glyphName="Z.sc" x="0" y="0" flags="0x204"/>
      <component glyphName="uni030C.cap" x="250" y="-115" flags="0x4"/>
    </TTGlyph>
    <TTGlyph name="Zdotaccent" xMin="45" yMin="0" xMax="497" yMax="821">
      <component glyphName="Z" x="0" y="0" flags="0x204"/>
      <component glyphName="uni0307.cap" x="280" y="0" flags="0x4"/>
    </TTGlyph>
    <TTGlyph name="Zdotaccent.sc" xMin="45" yMin="0" xMax="433" yMax="706">
      <component glyphName="Z.sc" x="0" y="0" flags="0x204"/>
      <component glyphName="uni0307.cap" x="250" y="-115" flags="0x4"/>
    </TTGlyph>
    <TTGlyph name="a" xMin="58" yMin="-12" xMax="439" yMax="498">
      <contour>
        <pt x="58" y="126" on="1"/>
        <pt x="58" y="206" on="0"/>
        <pt x="201" y="291" on="0"/>
        <pt x="357" y="308" on="1"/>
        <pt x="357" y="331" on="0"/>
        <pt x="348" y="375" on="0"/>
        <pt x="325" y="409" on="0"/>
        <pt x="287" y="430" on="0"/>
        <pt x="257" y="430" on="1"/>
        <pt x="214" y="430" on="0"/>
        <pt x="141" y="398" on="0"/>
        <pt x="112" y="378" on="1"/>
        <pt x="79" y="435" on="1"/>
        <pt x="113" y="457" on="0"/>
        <pt x="211" y="498" on="0"/>
        <pt x="270" y="498" on="1"/>
        <pt x="359" y="498" on="0"/>
        <pt x="439" y="389" on="0"/>
        <pt x="439" y="298" on="1"/>
        <pt x="439" y="0" on="1"/>
        <pt x="371" y="0" on="1"/>
        <pt x="364" y="58" on="1"/>
        <pt x="362" y="58" on="1"/>
        <pt x="327" y="29" on="0"/>
        <pt x="246" y="-12" on="0"/>
        <pt x="201" y="-12" on="1"/>
        <pt x="139" y="-12" on="0"/>
        <pt x="58" y="60" on="0"/>
      </contour>
      <contour>
        <pt x="139" y="132" on="1"/>
        <pt x="139" y="90" on="0"/>
        <pt x="188" y="54" on="0"/>
        <pt x="224" y="54" on="1"/>
        <pt x="259" y="54" on="0"/>
        <pt x="322" y="87" on="0"/>
        <pt x="357" y="119" on="1"/>
        <pt x="357" y="254" on="1"/>
        <pt x="296" y="246" on="0"/>
        <pt x="212" y="224" on="0"/>
        <pt x="161" y="194" on="0"/>
        <pt x="139" y="155" on="0"/>
      </contour>
    </TTGlyph>
    <TTGlyph name="a.a" xMin="47" yMin="-12" xMax="473" yMax="498">
      <component glyphName="uni0251" x="0" y="0" flags="0x204"/>
    </TTGlyph>
    <TTGlyph name="a.supa" xMin="33" yMin="258" xMax="322" yMax="596">
      <contour>
        <pt x="97" y="433" on="1"/>
        <pt x="97" y="373" on="0"/>
        <pt x="139" y="311" on="0"/>
        <pt x="184" y="311" on="1"/>
        <pt x="204" y="311" on="0"/>
        <pt x="240" y="331" on="0"/>
        <pt x="260" y="351" on="1"/>
        <pt x="260" y="513" on="1"/>
        <pt x="240" y="530" on="0"/>
        <pt x="201" y="545" on="0"/>
        <pt x="183" y="545" on="1"/>
        <pt x="148" y="545" on="0"/>
        <pt x="97" y="483" on="0"/>
      </contour>
      <contour>
        <pt x="33" y="431" on="1"/>
        <pt x="33" y="469" on="0"/>
        <pt x="57" y="530" on="0"/>
        <pt x="96" y="573" on="0"/>
        <pt x="147" y="596" on="0"/>
        <pt x="174" y="596" on="1"/>
        <pt x="200" y="596" on="0"/>
        <pt x="244" y="576" on="0"/>
        <pt x="264" y="557" on="1"/>
        <pt x="268" y="557" on="1"/>
        <pt x="274" y="588" on="1"/>
        <pt x="322" y="588" on="1"/>
        <pt x="322" y="266" on="1"/>
        <pt x="271" y="266" on="1"/>
        <pt x="266" y="301" on="1"/>
        <pt x="262" y="301" on="1"/>
        <pt x="242" y="284" on="0"/>
        <pt x="198" y="258" on="0"/>
        <pt x="170" y="258" on="1"/>
        <pt x="106" y="258" on="0"/>
        <pt x="33" y="349" on="0"/>
      </contour>
    </TTGlyph>
    <TTGlyph name="a.sups" xMin="37" yMin="258" xMax="298" yMax="596">
      <contour>
        <pt x="136" y="258" on="1"/>
        <pt x="91" y="258" on="0"/>
        <pt x="37" y="310" on="0"/>
        <pt x="37" y="353" on="1"/>
        <pt x="37" y="406" on="0"/>
        <pt x="132" y="461" on="0"/>
        <pt x="236" y="471" on="1"/>
        <pt x="235" y="503" on="0"/>
        <pt x="209" y="545" on="0"/>
        <pt x="174" y="545" on="1"/>
        <pt x="148" y="545" on="0"/>
        <pt x="93" y="524" on="0"/>
        <pt x="73" y="511" on="1"/>
        <pt x="50" y="553" on="1"/>
        <pt x="75" y="569" on="0"/>
        <pt x="144" y="596" on="0"/>
        <pt x="183" y="596" on="1"/>
        <pt x="243" y="596" on="0"/>
        <pt x="298" y="526" on="0"/>
        <pt x="298" y="462" on="1"/>
        <pt x="298" y="266" on="1"/>
        <pt x="248" y="266" on="1"/>
        <pt x="241" y="303" on="1"/>
        <pt x="237" y="303" on="1"/>
        <pt x="217" y="285" on="0"/>
        <pt x="167" y="258" on="0"/>
      </contour>
      <contour>
        <pt x="154" y="308" on="1"/>
        <pt x="193" y="308" on="0"/>
        <pt x="236" y="348" on="1"/>
        <pt x="236" y="433" on="1"/>
        <pt x="159" y="424" on="0"/>
        <pt x="98" y="386" on="0"/>
        <pt x="98" y="358" on="1"/>
        <pt x="98" y="332" on="0"/>
        <pt x="128" y="308" on="0"/>
      </contour>
    </TTGlyph>
    <TTGlyph name="aacute" xMin="58" yMin="-12" xMax="439" yMax="714">
      <component glyphName="a" x="0" y="0" flags="0x204"/>
      <component glyphName="uni0301" x="269" y="0" flags="0x4"/>
    </TTGlyph>
    <TTGlyph name="aacute.a" xMin="47" yMin="-12" xMax="473" yMax="714">
      <component glyphName="uni0251" x="0" y="0" flags="0x204"/>
      <component glyphName="uni0301" x="282" y="0" flags="0x4"/>
    </TTGlyph>
    <TTGlyph name="abreve" xMin="58" yMin="-12" xMax="439" yMax="702">
      <component glyphName="a" x="0" y="0" flags="0x204"/>
      <component glyphName="uni0306" x="269" y="0" flags="0x4"/>
    </TTGlyph>
    <TTGlyph name="abreve.a" xMin="47" yMin="-12" xMax="473" yMax="702">
      <component glyphName="uni0251" x="0" y="0" flags="0x204"/>
      <component glyphName="uni0306" x="282" y="0" flags="0x4"/>
    </TTGlyph>
    <TTGlyph name="acircumflex" xMin="58" yMin="-12" xMax="439" yMax="714">
      <component glyphName="a" x="0" y="0" flags="0x204"/>
      <component glyphName="uni0302" x="269" y="0" flags="0x4"/>
    </TTGlyph>
    <TTGlyph name="acircumflex.a" xMin="47" yMin="-12" xMax="473" yMax="714">
      <component glyphName="uni0251" x="0" y="0" flags="0x204"/>
      <component glyphName="uni0302" x="282" y="0" flags="0x4"/>
    </TTGlyph>
    <TTGlyph name="acute" xMin="206" yMin="573" xMax="382" yMax="714">
      <component glyphName="uni0301" x="271" y="0" flags="0x4"/>
    </TTGlyph>
    <TTGlyph name="adieresis" xMin="58" yMin="-12" xMax="439" yMax="686">
      <component glyphName="a" x="0" y="0" flags="0x204"/>
      <component glyphName="uni0308" x="269" y="0" flags="0x4"/>
    </TTGlyph>
    <TTGlyph name="adieresis.a" xMin="47" yMin="-12" xMax="473" yMax="686">
      <component glyphName="uni0251" x="0" y="0" flags="0x204"/>
      <component glyphName="uni0308" x="282" y="0" flags="0x4"/>
    </TTGlyph>
    <TTGlyph name="ae" xMin="58" yMin="-12" xMax="747" yMax="498">
      <contour>
        <pt x="139" y="132" on="1"/>
        <pt x="139" y="90" on="0"/>
        <pt x="188" y="54" on="0"/>
        <pt x="224" y="54" on="1"/>
        <pt x="258" y="54" on="0"/>
        <pt x="338" y="93" on="0"/>
        <pt x="371" y="129" on="1"/>
        <pt x="363" y="148" on="0"/>
        <pt x="353" y="201" on="0"/>
        <pt x="352" y="229" on="1"/>
        <pt x="352" y="254" on="1"/>
        <pt x="294" y="246" on="0"/>
        <pt x="213" y="224" on="0"/>
        <pt x="162" y="194" on="0"/>
        <pt x="139" y="155" on="0"/>
      </contour>
      <contour>
        <pt x="79" y="435" on="1"/>
        <pt x="113" y="457" on="0"/>
        <pt x="209" y="498" on="0"/>
        <pt x="263" y="498" on="1"/>
        <pt x="317" y="498" on="0"/>
        <pt x="387" y="443" on="0"/>
        <pt x="402" y="395" on="1"/>
        <pt x="431" y="443" on="0"/>
        <pt x="512" y="498" on="0"/>
        <pt x="562" y="498" on="1"/>
        <pt x="607" y="498" on="0"/>
        <pt x="676" y="466" on="0"/>
        <pt x="723" y="406" on="0"/>
        <pt x="747" y="321" on="0"/>
        <pt x="747" y="269" on="1"/>
        <pt x="747" y="241" on="0"/>
        <pt x="744" y="223" on="1"/>
        <pt x="429" y="223" on="1"/>
        <pt x="430" y="185" on="0"/>
        <pt x="455" y="123" on="0"/>
        <pt x="495" y="79" on="0"/>
        <pt x="549" y="55" on="0"/>
        <pt x="580" y="55" on="1"/>
        <pt x="615" y="55" on="0"/>
        <pt x="671" y="78" on="0"/>
        <pt x="698" y="95" on="1"/>
        <pt x="728" y="38" on="1"/>
        <pt x="696" y="18" on="0"/>
        <pt x="620" y="-12" on="0"/>
        <pt x="570" y="-12" on="1"/>
        <pt x="509" y="-12" on="0"/>
        <pt x="427" y="43" on="0"/>
        <pt x="399" y="79" on="1"/>
        <pt x="349" y="34" on="0"/>
        <pt x="248" y="-12" on="0"/>
        <pt x="201" y="-12" on="1"/>
        <pt x="139" y="-12" on="0"/>
        <pt x="58" y="60" on="0"/>
        <pt x="58" y="126" on="1"/>
        <pt x="58" y="206" on="0"/>
        <pt x="200" y="291" on="0"/>
        <pt x="352" y="308" on="1"/>
        <pt x="352" y="331" on="0"/>
        <pt x="344" y="375" on="0"/>
        <pt x="321" y="409" on="0"/>
        <pt x="283" y="430" on="0"/>
        <pt x="253" y="430" on="1"/>
        <pt x="213" y="430" on="0"/>
        <pt x="141" y="398" on="0"/>
        <pt x="112" y="378" on="1"/>
      </contour>
      <contour>
        <pt x="675" y="278" on="1"/>
        <pt x="675" y="353" on="0"/>
        <pt x="616" y="433" on="0"/>
        <pt x="560" y="433" on="1"/>
        <pt x="509" y="433" on="0"/>
        <pt x="436" y="350" on="0"/>
        <pt x="429" y="278" on="1"/>
      </contour>
    </TTGlyph>
    <TTGlyph name="agrave" xMin="58" yMin="-12" xMax="439" yMax="714">
      <component glyphName="a" x="0" y="0" flags="0x204"/>
      <component glyphName="uni0300" x="269" y="0" flags="0x4"/>
    </TTGlyph>
    <TTGlyph name="agrave.a" xMin="47" yMin="-12" xMax="473" yMax="714">
      <component glyphName="uni0251" x="0" y="0" flags="0x204"/>
      <component glyphName="uni0300" x="282" y="0" flags="0x4"/>
    </TTGlyph>
    <TTGlyph name="amacron" xMin="58" yMin="-12" xMax="439" yMax="658">
      <component glyphName="a" x="0" y="0" flags="0x204"/>
      <component glyphName="uni0304" x="269" y="0" flags="0x4"/>
    </TTGlyph>
    <TTGlyph name="amacron.a" xMin="47" yMin="-12" xMax="473" yMax="658">
      <component glyphName="uni0251" x="0" y="0" flags="0x204"/>
      <component glyphName="uni0304" x="282" y="0" flags="0x4"/>
    </TTGlyph>
    <TTGlyph name="ampersand" xMin="32" yMin="-12" xMax="594" yMax="668">
      <contour>
        <pt x="112" y="175" on="1"/>
        <pt x="112" y="148" on="0"/>
        <pt x="132" y="103" on="0"/>
        <pt x="167" y="71" on="0"/>
        <pt x="214" y="54" on="0"/>
        <pt x="241" y="54" on="1"/>
        <pt x="275" y="54" on="0"/>
        <pt x="337" y="82" on="0"/>
        <pt x="366" y="107" on="1"/>
        <pt x="318" y="149" on="0"/>
        <pt x="229" y="249" on="0"/>
        <pt x="194" y="302" on="1"/>
        <pt x="159" y="274" on="0"/>
        <pt x="112" y="213" on="0"/>
      </contour>
      <contour>
        <pt x="189" y="514" on="1"/>
        <pt x="189" y="487" on="0"/>
        <pt x="206" y="429" on="0"/>
        <pt x="220" y="399" on="1"/>
        <pt x="242" y="414" on="0"/>
        <pt x="283" y="445" on="0"/>
        <pt x="314" y="478" on="0"/>
        <pt x="332" y="515" on="0"/>
        <pt x="332" y="537" on="1"/>
        <pt x="332" y="566" on="0"/>
        <pt x="303" y="609" on="0"/>
        <pt x="270" y="609" on="1"/>
        <pt x="233" y="609" on="0"/>
        <pt x="189" y="555" on="0"/>
      </contour>
      <contour>
        <pt x="572" y="-12" on="1"/>
        <pt x="537" y="-2" on="0"/>
        <pt x="461" y="35" on="0"/>
        <pt x="421" y="63" on="1"/>
        <pt x="383" y="29" on="0"/>
        <pt x="290" y="-12" on="0"/>
        <pt x="232" y="-12" on="1"/>
        <pt x="187" y="-12" on="0"/>
        <pt x="114" y="15" on="0"/>
        <pt x="61" y="63" on="0"/>
        <pt x="32" y="130" on="0"/>
        <pt x="32" y="170" on="1"/>
        <pt x="32" y="203" on="0"/>
        <pt x="53" y="257" on="0"/>
        <pt x="89" y="303" on="0"/>
        <pt x="136" y="342" on="0"/>
        <pt x="161" y="359" on="1"/>
        <pt x="141" y="400" on="0"/>
        <pt x="118" y="477" on="0"/>
        <pt x="118" y="513" on="1"/>
        <pt x="118" y="546" on="0"/>
        <pt x="140" y="602" on="0"/>
        <pt x="180" y="644" on="0"/>
        <pt x="236" y="668" on="0"/>
        <pt x="270" y="668" on="1"/>
        <pt x="331" y="668" on="0"/>
        <pt x="399" y="596" on="0"/>
        <pt x="399" y="538" on="1"/>
        <pt x="399" y="506" on="0"/>
        <pt x="373" y="452" on="0"/>
        <pt x="331" y="405" on="0"/>
        <pt x="278" y="364" on="0"/>
        <pt x="251" y="344" on="1"/>
        <pt x="283" y="293" on="0"/>
        <pt x="370" y="199" on="0"/>
        <pt x="417" y="160" on="1"/>
        <pt x="447" y="201" on="0"/>
        <pt x="494" y="297" on="0"/>
        <pt x="509" y="354" on="1"/>
        <pt x="586" y="354" on="1"/>
        <pt x="566" y="289" on="0"/>
        <pt x="510" y="171" on="0"/>
        <pt x="471" y="119" on="1"/>
        <pt x="505" y="96" on="0"/>
        <pt x="567" y="64" on="0"/>
        <pt x="594" y="56" on="1"/>
      </contour>
    </TTGlyph>
    <TTGlyph name="ampersand.sc" xMin="32" yMin="-12" xMax="519" yMax="530">
      <contour>
        <pt x="108" y="140" on="1"/>
        <pt x="108" y="99" on="0"/>
        <pt x="168" y="51" on="0"/>
        <pt x="213" y="51" on="1"/>
        <pt x="239" y="51" on="0"/>
        <pt x="290" y="71" on="0"/>
        <pt x="313" y="88" on="1"/>
        <pt x="273" y="120" on="0"/>
        <pt x="201" y="194" on="0"/>
        <pt x="172" y="234" on="1"/>
        <pt x="144" y="214" on="0"/>
        <pt x="108" y="168" on="0"/>
      </contour>
      <contour>
        <pt x="170" y="401" on="1"/>
        <pt x="170" y="381" on="0"/>
        <pt x="184" y="338" on="0"/>
        <pt x="196" y="315" on="1"/>
        <pt x="234" y="337" on="0"/>
        <pt x="287" y="385" on="0"/>
        <pt x="287" y="418" on="1"/>
        <pt x="287" y="440" on="0"/>
        <pt x="264" y="473" on="0"/>
        <pt x="237" y="473" on="1"/>
        <pt x="207" y="473" on="0"/>
        <pt x="170" y="432" on="0"/>
      </contour>
      <contour>
        <pt x="498" y="-12" on="1"/>
        <pt x="436" y="3" on="0"/>
        <pt x="367" y="48" on="1"/>
        <pt x="335" y="21" on="0"/>
        <pt x="255" y="-12" on="0"/>
        <pt x="204" y="-12" on="1"/>
        <pt x="165" y="-12" on="0"/>
        <pt x="101" y="11" on="0"/>
        <pt x="56" y="51" on="0"/>
        <pt x="32" y="104" on="0"/>
        <pt x="32" y="135" on="1"/>
        <pt x="32" y="161" on="0"/>
        <pt x="50" y="204" on="0"/>
        <pt x="80" y="239" on="0"/>
        <pt x="120" y="269" on="0"/>
        <pt x="141" y="282" on="1"/>
        <pt x="124" y="313" on="0"/>
        <pt x="104" y="373" on="0"/>
        <pt x="104" y="401" on="1"/>
        <pt x="104" y="427" on="0"/>
        <pt x="123" y="474" on="0"/>
        <pt x="158" y="509" on="0"/>
        <pt x="207" y="530" on="0"/>
        <pt x="237" y="530" on="1"/>
        <pt x="291" y="530" on="0"/>
        <pt x="350" y="467" on="0"/>
        <pt x="350" y="419" on="1"/>
        <pt x="350" y="394" on="0"/>
        <pt x="328" y="353" on="0"/>
        <pt x="293" y="317" on="0"/>
        <pt x="248" y="285" on="0"/>
        <pt x="225" y="270" on="1"/>
        <pt x="253" y="233" on="0"/>
        <pt x="325" y="164" on="0"/>
        <pt x="363" y="135" on="1"/>
        <pt x="388" y="166" on="0"/>
        <pt x="426" y="240" on="0"/>
        <pt x="438" y="282" on="1"/>
        <pt x="513" y="282" on="1"/>
        <pt x="496" y="231" on="0"/>
        <pt x="449" y="140" on="0"/>
        <pt x="416" y="99" on="1"/>
        <pt x="444" y="82" on="0"/>
        <pt x="496" y="60" on="0"/>
        <pt x="519" y="54" on="1"/>
      </contour>
    </TTGlyph>
    <TTGlyph name="aogonek" xMin="58" yMin="-206" xMax="460" yMax="498">
      <contour>
        <pt x="139" y="132" on="1"/>
        <pt x="139" y="90" on="0"/>
        <pt x="188" y="54" on="0"/>
        <pt x="224" y="54" on="1"/>
        <pt x="259" y="54" on="0"/>
        <pt x="322" y="87" on="0"/>
        <pt x="357" y="119" on="1"/>
        <pt x="357" y="254" on="1"/>
        <pt x="296" y="246" on="0"/>
        <pt x="212" y="224" on="0"/>
        <pt x="161" y="194" on="0"/>
        <pt x="139" y="155" on="0"/>
      </contour>
      <contour>
        <pt x="58" y="126" on="1"/>
        <pt x="58" y="206" on="0"/>
        <pt x="201" y="291" on="0"/>
        <pt x="357" y="308" on="1"/>
        <pt x="357" y="331" on="0"/>
        <pt x="348" y="375" on="0"/>
        <pt x="325" y="409" on="0"/>
        <pt x="287" y="430" on="0"/>
        <pt x="257" y="430" on="1"/>
        <pt x="214" y="430" on="0"/>
        <pt x="141" y="398" on="0"/>
        <pt x="112" y="378" on="1"/>
        <pt x="79" y="435" on="1"/>
        <pt x="113" y="457" on="0"/>
        <pt x="211" y="498" on="0"/>
        <pt x="270" y="498" on="1"/>
        <pt x="359" y="498" on="0"/>
        <pt x="439" y="389" on="0"/>
        <pt x="439" y="298" on="1"/>
        <pt x="439" y="0" on="1"/>
        <pt x="397" y="-17" on="0"/>
        <pt x="352" y="-76" on="0"/>
        <pt x="352" y="-105" on="1"/>
        <pt x="352" y="-128" on="0"/>
        <pt x="381" y="-151" on="0"/>
        <pt x="399" y="-151" on="1"/>
        <pt x="411" y="-151" on="0"/>
        <pt x="430" y="-144" on="0"/>
        <pt x="439" y="-138" on="1"/>
        <pt x="460" y="-179" on="1"/>
        <pt x="446" y="-190" on="0"/>
        <pt x="401" y="-206" on="0"/>
        <pt x="382" y="-206" on="1"/>
        <pt x="344" y="-206" on="0"/>
        <pt x="292" y="-163" on="0"/>
        <pt x="292" y="-121" on="1"/>
        <pt x="292" y="-101" on="0"/>
        <pt x="306" y="-64" on="0"/>
        <pt x="329" y="-32" on="0"/>
        <pt x="357" y="-5" on="0"/>
        <pt x="372" y="4" on="1"/>
        <pt x="364" y="58" on="1"/>
        <pt x="362" y="58" on="1"/>
        <pt x="327" y="29" on="0"/>
        <pt x="246" y="-12" on="0"/>
        <pt x="201" y="-12" on="1"/>
        <pt x="139" y="-12" on="0"/>
        <pt x="58" y="60" on="0"/>
      </contour>
    </TTGlyph>
    <TTGlyph name="aogonek.a" xMin="47" yMin="-206" xMax="494" yMax="498">
      <contour>
        <pt x="132" y="243" on="1"/>
        <pt x="132" y="155" on="0"/>
        <pt x="202" y="57" on="0"/>
        <pt x="266" y="57" on="1"/>
        <pt x="300" y="57" on="0"/>
        <pt x="360" y="90" on="0"/>
        <pt x="390" y="124" on="1"/>
        <pt x="390" y="378" on="1"/>
        <pt x="359" y="406" on="0"/>
        <pt x="302" y="429" on="0"/>
        <pt x="272" y="429" on="1"/>
        <pt x="243" y="429" on="0"/>
        <pt x="192" y="402" on="0"/>
        <pt x="154" y="353" on="0"/>
        <pt x="132" y="285" on="0"/>
      </contour>
      <contour>
        <pt x="47" y="242" on="1"/>
        <pt x="47" y="301" on="0"/>
        <pt x="82" y="396" on="0"/>
        <pt x="141" y="462" on="0"/>
        <pt x="217" y="498" on="0"/>
        <pt x="259" y="498" on="1"/>
        <pt x="300" y="498" on="0"/>
        <pt x="364" y="468" on="0"/>
        <pt x="397" y="439" on="1"/>
        <pt x="399" y="439" on="1"/>
        <pt x="406" y="486" on="1"/>
        <pt x="473" y="486" on="1"/>
        <pt x="473" y="0" on="1"/>
        <pt x="428" y="-22" on="0"/>
        <pt x="386" y="-76" on="0"/>
        <pt x="386" y="-105" on="1"/>
        <pt x="386" y="-128" on="0"/>
        <pt x="414" y="-151" on="0"/>
        <pt x="432" y="-151" on="1"/>
        <pt x="444" y="-151" on="0"/>
        <pt x="464" y="-144" on="0"/>
        <pt x="473" y="-138" on="1"/>
        <pt x="494" y="-179" on="1"/>
        <pt x="480" y="-190" on="0"/>
        <pt x="435" y="-206" on="0"/>
        <pt x="416" y="-206" on="1"/>
        <pt x="378" y="-206" on="0"/>
        <pt x="325" y="-163" on="0"/>
        <pt x="325" y="-121" on="1"/>
        <pt x="325" y="-80" on="0"/>
        <pt x="373" y="-19" on="0"/>
        <pt x="405" y="4" on="1"/>
        <pt x="398" y="57" on="1"/>
        <pt x="395" y="57" on="1"/>
        <pt x="366" y="29" on="0"/>
        <pt x="291" y="-12" on="0"/>
        <pt x="248" y="-12" on="1"/>
        <pt x="156" y="-12" on="0"/>
        <pt x="47" y="120" on="0"/>
      </contour>
    </TTGlyph>
    <TTGlyph name="approxequal" xMin="36" yMin="151" xMax="461" yMax="510">
      <component glyphName="asciitilde" x="0" y="107" flags="0x204"/>
      <component glyphName="asciitilde" x="0" y="-106" flags="0x4"/>
    </TTGlyph>
    <TTGlyph name="aring" xMin="58" yMin="-12" xMax="439" yMax="727">
      <component glyphName="a" x="0" y="0" flags="0x204"/>
      <component glyphName="uni030A" x="269" y="0" flags="0x4"/>
    </TTGlyph>
    <TTGlyph name="aring.a" xMin="47" yMin="-12" xMax="473" yMax="727">
      <component glyphName="uni0251" x="0" y="0" flags="0x204"/>
      <component glyphName="uni030A" x="282" y="0" flags="0x4"/>
    </TTGlyph>
    <TTGlyph name="arrowdown" xMin="42" yMin="-25" xMax="577" yMax="527">
      <contour>
        <pt x="307" y="-25" on="1"/>
        <pt x="42" y="248" on="1"/>
        <pt x="88" y="290" on="1"/>
        <pt x="275" y="89" on="1"/>
        <pt x="275" y="527" on="1"/>
        <pt x="343" y="527" on="1"/>
        <pt x="343" y="89" on="1"/>
        <pt x="530" y="290" on="1"/>
        <pt x="577" y="248" on="1"/>
        <pt x="311" y="-25" on="1"/>
      </contour>
    </TTGlyph>
    <TTGlyph name="arrowup" xMin="42" yMin="-25" xMax="577" yMax="527">
      <contour>
        <pt x="311" y="527" on="1"/>
        <pt x="577" y="255" on="1"/>
        <pt x="530" y="213" on="1"/>
        <pt x="343" y="414" on="1"/>
        <pt x="343" y="-25" on="1"/>
        <pt x="275" y="-25" on="1"/>
        <pt x="275" y="414" on="1"/>
        <pt x="88" y="213" on="1"/>
        <pt x="42" y="255" on="1"/>
        <pt x="307" y="527" on="1"/>
      </contour>
    </TTGlyph>
    <TTGlyph name="asciicircum" xMin="60" yMin="284" xMax="437" yMax="670">
      <contour>
        <pt x="212" y="670" on="1"/>
        <pt x="285" y="670" on="1"/>
        <pt x="437" y="284" on="1"/>
        <pt x="365" y="284" on="1"/>
        <pt x="300" y="460" on="1"/>
        <pt x="251" y="593" on="1"/>
        <pt x="247" y="593" on="1"/>
        <pt x="197" y="460" on="1"/>
        <pt x="132" y="284" on="1"/>
        <pt x="60" y="284" on="1"/>
      </contour>
    </TTGlyph>
    <TTGlyph name="asciitilde" xMin="36" yMin="257" xMax="461" yMax="403">
      <contour>
        <pt x="36" y="313" on="1"/>
        <pt x="63" y="361" on="0"/>
        <pt x="129" y="403" on="0"/>
        <pt x="161" y="403" on="1"/>
        <pt x="191" y="403" on="0"/>
        <pt x="238" y="377" on="0"/>
        <pt x="279" y="345" on="0"/>
        <pt x="317" y="319" on="0"/>
        <pt x="338" y="319" on="1"/>
        <pt x="360" y="319" on="0"/>
        <pt x="398" y="348" on="0"/>
        <pt x="415" y="380" on="1"/>
        <pt x="461" y="346" on="1"/>
        <pt x="434" y="298" on="0"/>
        <pt x="368" y="257" on="0"/>
        <pt x="336" y="257" on="1"/>
        <pt x="306" y="257" on="0"/>
        <pt x="259" y="283" on="0"/>
        <pt x="218" y="315" on="0"/>
        <pt x="180" y="341" on="0"/>
        <pt x="159" y="341" on="1"/>
        <pt x="137" y="341" on="0"/>
        <pt x="99" y="312" on="0"/>
        <pt x="82" y="280" on="1"/>
      </contour>
    </TTGlyph>
    <TTGlyph name="asterisk" xMin="58" yMin="420" xMax="360" yMax="712">
      <contour>
        <pt x="98" y="449" on="1"/>
        <pt x="155" y="543" on="1"/>
        <pt x="58" y="583" on="1"/>
        <pt x="73" y="629" on="1"/>
        <pt x="175" y="604" on="1"/>
        <pt x="184" y="712" on="1"/>
        <pt x="233" y="712" on="1"/>
        <pt x="242" y="605" on="1"/>
        <pt x="345" y="629" on="1"/>
        <pt x="360" y="583" on="1"/>
        <pt x="263" y="543" on="1"/>
        <pt x="319" y="449" on="1"/>
        <pt x="280" y="420" on="1"/>
        <pt x="209" y="506" on="1"/>
        <pt x="138" y="420" on="1"/>
      </contour>
    </TTGlyph>
    <TTGlyph name="at" xMin="51" yMin="-155" xMax="796" yMax="646">
      <contour>
        <pt x="51" y="203" on="1"/>
        <pt x="51" y="303" on="0"/>
        <pt x="118" y="467" on="0"/>
        <pt x="233" y="583" on="0"/>
        <pt x="384" y="646" on="0"/>
        <pt x="468" y="646" on="1"/>
        <pt x="544" y="646" on="0"/>
        <pt x="665" y="598" on="0"/>
        <pt x="750" y="511" on="0"/>
        <pt x="796" y="389" on="0"/>
        <pt x="796" y="315" on="1"/>
        <pt x="796" y="249" on="0"/>
        <pt x="759" y="150" on="0"/>
        <pt x="701" y="83" on="0"/>
        <pt x="630" y="49" on="0"/>
        <pt x="596" y="49" on="1"/>
        <pt x="555" y="49" on="0"/>
        <pt x="498" y="87" on="0"/>
        <pt x="493" y="125" on="1"/>
        <pt x="491" y="125" on="1"/>
        <pt x="466" y="96" on="0"/>
        <pt x="402" y="57" on="0"/>
        <pt x="369" y="57" on="1"/>
        <pt x="318" y="57" on="0"/>
        <pt x="249" y="129" on="0"/>
        <pt x="249" y="198" on="1"/>
        <pt x="249" y="238" on="0"/>
        <pt x="276" y="321" on="0"/>
        <pt x="326" y="388" on="0"/>
        <pt x="397" y="430" on="0"/>
        <pt x="441" y="430" on="1"/>
        <pt x="467" y="430" on="0"/>
        <pt x="507" y="407" on="0"/>
        <pt x="521" y="382" on="1"/>
        <pt x="523" y="382" on="1"/>
        <pt x="534" y="422" on="1"/>
        <pt x="589" y="422" on="1"/>
        <pt x="550" y="222" on="1"/>
        <pt x="520" y="105" on="0"/>
        <pt x="604" y="105" on="1"/>
        <pt x="628" y="105" on="0"/>
        <pt x="675" y="133" on="0"/>
        <pt x="714" y="186" on="0"/>
        <pt x="738" y="263" on="0"/>
        <pt x="738" y="312" on="1"/>
        <pt x="738" y="372" on="0"/>
        <pt x="703" y="475" on="0"/>
        <pt x="633" y="549" on="0"/>
        <pt x="529" y="591" on="0"/>
        <pt x="461" y="591" on="1"/>
        <pt x="394" y="591" on="0"/>
        <pt x="268" y="536" on="0"/>
        <pt x="170" y="436" on="0"/>
        <pt x="111" y="294" on="0"/>
        <pt x="111" y="206" on="1"/>
        <pt x="111" y="133" on="0"/>
        <pt x="156" y="19" on="0"/>
        <pt x="236" y="-59" on="0"/>
        <pt x="345" y="-100" on="0"/>
        <pt x="409" y="-100" on="1"/>
        <pt x="455" y="-100" on="0"/>
        <pt x="537" y="-75" on="0"/>
        <pt x="571" y="-55" on="1"/>
        <pt x="593" y="-104" on="1"/>
        <pt x="508" y="-155" on="0"/>
        <pt x="403" y="-155" on="1"/>
        <pt x="329" y="-155" on="0"/>
        <pt x="201" y="-109" on="0"/>
        <pt x="106" y="-18" on="0"/>
        <pt x="51" y="116" on="0"/>
      </contour>
      <contour>
        <pt x="315" y="203" on="1"/>
        <pt x="315" y="155" on="0"/>
        <pt x="355" y="113" on="0"/>
        <pt x="385" y="113" on="1"/>
        <pt x="406" y="113" on="0"/>
        <pt x="451" y="141" on="0"/>
        <pt x="477" y="172" on="1"/>
        <pt x="506" y="331" on="1"/>
        <pt x="492" y="354" on="0"/>
        <pt x="462" y="373" on="0"/>
        <pt x="442" y="373" on="1"/>
        <pt x="412" y="373" on="0"/>
        <pt x="365" y="341" on="0"/>
        <pt x="332" y="291" on="0"/>
        <pt x="315" y="231" on="0"/>
      </contour>
    </TTGlyph>
    <TTGlyph name="at.case" xMin="51" yMin="-24" xMax="732" yMax="688">
      <contour>
        <pt x="51" y="290" on="1"/>
        <pt x="51" y="380" on="0"/>
        <pt x="113" y="527" on="0"/>
        <pt x="218" y="631" on="0"/>
        <pt x="357" y="688" on="0"/>
        <pt x="435" y="688" on="1"/>
        <pt x="502" y="688" on="0"/>
        <pt x="611" y="646" on="0"/>
        <pt x="689" y="570" on="0"/>
        <pt x="732" y="463" on="0"/>
        <pt x="732" y="397" on="1"/>
        <pt x="732" y="337" on="0"/>
        <pt x="701" y="244" on="0"/>
        <pt x="649" y="181" on="0"/>
        <pt x="583" y="148" on="0"/>
        <pt x="549" y="148" on="1"/>
        <pt x="511" y="148" on="0"/>
        <pt x="463" y="189" on="0"/>
        <pt x="458" y="225" on="1"/>
        <pt x="456" y="225" on="1"/>
        <pt x="433" y="196" on="0"/>
        <pt x="371" y="156" on="0"/>
        <pt x="336" y="156" on="1"/>
        <pt x="314" y="156" on="0"/>
        <pt x="275" y="174" on="0"/>
        <pt x="245" y="208" on="0"/>
        <pt x="228" y="256" on="0"/>
        <pt x="228" y="285" on="1"/>
        <pt x="228" y="323" on="0"/>
        <pt x="253" y="401" on="0"/>
        <pt x="300" y="464" on="0"/>
        <pt x="368" y="504" on="0"/>
        <pt x="410" y="504" on="1"/>
        <pt x="434" y="504" on="0"/>
        <pt x="473" y="481" on="0"/>
        <pt x="486" y="456" on="1"/>
        <pt x="488" y="456" on="1"/>
        <pt x="500" y="496" on="1"/>
        <pt x="556" y="496" on="1"/>
        <pt x="516" y="318" on="1"/>
        <pt x="502" y="258" on="0"/>
        <pt x="523" y="204" on="0"/>
        <pt x="558" y="204" on="1"/>
        <pt x="577" y="204" on="0"/>
        <pt x="619" y="228" on="0"/>
        <pt x="652" y="276" on="0"/>
        <pt x="674" y="347" on="0"/>
        <pt x="674" y="393" on="1"/>
        <pt x="674" y="447" on="0"/>
        <pt x="642" y="536" on="0"/>
        <pt x="580" y="600" on="0"/>
        <pt x="488" y="635" on="0"/>
        <pt x="427" y="635" on="1"/>
        <pt x="366" y="635" on="0"/>
        <pt x="252" y="587" on="0"/>
        <pt x="163" y="497" on="0"/>
        <pt x="110" y="371" on="0"/>
        <pt x="110" y="293" on="1"/>
        <pt x="110" y="225" on="0"/>
        <pt x="151" y="126" on="0"/>
        <pt x="222" y="61" on="0"/>
        <pt x="318" y="29" on="0"/>
        <pt x="373" y="29" on="1"/>
        <pt x="408" y="29" on="0"/>
        <pt x="476" y="46" on="0"/>
        <pt x="504" y="63" on="1"/>
        <pt x="527" y="17" on="1"/>
        <pt x="489" y="-5" on="0"/>
        <pt x="411" y="-24" on="0"/>
        <pt x="367" y="-24" on="1"/>
        <pt x="302" y="-24" on="0"/>
        <pt x="188" y="15" on="0"/>
        <pt x="101" y="93" on="0"/>
        <pt x="51" y="211" on="0"/>
      </contour>
      <contour>
        <pt x="354" y="212" on="1"/>
        <pt x="394" y="212" on="0"/>
        <pt x="443" y="270" on="1"/>
        <pt x="470" y="407" on="1"/>
        <pt x="456" y="430" on="0"/>
        <pt x="430" y="448" on="0"/>
        <pt x="410" y="448" on="1"/>
        <pt x="383" y="448" on="0"/>
        <pt x="340" y="419" on="0"/>
        <pt x="310" y="373" on="0"/>
        <pt x="294" y="318" on="0"/>
        <pt x="294" y="292" on="1"/>
        <pt x="294" y="251" on="0"/>
        <pt x="328" y="212" on="0"/>
      </contour>
    </TTGlyph>
    <TTGlyph name="atilde" xMin="58" yMin="-12" xMax="439" yMax="685">
      <component glyphName="a" x="0" y="0" flags="0x204"/>
      <component glyphName="uni0303" x="269" y="0" flags="0x4"/>
    </TTGlyph>
    <TTGlyph name="atilde.a" xMin="47" yMin="-12" xMax="473" yMax="685">
      <component glyphName="uni0251" x="0" y="0" flags="0x204"/>
      <component glyphName="uni0303" x="282" y="0" flags="0x4"/>
    </TTGlyph>
    <TTGlyph name="b" xMin="82" yMin="-12" xMax="507" yMax="712">
      <contour>
        <pt x="82" y="712" on="1"/>
        <pt x="164" y="712" on="1"/>
        <pt x="164" y="518" on="1"/>
        <pt x="162" y="430" on="1"/>
        <pt x="195" y="459" on="0"/>
        <pt x="273" y="498" on="0"/>
        <pt x="314" y="498" on="1"/>
        <pt x="361" y="498" on="0"/>
        <pt x="433" y="463" on="0"/>
        <pt x="482" y="398" on="0"/>
        <pt x="507" y="307" on="0"/>
        <pt x="507" y="251" on="1"/>
        <pt x="507" y="189" on="0"/>
        <pt x="473" y="91" on="0"/>
        <pt x="415" y="23" on="0"/>
        <pt x="339" y="-12" on="0"/>
        <pt x="297" y="-12" on="1"/>
        <pt x="263" y="-12" on="0"/>
        <pt x="190" y="19" on="0"/>
        <pt x="158" y="48" on="1"/>
        <pt x="155" y="48" on="1"/>
        <pt x="148" y="0" on="1"/>
        <pt x="82" y="0" on="1"/>
      </contour>
      <contour>
        <pt x="164" y="108" on="1"/>
        <pt x="196" y="80" on="0"/>
        <pt x="259" y="57" on="0"/>
        <pt x="283" y="57" on="1"/>
        <pt x="313" y="57" on="0"/>
        <pt x="364" y="84" on="0"/>
        <pt x="401" y="133" on="0"/>
        <pt x="422" y="205" on="0"/>
        <pt x="422" y="250" on="1"/>
        <pt x="422" y="290" on="0"/>
        <pt x="408" y="356" on="0"/>
        <pt x="377" y="403" on="0"/>
        <pt x="328" y="429" on="0"/>
        <pt x="294" y="429" on="1"/>
        <pt x="235" y="429" on="0"/>
        <pt x="164" y="363" on="1"/>
      </contour>
    </TTGlyph>
    <TTGlyph name="b.sups" xMin="52" yMin="258" xMax="341" yMax="735">
      <contour>
        <pt x="52" y="735" on="1"/>
        <pt x="114" y="735" on="1"/>
        <pt x="114" y="609" on="1"/>
        <pt x="111" y="551" on="1"/>
        <pt x="134" y="570" on="0"/>
        <pt x="183" y="596" on="0"/>
        <pt x="211" y="596" on="1"/>
        <pt x="274" y="596" on="0"/>
        <pt x="341" y="508" on="0"/>
        <pt x="341" y="433" on="1"/>
        <pt x="341" y="391" on="0"/>
        <pt x="318" y="326" on="0"/>
        <pt x="279" y="281" on="0"/>
        <pt x="229" y="258" on="0"/>
        <pt x="201" y="258" on="1"/>
        <pt x="178" y="258" on="0"/>
        <pt x="130" y="279" on="0"/>
        <pt x="110" y="299" on="1"/>
        <pt x="106" y="299" on="1"/>
        <pt x="100" y="266" on="1"/>
        <pt x="52" y="266" on="1"/>
      </contour>
      <contour>
        <pt x="114" y="341" on="1"/>
        <pt x="134" y="324" on="0"/>
        <pt x="175" y="309" on="0"/>
        <pt x="192" y="309" on="1"/>
        <pt x="228" y="309" on="0"/>
        <pt x="277" y="373" on="0"/>
        <pt x="277" y="433" on="1"/>
        <pt x="277" y="485" on="0"/>
        <pt x="238" y="544" on="0"/>
        <pt x="196" y="544" on="1"/>
        <pt x="156" y="544" on="0"/>
        <pt x="114" y="502" on="1"/>
      </contour>
    </TTGlyph>
    <TTGlyph name="backslash" xMin="14" yMin="-160" xMax="340" yMax="710">
      <contour>
        <pt x="14" y="710" on="1"/>
        <pt x="73" y="710" on="1"/>
        <pt x="340" y="-160" on="1"/>
        <pt x="281" y="-160" on="1"/>
      </contour>
    </TTGlyph>
    <TTGlyph name="bar" xMin="92" yMin="-250" xMax="150" yMax="750">
      <contour>
        <pt x="92" y="750" on="1"/>
        <pt x="150" y="750" on="1"/>
        <pt x="150" y="-250" on="1"/>
        <pt x="92" y="-250" on="1"/>
      </contour>
    </TTGlyph>
    <TTGlyph name="braceleft" xMin="34" yMin="-152" xMax="273" yMax="708">
      <contour>
        <pt x="273" y="-105" on="1"/>
        <pt x="273" y="-152" on="1"/>
        <pt x="228" y="-152" on="1"/>
        <pt x="169" y="-152" on="0"/>
        <pt x="111" y="-96" on="0"/>
        <pt x="111" y="-19" on="1"/>
        <pt x="111" y="8" on="0"/>
        <pt x="114" y="57" on="0"/>
        <pt x="117" y="103" on="0"/>
        <pt x="120" y="149" on="0"/>
        <pt x="120" y="174" on="1"/>
        <pt x="120" y="189" on="0"/>
        <pt x="112" y="216" on="0"/>
        <pt x="93" y="238" on="0"/>
        <pt x="59" y="252" on="0"/>
        <pt x="34" y="252" on="1"/>
        <pt x="34" y="304" on="1"/>
        <pt x="59" y="304" on="0"/>
        <pt x="93" y="318" on="0"/>
        <pt x="112" y="339" on="0"/>
        <pt x="120" y="367" on="0"/>
        <pt x="120" y="381" on="1"/>
        <pt x="120" y="432" on="0"/>
        <pt x="111" y="520" on="0"/>
        <pt x="111" y="575" on="1"/>
        <pt x="111" y="652" on="0"/>
        <pt x="169" y="708" on="0"/>
        <pt x="228" y="708" on="1"/>
        <pt x="273" y="708" on="1"/>
        <pt x="273" y="661" on="1"/>
        <pt x="246" y="661" on="1"/>
        <pt x="205" y="661" on="0"/>
        <pt x="178" y="619" on="0"/>
        <pt x="178" y="570" on="1"/>
        <pt x="178" y="524" on="0"/>
        <pt x="184" y="440" on="0"/>
        <pt x="184" y="389" on="1"/>
        <pt x="184" y="340" on="0"/>
        <pt x="156" y="289" on="0"/>
        <pt x="124" y="280" on="1"/>
        <pt x="124" y="276" on="1"/>
        <pt x="156" y="267" on="0"/>
        <pt x="184" y="215" on="0"/>
        <pt x="184" y="167" on="1"/>
        <pt x="184" y="116" on="0"/>
        <pt x="178" y="32" on="0"/>
        <pt x="178" y="-14" on="1"/>
        <pt x="178" y="-63" on="0"/>
        <pt x="205" y="-105" on="0"/>
        <pt x="246" y="-105" on="1"/>
      </contour>
    </TTGlyph>
    <TTGlyph name="braceright" xMin="31" yMin="-152" xMax="269" yMax="708">
      <contour>
        <pt x="57" y="-105" on="1"/>
        <pt x="98" y="-105" on="0"/>
        <pt x="125" y="-63" on="0"/>
        <pt x="125" y="-14" on="1"/>
        <pt x="125" y="32" on="0"/>
        <pt x="120" y="116" on="0"/>
        <pt x="120" y="167" on="1"/>
        <pt x="120" y="215" on="0"/>
        <pt x="147" y="267" on="0"/>
        <pt x="179" y="276" on="1"/>
        <pt x="179" y="280" on="1"/>
        <pt x="147" y="289" on="0"/>
        <pt x="120" y="340" on="0"/>
        <pt x="120" y="389" on="1"/>
        <pt x="120" y="440" on="0"/>
        <pt x="125" y="524" on="0"/>
        <pt x="125" y="570" on="1"/>
        <pt x="125" y="619" on="0"/>
        <pt x="98" y="661" on="0"/>
        <pt x="57" y="661" on="1"/>
        <pt x="31" y="661" on="1"/>
        <pt x="31" y="708" on="1"/>
        <pt x="75" y="708" on="1"/>
        <pt x="105" y="708" on="0"/>
        <pt x="149" y="695" on="0"/>
        <pt x="178" y="665" on="0"/>
        <pt x="192" y="614" on="0"/>
        <pt x="192" y="575" on="1"/>
        <pt x="192" y="520" on="0"/>
        <pt x="183" y="432" on="0"/>
        <pt x="183" y="381" on="1"/>
        <pt x="183" y="352" on="0"/>
        <pt x="219" y="305" on="0"/>
        <pt x="269" y="304" on="1"/>
        <pt x="269" y="252" on="1"/>
        <pt x="244" y="252" on="0"/>
        <pt x="211" y="238" on="0"/>
        <pt x="191" y="216" on="0"/>
        <pt x="183" y="189" on="0"/>
        <pt x="183" y="174" on="1"/>
        <pt x="183" y="149" on="0"/>
        <pt x="186" y="103" on="0"/>
        <pt x="189" y="57" on="0"/>
        <pt x="192" y="8" on="0"/>
        <pt x="192" y="-19" on="1"/>
        <pt x="192" y="-58" on="0"/>
        <pt x="178" y="-109" on="0"/>
        <pt x="149" y="-139" on="0"/>
        <pt x="105" y="-152" on="0"/>
        <pt x="75" y="-152" on="1"/>
        <pt x="31" y="-152" on="1"/>
        <pt x="31" y="-105" on="1"/>
      </contour>
    </TTGlyph>
    <TTGlyph name="bracketleft" xMin="94" yMin="-152" xMax="273" yMax="708">
      <contour>
        <pt x="94" y="708" on="1"/>
        <pt x="273" y="708" on="1"/>
        <pt x="273" y="661" on="1"/>
        <pt x="156" y="661" on="1"/>
        <pt x="156" y="-105" on="1"/>
        <pt x="273" y="-105" on="1"/>
        <pt x="273" y="-152" on="1"/>
        <pt x="94" y="-152" on="1"/>
      </contour>
    </TTGlyph>
    <TTGlyph name="bracketright" xMin="31" yMin="-152" xMax="209" yMax="708">
      <contour>
        <pt x="147" y="-105" on="1"/>
        <pt x="147" y="661" on="1"/>
        <pt x="31" y="661" on="1"/>
        <pt x="31" y="708" on="1"/>
        <pt x="209" y="708" on="1"/>
        <pt x="209" y="-152" on="1"/>
        <pt x="31" y="-152" on="1"/>
        <pt x="31" y="-105" on="1"/>
      </contour>
    </TTGlyph>
    <TTGlyph name="breve" xMin="145" yMin="575" xMax="397" yMax="702">
      <component glyphName="uni0306" x="271" y="0" flags="0x4"/>
    </TTGlyph>
    <TTGlyph name="brokenbar" xMin="92" yMin="-250" xMax="150" yMax="750">
      <contour>
        <pt x="92" y="750" on="1"/>
        <pt x="150" y="750" on="1"/>
        <pt x="150" y="291" on="1"/>
        <pt x="92" y="291" on="1"/>
      </contour>
      <contour>
        <pt x="150" y="214" on="1"/>
        <pt x="150" y="-250" on="1"/>
        <pt x="92" y="-250" on="1"/>
        <pt x="92" y="214" on="1"/>
      </contour>
    </TTGlyph>
    <TTGlyph name="bullet" xMin="40" yMin="143" xMax="264" yMax="384">
      <contour>
        <pt x="152" y="143" on="1"/>
        <pt x="129" y="143" on="0"/>
        <pt x="89" y="160" on="0"/>
        <pt x="58" y="192" on="0"/>
        <pt x="40" y="236" on="0"/>
        <pt x="40" y="263" on="1"/>
        <pt x="40" y="290" on="0"/>
        <pt x="58" y="335" on="0"/>
        <pt x="89" y="366" on="0"/>
        <pt x="129" y="384" on="0"/>
        <pt x="152" y="384" on="1"/>
        <pt x="174" y="384" on="0"/>
        <pt x="215" y="366" on="0"/>
        <pt x="246" y="335" on="0"/>
        <pt x="264" y="290" on="0"/>
        <pt x="264" y="263" on="1"/>
        <pt x="264" y="236" on="0"/>
        <pt x="246" y="192" on="0"/>
        <pt x="215" y="160" on="0"/>
        <pt x="174" y="143" on="0"/>
      </contour>
    </TTGlyph>
    <TTGlyph name="c" xMin="46" yMin="-12" xMax="432" yMax="498">
      <contour>
        <pt x="46" y="242" on="1"/>
        <pt x="46" y="303" on="0"/>
        <pt x="84" y="398" on="0"/>
        <pt x="148" y="464" on="0"/>
        <pt x="233" y="498" on="0"/>
        <pt x="280" y="498" on="1"/>
        <pt x="328" y="498" on="0"/>
        <pt x="397" y="463" on="0"/>
        <pt x="422" y="440" on="1"/>
        <pt x="381" y="387" on="1"/>
        <pt x="359" y="406" on="0"/>
        <pt x="312" y="430" on="0"/>
        <pt x="283" y="430" on="1"/>
        <pt x="250" y="430" on="0"/>
        <pt x="194" y="403" on="0"/>
        <pt x="154" y="353" on="0"/>
        <pt x="131" y="284" on="0"/>
        <pt x="131" y="242" on="1"/>
        <pt x="131" y="200" on="0"/>
        <pt x="153" y="132" on="0"/>
        <pt x="192" y="83" on="0"/>
        <pt x="248" y="56" on="0"/>
        <pt x="281" y="56" on="1"/>
        <pt x="316" y="56" on="0"/>
        <pt x="373" y="85" on="0"/>
        <pt x="395" y="105" on="1"/>
        <pt x="432" y="51" on="1"/>
        <pt x="399" y="22" on="0"/>
        <pt x="318" y="-12" on="0"/>
        <pt x="274" y="-12" on="1"/>
        <pt x="226" y="-12" on="0"/>
        <pt x="142" y="22" on="0"/>
        <pt x="81" y="87" on="0"/>
        <pt x="46" y="182" on="0"/>
      </contour>
    </TTGlyph>
    <TTGlyph name="c.sups" xMin="30" yMin="258" xMax="290" yMax="596">
      <contour>
        <pt x="184" y="258" on="1"/>
        <pt x="117" y="258" on="0"/>
        <pt x="30" y="346" on="0"/>
        <pt x="30" y="427" on="1"/>
        <pt x="30" y="467" on="0"/>
        <pt x="55" y="530" on="0"/>
        <pt x="98" y="573" on="0"/>
        <pt x="155" y="596" on="0"/>
        <pt x="186" y="596" on="1"/>
        <pt x="221" y="596" on="0"/>
        <pt x="270" y="574" on="0"/>
        <pt x="285" y="561" on="1"/>
        <pt x="255" y="520" on="1"/>
        <pt x="240" y="533" on="0"/>
        <pt x="212" y="545" on="0"/>
        <pt x="190" y="545" on="1"/>
        <pt x="148" y="545" on="0"/>
        <pt x="93" y="480" on="0"/>
        <pt x="93" y="427" on="1"/>
        <pt x="93" y="375" on="0"/>
        <pt x="147" y="309" on="0"/>
        <pt x="190" y="309" on="1"/>
        <pt x="216" y="309" on="0"/>
        <pt x="250" y="326" on="0"/>
        <pt x="264" y="337" on="1"/>
        <pt x="290" y="296" on="1"/>
        <pt x="273" y="282" on="0"/>
        <pt x="222" y="258" on="0"/>
      </contour>
    </TTGlyph>
    <TTGlyph name="cacute" xMin="46" yMin="-12" xMax="432" yMax="714">
      <component glyphName="c" x="0" y="0" flags="0x204"/>
      <component glyphName="uni0301" x="279" y="0" flags="0x4"/>
    </TTGlyph>
    <TTGlyph name="caron" xMin="142" yMin="573" xMax="400" yMax="714">
      <component glyphName="uni030C" x="271" y="0" flags="0x4"/>
    </TTGlyph>
    <TTGlyph name="ccaron" xMin="46" yMin="-12" xMax="432" yMax="714">
      <component glyphName="c" x="0" y="0" flags="0x204"/>
      <component glyphName="uni030C" x="279" y="0" flags="0x4"/>
    </TTGlyph>
    <TTGlyph name="ccedilla" xMin="46" yMin="-213" xMax="432" yMax="498">
      <component glyphName="c" x="0" y="0" flags="0x204"/>
      <component glyphName="uni0327" x="272" y="0" flags="0x4"/>
    </TTGlyph>
    <TTGlyph name="ccircumflex" xMin="46" yMin="-12" xMax="432" yMax="714">
      <component glyphName="c" x="0" y="0" flags="0x204"/>
      <component glyphName="uni0302" x="279" y="0" flags="0x4"/>
    </TTGlyph>
    <TTGlyph name="cdotaccent" xMin="46" yMin="-12" xMax="432" yMax="694">
      <component glyphName="c" x="0" y="0" flags="0x204"/>
      <component glyphName="uni0307" x="279" y="0" flags="0x4"/>
    </TTGlyph>
    <TTGlyph name="cedilla" xMin="192" yMin="-213" xMax="345" yMax="3">
      <component glyphName="uni0327" x="277" y="0" flags="0x4"/>
    </TTGlyph>
    <TTGlyph name="cent" xMin="61" yMin="-33" xMax="454" yMax="653">
      <contour>
        <pt x="262" y="477" on="1"/>
        <pt x="207" y="464" on="0"/>
        <pt x="143" y="376" on="0"/>
        <pt x="143" y="310" on="1"/>
        <pt x="143" y="243" on="0"/>
        <pt x="205" y="155" on="0"/>
        <pt x="262" y="142" on="1"/>
      </contour>
      <contour>
        <pt x="454" y="133" on="1"/>
        <pt x="425" y="107" on="0"/>
        <pt x="353" y="73" on="0"/>
        <pt x="314" y="70" on="1"/>
        <pt x="314" y="-33" on="1"/>
        <pt x="262" y="-33" on="1"/>
        <pt x="262" y="71" on="1"/>
        <pt x="217" y="76" on="0"/>
        <pt x="143" y="113" on="0"/>
        <pt x="90" y="173" on="0"/>
        <pt x="61" y="257" on="0"/>
        <pt x="61" y="310" on="1"/>
        <pt x="61" y="362" on="0"/>
        <pt x="92" y="444" on="0"/>
        <pt x="146" y="504" on="0"/>
        <pt x="220" y="541" on="0"/>
        <pt x="262" y="547" on="1"/>
        <pt x="262" y="653" on="1"/>
        <pt x="314" y="653" on="1"/>
        <pt x="314" y="550" on="1"/>
        <pt x="358" y="548" on="0"/>
        <pt x="422" y="514" on="0"/>
        <pt x="445" y="492" on="1"/>
        <pt x="405" y="440" on="1"/>
        <pt x="385" y="458" on="0"/>
        <pt x="340" y="480" on="0"/>
        <pt x="314" y="482" on="1"/>
        <pt x="314" y="138" on="1"/>
        <pt x="346" y="140" on="0"/>
        <pt x="398" y="167" on="0"/>
        <pt x="418" y="185" on="1"/>
      </contour>
    </TTGlyph>
    <TTGlyph name="circumflex" xMin="142" yMin="573" xMax="400" yMax="714">
      <component glyphName="uni0302" x="271" y="0" flags="0x4"/>
    </TTGlyph>
    <TTGlyph name="colon" xMin="65" yMin="-12" xMax="184" yMax="475">
      <component glyphName="period" x="0" y="361" flags="0x204"/>
      <component glyphName="period" x="0" y="0" flags="0x4"/>
    </TTGlyph>
    <TTGlyph name="colon.sups" xMin="43" yMin="432" xMax="134" yMax="753">
      <contour>
        <pt x="43" y="479" on="1"/>
        <pt x="43" y="501" on="0"/>
        <pt x="69" y="527" on="0"/>
        <pt x="89" y="527" on="1"/>
        <pt x="109" y="527" on="0"/>
        <pt x="134" y="501" on="0"/>
        <pt x="134" y="479" on="1"/>
        <pt x="134" y="458" on="0"/>
        <pt x="109" y="432" on="0"/>
        <pt x="89" y="432" on="1"/>
        <pt x="69" y="432" on="0"/>
        <pt x="43" y="458" on="0"/>
      </contour>
      <contour>
        <pt x="43" y="705" on="1"/>
        <pt x="43" y="726" on="0"/>
        <pt x="69" y="753" on="0"/>
        <pt x="89" y="753" on="1"/>
        <pt x="109" y="753" on="0"/>
        <pt x="134" y="726" on="0"/>
        <pt x="134" y="705" on="1"/>
        <pt x="134" y="683" on="0"/>
        <pt x="109" y="657" on="0"/>
        <pt x="89" y="657" on="1"/>
        <pt x="69" y="657" on="0"/>
        <pt x="43" y="683" on="0"/>
      </contour>
    </TTGlyph>
    <TTGlyph name="colonmonetary" xMin="61" yMin="-110" xMax="478" yMax="748">
      <contour>
        <pt x="230" y="78" on="1"/>
        <pt x="255" y="60" on="0"/>
        <pt x="286" y="56" on="1"/>
        <pt x="348" y="580" on="1"/>
        <pt x="340" y="582" on="0"/>
        <pt x="326" y="584" on="0"/>
        <pt x="318" y="584" on="1"/>
        <pt x="310" y="584" on="0"/>
        <pt x="297" y="583" on="0"/>
        <pt x="290" y="582" on="1"/>
      </contour>
      <contour>
        <pt x="251" y="569" on="1"/>
        <pt x="200" y="543" on="0"/>
        <pt x="146" y="415" on="0"/>
        <pt x="146" y="321" on="1"/>
        <pt x="146" y="253" on="0"/>
        <pt x="172" y="148" on="0"/>
        <pt x="197" y="113" on="1"/>
      </contour>
      <contour>
        <pt x="478" y="81" on="1"/>
        <pt x="446" y="40" on="0"/>
        <pt x="367" y="-9" on="0"/>
        <pt x="316" y="-12" on="1"/>
        <pt x="304" y="-110" on="1"/>
        <pt x="266" y="-110" on="1"/>
        <pt x="278" y="-11" on="1"/>
        <pt x="250" y="-8" on="0"/>
        <pt x="221" y="3" on="1"/>
        <pt x="208" y="-110" on="1"/>
        <pt x="170" y="-110" on="1"/>
        <pt x="186" y="21" on="1"/>
        <pt x="128" y="59" on="0"/>
        <pt x="61" y="210" on="0"/>
        <pt x="61" y="318" on="1"/>
        <pt x="61" y="452" on="0"/>
        <pt x="168" y="621" on="0"/>
        <pt x="260" y="643" on="1"/>
        <pt x="272" y="748" on="1"/>
        <pt x="310" y="748" on="1"/>
        <pt x="298" y="649" on="1"/>
        <pt x="303" y="650" on="0"/>
        <pt x="315" y="650" on="0"/>
        <pt x="320" y="650" on="1"/>
        <pt x="340" y="650" on="0"/>
        <pt x="356" y="646" on="1"/>
        <pt x="368" y="748" on="1"/>
        <pt x="406" y="748" on="1"/>
        <pt x="392" y="634" on="1"/>
        <pt x="416" y="623" on="0"/>
        <pt x="457" y="588" on="0"/>
        <pt x="473" y="568" on="1"/>
        <pt x="424" y="522" on="1"/>
        <pt x="405" y="546" on="0"/>
        <pt x="384" y="561" on="1"/>
        <pt x="324" y="55" on="1"/>
        <pt x="356" y="59" on="0"/>
        <pt x="407" y="94" on="0"/>
        <pt x="430" y="125" on="1"/>
      </contour>
    </TTGlyph>
    <TTGlyph name="comma" xMin="47" yMin="-170" xMax="198" yMax="114">
      <contour>
        <pt x="47" y="-122" on="1"/>
        <pt x="89" y="-103" on="0"/>
        <pt x="137" y="-41" on="0"/>
        <pt x="137" y="0" on="1"/>
        <pt x="134" y="-1" on="0"/>
        <pt x="127" y="-1" on="1"/>
        <pt x="103" y="-1" on="0"/>
        <pt x="68" y="28" on="0"/>
        <pt x="68" y="56" on="1"/>
        <pt x="68" y="83" on="0"/>
        <pt x="104" y="114" on="0"/>
        <pt x="129" y="114" on="1"/>
        <pt x="161" y="114" on="0"/>
        <pt x="198" y="62" on="0"/>
        <pt x="198" y="17" on="1"/>
        <pt x="198" y="-48" on="0"/>
        <pt x="128" y="-144" on="0"/>
        <pt x="67" y="-170" on="1"/>
      </contour>
    </TTGlyph>
    <TTGlyph name="comma.dnom" xMin="33" yMin="-116" xMax="144" yMax="87">
      <contour>
        <pt x="33" y="-79" on="1"/>
        <pt x="62" y="-68" on="0"/>
        <pt x="96" y="-29" on="0"/>
        <pt x="97" y="0" on="1"/>
        <pt x="94" y="-1" on="0"/>
        <pt x="89" y="-1" on="1"/>
        <pt x="72" y="-1" on="0"/>
        <pt x="44" y="20" on="0"/>
        <pt x="44" y="41" on="1"/>
        <pt x="44" y="62" on="0"/>
        <pt x="72" y="87" on="0"/>
        <pt x="91" y="87" on="1"/>
        <pt x="116" y="87" on="0"/>
        <pt x="144" y="50" on="0"/>
        <pt x="144" y="14" on="1"/>
        <pt x="144" y="-31" on="0"/>
        <pt x="94" y="-99" on="0"/>
        <pt x="49" y="-116" on="1"/>
      </contour>
    </TTGlyph>
    <TTGlyph name="comma.numr" xMin="33" yMin="150" xMax="144" yMax="353">
      <component glyphName="comma.dnom" x="0" y="266" flags="0x204"/>
    </TTGlyph>
    <TTGlyph name="comma.subs" xMin="33" yMin="-323" xMax="144" yMax="-120">
      <component glyphName="comma.dnom" x="0" y="-207" flags="0x204"/>
    </TTGlyph>
    <TTGlyph name="comma.sups" xMin="33" yMin="324" xMax="144" yMax="527">
      <component glyphName="comma.dnom" x="0" y="440" flags="0x204"/>
    </TTGlyph>
</ttFont>
